<?xml version="1.0" encoding="UTF-8"?>
<!DOCTYPE svg PUBLIC "-//W3C//DTD SVG 1.1//EN" "http://www.w3.org/Graphics/SVG/1.1/DTD/svg11.dtd">
<!-- Creator: CorelDRAW 2019 (64-Bit) -->
<svg xmlns="http://www.w3.org/2000/svg" xml:space="preserve" width="3167px" height="1056px" version="1.1" style="shape-rendering:geometricPrecision; text-rendering:geometricPrecision; image-rendering:optimizeQuality; fill-rule:evenodd; clip-rule:evenodd"
viewBox="0 0 3167 1055.72"
 xmlns:xlink="http://www.w3.org/1999/xlink"
 xmlns:xodm="http://www.corel.com/coreldraw/odm/2003">
 <defs>
  <style type="text/css">
   <![CDATA[
    .fil3 {fill:#A2D9CE}
    .fil2 {fill:white}
    .fil1 {fill:#A2D9CE;fill-rule:nonzero}
    .fil0 {fill:white;fill-rule:nonzero}
   ]]>
  </style>
 </defs>
 <g id="Capa_x0020_1">
  <metadata id="CorelCorpID_0Corel-Layer"/>
  <path class="fil0" d="M556.45 751.61l-34.45 0c-7.25,0 -12.94,-1.14 -17.08,-3.31 -4.13,-2.18 -7.24,-6.52 -9.31,-13.14l-6.83 -22.66c-8.07,7.24 -15.93,13.55 -23.69,19.04 -7.76,5.48 -15.83,10.14 -24.1,13.86 -8.28,3.72 -17.08,6.52 -26.39,8.38 -9.31,1.86 -19.66,2.79 -31.04,2.79 -13.45,0 -25.86,-1.86 -37.24,-5.48 -11.38,-3.62 -21.11,-9 -29.28,-16.35 -8.17,-7.24 -14.59,-16.24 -19.14,-27.1 -4.55,-10.76 -6.83,-23.28 -6.83,-37.66 0,-12.01 3.21,-23.9 9.52,-35.59 6.31,-11.8 16.76,-22.35 31.45,-31.77 14.69,-9.52 34.25,-17.38 58.66,-23.59 24.42,-6.2 54.73,-9.31 90.95,-9.31l0 -18.72c0,-21.52 -4.45,-37.46 -13.45,-47.7 -9.01,-10.35 -22.14,-15.52 -39.32,-15.52 -12.42,0 -22.76,1.45 -31.04,4.35 -8.27,2.89 -15.41,6.1 -21.52,9.72 -6.1,3.62 -11.79,6.93 -16.97,9.83 -5.17,2.9 -10.86,4.35 -17.07,4.35 -5.17,0 -9.62,-1.35 -13.34,-4.04 -3.73,-2.69 -6.73,-6 -9,-9.93l-13.97 -24.52c36.62,-33.73 80.8,-50.6 132.53,-50.6 18.63,0 35.28,3.11 49.87,9.21 14.59,6.11 26.9,14.59 37.04,25.45 10.14,10.87 17.9,23.9 23.18,39.01 5.27,15.1 7.86,31.66 7.86,49.66l0 201.34zm-148.99 -47.8c7.87,0 15.11,-0.73 21.73,-2.17 6.62,-1.45 12.93,-3.63 18.83,-6.52 5.9,-2.9 11.59,-6.52 17.07,-10.76 5.49,-4.24 10.97,-9.21 16.56,-15l0 -53.08c-22.35,0 -40.98,1.45 -55.98,4.24 -15,2.8 -27.1,6.42 -36.21,10.86 -9.1,4.35 -15.52,9.52 -19.35,15.32 -3.82,5.9 -5.79,12.21 -5.79,19.14 0,13.55 4.03,23.38 12,29.17 7.97,5.9 18.31,8.8 31.14,8.8z"/>
  <path id="1" class="fil0" d="M631.87 751.61l0 -318.46 46.87 0c9.93,0 16.45,4.66 19.56,13.97l5.27 25.14c6.42,-6.62 13.24,-12.62 20.38,-18 7.14,-5.38 14.7,-10.04 22.66,-13.97 7.97,-3.93 16.45,-6.93 25.56,-9 9.1,-2.07 19.03,-3.1 29.79,-3.1 17.39,0 32.8,2.89 46.25,8.79 13.45,5.9 24.73,14.17 33.73,24.83 9,10.66 15.83,23.38 20.49,38.18 4.65,14.79 6.93,31.14 6.93,48.94l0 202.68 -76.67 0 0 -202.68c0,-19.45 -4.45,-34.56 -13.45,-45.22 -9,-10.65 -22.55,-15.93 -40.55,-15.93 -13.25,0 -25.66,3 -37.25,9 -11.59,6 -22.56,14.18 -32.9,24.52l0 230.31 -76.67 0z"/>
  <path id="2" class="fil0" d="M984.78 751.61l0 -318.46 45.01 0c7.86,0 13.34,1.45 16.45,4.35 3.1,2.89 5.17,7.86 6.21,14.9l4.65 38.48c11.38,-19.76 24.73,-35.38 40.04,-46.76 15.31,-11.49 32.49,-17.18 51.53,-17.18 15.72,0 28.76,3.73 39.1,11.18l-9.93 57.42c-0.62,3.72 -1.96,6.31 -4.03,7.86 -2.07,1.55 -4.87,2.38 -8.38,2.38 -3.11,0 -7.35,-0.72 -12.73,-2.17 -5.38,-1.45 -12.52,-2.17 -21.42,-2.17 -15.93,0 -29.59,4.34 -40.97,13.14 -11.38,8.79 -21,21.72 -28.86,38.69l0 198.34 -76.67 0z"/>
  <path id="3" class="fil1" d="M1238.37 751.61l0 -461.24 76.66 0 0 177.23c12.42,-11.79 26.07,-21.31 40.97,-28.55 14.9,-7.24 32.39,-10.86 52.46,-10.86 17.38,0 32.8,2.89 46.25,8.79 13.45,5.9 24.72,14.17 33.72,24.83 9.01,10.66 15.83,23.38 20.49,38.18 4.66,14.79 6.93,31.14 6.93,48.94l0 202.68 -76.66 0 0 -202.68c0,-19.45 -4.45,-34.56 -13.45,-45.22 -9,-10.65 -22.56,-15.93 -40.56,-15.93 -13.24,0 -25.66,3 -37.25,9 -11.58,6 -22.55,14.18 -32.9,24.52l0 230.31 -76.66 0z"/>
  <path id="4" class="fil1" d="M1661.42 433.15l0 202.17c0,19.34 4.56,34.45 13.56,45.11 9,10.65 22.45,15.93 40.45,15.93 13.24,0 25.66,-2.9 37.25,-8.69 11.58,-5.8 22.55,-13.87 32.9,-24.01l0 -230.51 76.66 0 0 318.46 -46.87 0c-9.93,0 -16.45,-4.66 -19.55,-13.97l-5.28 -25.45c-6.62,6.62 -13.45,12.62 -20.48,18.1 -7.04,5.49 -14.49,10.14 -22.45,13.97 -7.97,3.83 -16.56,6.83 -25.76,9 -9.21,2.18 -19.15,3.31 -29.7,3.31 -17.38,0 -32.69,-3 -46.04,-8.89 -13.35,-5.9 -24.62,-14.18 -33.73,-24.94 -9.1,-10.76 -15.93,-23.59 -20.59,-38.38 -4.65,-14.8 -7.03,-31.04 -7.03,-48.84l0 -202.37 76.66 0z"/>
  <path id="5" class="fil1" d="M2167.97 500.82c-2.27,2.89 -4.45,5.17 -6.62,6.82 -2.17,1.66 -5.38,2.49 -9.52,2.49 -3.93,0 -7.76,-1.24 -11.48,-3.62 -3.73,-2.38 -8.18,-5.07 -13.35,-8.07 -5.17,-3 -11.28,-5.69 -18.41,-8.07 -7.14,-2.38 -16.04,-3.52 -26.59,-3.52 -13.45,0 -25.25,2.38 -35.39,7.24 -10.14,4.86 -18.52,11.9 -25.24,21 -6.73,9 -11.8,20.08 -15.11,33.01 -3.31,12.83 -4.96,27.52 -4.96,43.76 0,16.97 1.86,32.08 5.48,45.32 3.62,13.24 8.79,24.31 15.62,33.31 6.83,9 15.11,15.83 24.83,20.49 9.73,4.66 20.7,6.93 32.9,6.93 12.21,0 22.14,-1.45 29.7,-4.45 7.55,-3 13.86,-6.31 19.03,-9.93 5.18,-3.62 9.73,-6.93 13.56,-9.93 3.83,-3 8.07,-4.55 12.83,-4.55 6.2,0 10.86,2.48 13.96,7.24l22.04 28.14c-8.48,9.93 -17.69,18.21 -27.62,24.93 -9.94,6.73 -20.18,12.11 -30.83,16.14 -10.66,4.04 -21.73,6.94 -33.11,8.59 -11.38,1.66 -22.66,2.48 -33.83,2.48 -19.66,0 -38.18,-3.72 -55.56,-11.07 -17.38,-7.34 -32.49,-18 -45.42,-32.07 -12.94,-14.17 -23.18,-31.35 -30.73,-51.73 -7.55,-20.49 -11.38,-43.66 -11.38,-69.84 0,-23.38 3.41,-45 10.14,-65.07 6.72,-19.97 16.55,-37.25 29.59,-51.84 13.03,-14.59 29.17,-26.07 48.42,-34.35 19.24,-8.28 41.38,-12.41 66.42,-12.41 23.8,0 44.7,3.82 62.59,11.58 17.9,7.66 33.94,18.73 48.22,33.11l-20.18 27.94z"/>
  <path id="6" class="fil1" d="M2489.84 751.61l-34.45 0c-7.24,0 -12.93,-1.14 -17.07,-3.31 -4.14,-2.18 -7.24,-6.52 -9.31,-13.14l-6.83 -22.66c-8.07,7.24 -15.93,13.55 -23.69,19.04 -7.76,5.48 -15.83,10.14 -24.11,13.86 -8.28,3.72 -17.07,6.52 -26.38,8.38 -9.32,1.86 -19.66,2.79 -31.04,2.79 -13.45,0 -25.87,-1.86 -37.25,-5.48 -11.38,-3.62 -21.1,-9 -29.28,-16.35 -8.17,-7.24 -14.59,-16.24 -19.14,-27.1 -4.55,-10.76 -6.83,-23.28 -6.83,-37.66 0,-12.01 3.21,-23.9 9.52,-35.59 6.31,-11.8 16.76,-22.35 31.45,-31.77 14.7,-9.52 34.25,-17.38 58.67,-23.59 24.41,-6.2 54.73,-9.31 90.94,-9.31l0 -18.72c0,-21.52 -4.45,-37.46 -13.45,-47.7 -9,-10.35 -22.14,-15.52 -39.32,-15.52 -12.41,0 -22.76,1.45 -31.03,4.35 -8.28,2.89 -15.42,6.1 -21.52,9.72 -6.11,3.62 -11.8,6.93 -16.97,9.83 -5.18,2.9 -10.87,4.35 -17.07,4.35 -5.18,0 -9.63,-1.35 -13.35,-4.04 -3.72,-2.69 -6.72,-6 -9,-9.93l-13.97 -24.52c36.63,-33.73 80.8,-50.6 132.54,-50.6 18.62,0 35.28,3.11 49.86,9.21 14.59,6.11 26.91,14.59 37.04,25.45 10.14,10.87 17.9,23.9 23.18,39.01 5.28,15.1 7.86,31.66 7.86,49.66l0 201.34zm-148.98 -47.8c7.86,0 15.1,-0.73 21.72,-2.17 6.63,-1.45 12.94,-3.63 18.83,-6.52 5.9,-2.9 11.59,-6.52 17.08,-10.76 5.48,-4.24 10.96,-9.21 16.55,-15l0 -53.08c-22.35,0 -40.97,1.45 -55.97,4.24 -15.01,2.8 -27.11,6.42 -36.21,10.86 -9.11,4.35 -15.52,9.52 -19.35,15.32 -3.83,5.9 -5.8,12.21 -5.8,19.14 0,13.55 4.04,23.38 12.01,29.17 7.96,5.9 18.31,8.8 31.14,8.8z"/>
  <path class="fil0" d="M2640.12 598.31l3.75 0.03c61.74,0 117.65,-25.03 158.1,-65.48 40.45,-40.46 65.49,-96.37 65.49,-158.1 0,-61.73 -25.04,-117.64 -65.49,-158.09 -40.45,-40.46 -96.36,-65.49 -158.1,-65.49l-3.75 0.03 0 76.15 3.75 -0.05c40.72,0 77.59,16.51 104.26,43.19 26.68,26.68 43.19,63.55 43.19,104.26 0,40.71 -16.51,77.58 -43.19,104.26 -26.67,26.68 -63.54,43.19 -104.26,43.19l-3.75 -0.05 0 76.15z"/>
  <circle class="fil2" cx="2645.71" cy="334.53" r="31.89"/>
  <g id="_1767677592480">
   <path class="fil1" d="M2653.24 227.34l0.03 -3.76c0,-61.73 -25.04,-117.64 -65.49,-158.09 -40.45,-40.45 -96.36,-65.49 -158.1,-65.49 -61.73,0 -117.64,25.04 -158.09,65.49 -40.45,40.45 -65.49,96.36 -65.49,158.09l0.03 3.76 76.15 0 -0.04 -3.76c0,-40.71 16.51,-77.58 43.18,-104.26 26.68,-26.68 63.55,-43.18 104.26,-43.18 40.72,0 77.59,16.5 104.26,43.18 26.68,26.68 43.19,63.55 43.19,104.26l-0.05 3.76 76.16 0z"/>
   <path class="fil3" d="M2368.44 263.95l0 -69.79c0,-10.87 8.9,-19.76 19.76,-19.76l0 0c10.87,0 19.76,8.89 19.76,19.76l0 69.79c0,10.87 -8.89,19.76 -19.76,19.76l0 0c-10.87,0 -19.76,-8.89 -19.76,-19.76z"/>
  </g>
  <path class="fil1" d="M14.93 1002.29l-3.91 31.87 -11.02 0 10.37 -84.95 23.4 0c4.5,0 8.41,0.54 11.73,1.6 3.31,1.07 6.06,2.59 8.21,4.56 2.15,1.98 3.75,4.37 4.82,7.13 1.06,2.77 1.6,5.85 1.6,9.24 0,4.49 -0.73,8.57 -2.19,12.31 -1.47,3.75 -3.58,6.95 -6.36,9.63 -2.79,2.71 -6.22,4.8 -10.31,6.32 -4.09,1.52 -8.77,2.29 -14.02,2.29l-12.32 0zm5.45 -44.31l-4.39 35.54 12.33 0c3.35,0 6.31,-0.51 8.88,-1.54 2.57,-1.02 4.72,-2.46 6.46,-4.3 1.74,-1.84 3.06,-4.03 3.97,-6.58 0.91,-2.54 1.36,-5.31 1.36,-8.31 0,-2.29 -0.34,-4.34 -1.01,-6.16 -0.67,-1.82 -1.67,-3.38 -3.02,-4.66 -1.34,-1.28 -3.04,-2.27 -5.09,-2.96 -2.06,-0.69 -4.45,-1.03 -7.17,-1.03l-12.32 0z"/>
  <path id="1" class="fil1" d="M106.63 1034.16l-5.45 0c-1.38,0 -2.31,-0.35 -2.8,-1.04 -0.5,-0.72 -0.76,-1.56 -0.76,-2.57l1.07 -12.09c-1.42,2.51 -2.94,4.78 -4.58,6.82 -1.64,2.05 -3.38,3.79 -5.21,5.21 -1.84,1.44 -3.77,2.55 -5.79,3.32 -2.01,0.79 -4.11,1.18 -6.28,1.18 -2.37,0 -4.52,-0.47 -6.45,-1.4 -1.94,-0.93 -3.58,-2.29 -4.94,-4.09 -1.36,-1.79 -2.43,-4.01 -3.18,-6.63 -0.75,-2.63 -1.13,-5.65 -1.13,-9.05 0,-3.55 0.46,-7.03 1.35,-10.4 0.89,-3.38 2.15,-6.58 3.79,-9.58 1.64,-3 3.59,-5.76 5.88,-8.27 2.29,-2.51 4.86,-4.68 7.68,-6.52 2.83,-1.84 5.85,-3.26 9.09,-4.26 3.24,-1.01 6.63,-1.52 10.19,-1.52 2.56,0 5.07,0.21 7.5,0.63 2.43,0.41 4.82,1.14 7.19,2.17l-7.17 58.09zm-25.83 -7.94c1.94,0 3.83,-0.59 5.69,-1.77 1.85,-1.19 3.61,-2.85 5.27,-4.94 1.66,-2.09 3.22,-4.6 4.66,-7.5 1.44,-2.91 2.71,-6.09 3.81,-9.54l2.55 -20.32c-0.87,-0.71 -1.72,-1.07 -2.57,-1.07 -0.85,0 -1.7,0 -2.53,0 -2.37,0 -4.66,0.38 -6.87,1.15 -2.21,0.77 -4.28,1.86 -6.22,3.24 -1.93,1.38 -3.69,3.02 -5.27,4.93 -1.58,1.92 -2.92,4.01 -4.05,6.3 -1.12,2.29 -2.01,4.72 -2.64,7.31 -0.63,2.59 -0.95,5.23 -0.95,7.96 0,9.49 3.04,14.25 9.12,14.25zm35.31 -77.84l-14.69 15.23c-0.56,0.59 -1.11,1.01 -1.68,1.24 -0.58,0.24 -1.27,0.36 -2.06,0.36l-6.04 0 9.84 -14.34c0.55,-0.87 1.16,-1.5 1.83,-1.89 0.67,-0.4 1.62,-0.6 2.85,-0.6l9.95 0z"/>
  <path id="2" class="fil1" d="M166.46 990.72c-0.04,1.98 -0.28,3.75 -0.73,5.35 -0.45,1.58 -1.03,3.04 -1.7,4.39 -0.67,1.34 -1.4,2.6 -2.19,3.79 -0.79,1.18 -1.52,2.37 -2.19,3.55 -0.67,1.19 -1.23,2.41 -1.68,3.65 -0.46,1.25 -0.69,2.61 -0.69,4.07 0,1.66 0.41,3.16 1.22,4.5 0.81,1.35 1.7,2.73 2.67,4.15 0.97,1.42 1.85,2.98 2.66,4.66 0.81,1.68 1.21,3.67 1.21,5.96 0,2.81 -0.65,5.47 -1.96,7.98 -1.3,2.51 -3.16,4.72 -5.57,6.67 -2.4,1.94 -5.33,3.46 -8.78,4.59 -3.46,1.12 -7.35,1.69 -11.65,1.69 -3.44,0 -6.56,-0.35 -9.38,-1.06 -2.83,-0.71 -5.23,-1.72 -7.23,-3.02 -1.99,-1.31 -3.53,-2.89 -4.62,-4.72 -1.08,-1.84 -1.64,-3.85 -1.64,-6.06 0,-3.12 0.81,-5.81 2.43,-8.06 1.62,-2.25 3.75,-4.11 6.4,-5.57 2.65,-1.46 5.67,-2.53 9.04,-3.2 3.38,-0.67 6.81,-1 10.33,-1 1.42,0 2.84,0.05 4.24,0.19 1.41,0.12 2.79,0.3 4.17,0.52 -0.35,-0.76 -0.63,-1.54 -0.85,-2.35 -0.22,-0.83 -0.33,-1.7 -0.33,-2.67 0,-1.22 0.19,-2.49 0.57,-3.81 0.37,-1.3 0.99,-2.77 1.86,-4.4 -1.51,1.02 -3.18,1.79 -5.04,2.35 -1.86,0.53 -3.97,0.81 -6.34,0.81 -2.29,0 -4.42,-0.38 -6.42,-1.13 -1.99,-0.75 -3.75,-1.86 -5.25,-3.32 -1.5,-1.46 -2.68,-3.3 -3.55,-5.49 -0.87,-2.19 -1.31,-4.76 -1.31,-7.68 0,-2.86 0.54,-5.65 1.58,-8.39 1.05,-2.76 2.57,-5.21 4.59,-7.37 2.01,-2.15 4.5,-3.89 7.46,-5.19 2.96,-1.3 6.38,-1.95 10.25,-1.95 4.34,0 8.11,1.02 11.31,3.08l16.29 0 -0.47 3.51c-0.08,0.67 -0.3,1.28 -0.67,1.84 -0.38,0.55 -0.95,0.89 -1.7,1l-7.46 1.33c0.35,1.02 0.63,2.09 0.82,3.24 0.2,1.12 0.3,2.31 0.3,3.57zm-22.87 16.31c2.14,0 4.01,-0.47 5.63,-1.4 1.62,-0.93 3,-2.15 4.13,-3.67 1.13,-1.52 1.97,-3.24 2.57,-5.14 0.59,-1.89 0.88,-3.83 0.88,-5.76 0,-3.48 -0.86,-6.13 -2.62,-7.9 -1.76,-1.78 -4.19,-2.67 -7.27,-2.67 -2.13,0 -4.01,0.44 -5.63,1.31 -1.61,0.86 -2.98,2.03 -4.08,3.51 -1.11,1.46 -1.94,3.12 -2.51,4.98 -0.57,1.85 -0.87,3.81 -0.87,5.82 0,3.56 0.87,6.26 2.59,8.14 1.71,1.85 4.1,2.78 7.18,2.78zm11.85 28.63c0,-1.02 -0.1,-1.97 -0.29,-2.86 -0.2,-0.87 -0.46,-1.72 -0.77,-2.49 -2.14,-0.35 -4.13,-0.61 -6.01,-0.77 -1.87,-0.16 -3.65,-0.24 -5.31,-0.24 -3.24,0 -6.04,0.28 -8.41,0.85 -2.37,0.58 -4.32,1.33 -5.86,2.27 -1.54,0.95 -2.69,2.04 -3.44,3.26 -0.75,1.25 -1.13,2.53 -1.13,3.87 0,2.83 1.21,4.98 3.6,6.48 2.39,1.48 5.76,2.23 10.15,2.23 2.6,0 4.99,-0.34 7.14,-1.03 2.16,-0.69 3.99,-1.6 5.51,-2.74 1.52,-1.13 2.71,-2.47 3.56,-4.01 0.85,-1.52 1.26,-3.14 1.26,-4.82z"/>
  <path id="3" class="fil1" d="M196.38 974.09l-7.23 60.07 -10.37 0 7.23 -60.07 10.37 0zm3.96 -18.83c0,1.02 -0.19,1.97 -0.61,2.86 -0.41,0.89 -0.96,1.68 -1.66,2.37 -0.69,0.69 -1.48,1.24 -2.35,1.64 -0.86,0.39 -1.77,0.59 -2.72,0.59 -0.91,0 -1.8,-0.2 -2.67,-0.59 -0.86,-0.4 -1.62,-0.95 -2.27,-1.64 -0.65,-0.69 -1.18,-1.48 -1.58,-2.37 -0.39,-0.89 -0.59,-1.84 -0.59,-2.86 0,-1.03 0.2,-2 0.59,-2.91 0.4,-0.9 0.93,-1.71 1.6,-2.41 0.67,-0.69 1.44,-1.24 2.31,-1.65 0.87,-0.42 1.76,-0.62 2.67,-0.62 0.95,0 1.85,0.2 2.72,0.6 0.87,0.39 1.66,0.92 2.35,1.62 0.69,0.69 1.23,1.5 1.62,2.42 0.4,0.93 0.59,1.92 0.59,2.95z"/>
  <path id="4" class="fil1" d="M206.21 1034.16l7.17 -60.07 5.27 0c2.37,0 3.55,1.21 3.55,3.62l-0.88 12.2c3.19,-5.51 6.81,-9.66 10.82,-12.46 4,-2.78 8.15,-4.18 12.46,-4.18 4.46,0 7.93,1.5 10.4,4.5 2.47,3 3.69,7.38 3.69,13.15 0,0.79 -0.02,1.6 -0.05,2.43 -0.04,0.83 -0.12,1.7 -0.24,2.6l-4.5 38.21 -10.55 0 4.5 -38.21c0.08,-0.79 0.16,-1.56 0.22,-2.29 0.06,-0.73 0.08,-1.42 0.08,-2.09 0,-3.24 -0.59,-5.65 -1.8,-7.21 -1.2,-1.56 -3.1,-2.33 -5.66,-2.33 -1.9,0 -3.81,0.52 -5.77,1.54 -1.95,1.03 -3.85,2.47 -5.67,4.35 -1.81,1.87 -3.49,4.14 -5.05,6.81 -1.56,2.66 -2.9,5.65 -4.01,8.92l-3.44 30.51 -10.54 0z"/>
  <path id="5" class="fil1" d="M312.66 1034.16l-5.45 0c-1.38,0 -2.31,-0.35 -2.8,-1.04 -0.5,-0.72 -0.75,-1.56 -0.75,-2.57l1.06 -12.09c-1.42,2.51 -2.94,4.78 -4.58,6.82 -1.64,2.05 -3.38,3.79 -5.21,5.21 -1.84,1.44 -3.77,2.55 -5.79,3.32 -2.01,0.79 -4.1,1.18 -6.28,1.18 -2.37,0 -4.52,-0.47 -6.45,-1.4 -1.94,-0.93 -3.58,-2.29 -4.94,-4.09 -1.36,-1.79 -2.43,-4.01 -3.18,-6.63 -0.75,-2.63 -1.12,-5.65 -1.12,-9.05 0,-3.55 0.45,-7.03 1.34,-10.4 0.89,-3.38 2.15,-6.58 3.79,-9.58 1.64,-3 3.59,-5.76 5.88,-8.27 2.29,-2.51 4.86,-4.68 7.69,-6.52 2.82,-1.84 5.84,-3.26 9.08,-4.26 3.24,-1.01 6.63,-1.52 10.19,-1.52 2.56,0 5.07,0.21 7.5,0.63 2.43,0.41 4.82,1.14 7.19,2.17l-7.17 58.09zm-25.83 -7.94c1.94,0 3.83,-0.59 5.69,-1.77 1.86,-1.19 3.61,-2.85 5.27,-4.94 1.66,-2.09 3.22,-4.6 4.66,-7.5 1.44,-2.91 2.71,-6.09 3.81,-9.54l2.55 -20.32c-0.87,-0.71 -1.72,-1.07 -2.57,-1.07 -0.85,0 -1.69,0 -2.53,0 -2.36,0 -4.66,0.38 -6.87,1.15 -2.21,0.77 -4.28,1.86 -6.22,3.24 -1.93,1.38 -3.69,3.02 -5.27,4.93 -1.58,1.92 -2.92,4.01 -4.05,6.3 -1.12,2.29 -2.01,4.72 -2.64,7.31 -0.63,2.59 -0.95,5.23 -0.95,7.96 0,9.49 3.04,14.25 9.12,14.25z"/>
  <path id="6" class="fil1" d="M351.82 974.09l7.88 0c0.79,0 1.44,0.2 1.93,0.6 0.5,0.39 0.77,0.92 0.85,1.6l5.51 38.66c0.2,1.38 0.32,2.72 0.34,4.01 0.02,1.28 0.03,2.54 0.07,3.83 0.48,-1.29 0.97,-2.55 1.47,-3.83 0.49,-1.29 1,-2.63 1.56,-4.01l16.4 -38.9c0.24,-0.59 0.64,-1.09 1.17,-1.48 0.53,-0.4 1.13,-0.59 1.8,-0.59l4.38 0c0.79,0 1.4,0.19 1.84,0.59 0.43,0.39 0.69,0.89 0.77,1.48l6.69 38.9c0.24,1.38 0.43,2.72 0.57,4.03 0.14,1.3 0.26,2.6 0.38,3.93 0.39,-1.29 0.79,-2.57 1.16,-3.89 0.38,-1.33 0.83,-2.69 1.39,-4.07l15.16 -38.66c0.24,-0.64 0.63,-1.15 1.19,-1.56 0.55,-0.42 1.18,-0.64 1.89,-0.64l7.58 0 -25.17 60.07 -8 0c-0.91,0 -1.48,-0.67 -1.72,-2.01l-7.29 -40.74c-0.11,-0.63 -0.21,-1.28 -0.29,-1.93 -0.08,-0.66 -0.16,-1.29 -0.24,-1.92 -0.19,0.67 -0.39,1.32 -0.59,1.96 -0.2,0.63 -0.43,1.28 -0.71,1.95l-17.36 40.68c-0.55,1.34 -1.34,2.01 -2.37,2.01l-7.7 0 -10.54 -60.07z"/>
  <path id="7" class="fil1" d="M483.27 986.97c0,2.62 -0.54,5.01 -1.6,7.23 -1.07,2.19 -3.02,4.16 -5.87,5.92 -2.84,1.76 -6.75,3.3 -11.73,4.6 -4.97,1.3 -11.37,2.37 -19.19,3.16 -0.04,0.43 -0.06,0.85 -0.06,1.26 0,0.42 0,0.85 0,1.29 0,5.29 1.17,9.34 3.48,12.14 2.31,2.79 5.78,4.19 10.44,4.19 1.9,0 3.6,-0.2 5.08,-0.6 1.48,-0.41 2.8,-0.88 3.97,-1.46 1.16,-0.57 2.19,-1.2 3.08,-1.89 0.88,-0.69 1.69,-1.32 2.44,-1.92 0.75,-0.57 1.45,-1.04 2.08,-1.44 0.63,-0.39 1.26,-0.59 1.89,-0.59 0.72,0 1.37,0.33 1.96,1.01l2.61 3.25c-2.02,2.1 -3.97,3.87 -5.89,5.36 -1.91,1.46 -3.89,2.7 -5.9,3.69 -2.02,0.97 -4.11,1.7 -6.3,2.15 -2.19,0.45 -4.56,0.67 -7.09,0.67 -3.44,0 -6.52,-0.57 -9.24,-1.72 -2.73,-1.14 -5.04,-2.78 -6.93,-4.89 -1.9,-2.12 -3.36,-4.68 -4.39,-7.69 -1.02,-3 -1.54,-6.35 -1.54,-10.07 0,-3.08 0.34,-6.16 0.99,-9.22 0.65,-3.06 1.6,-5.98 2.84,-8.74 1.25,-2.77 2.77,-5.34 4.56,-7.71 1.8,-2.38 3.86,-4.42 6.17,-6.14 2.31,-1.71 4.85,-3.08 7.64,-4.06 2.78,-0.99 5.76,-1.48 8.96,-1.48 3.04,0 5.67,0.43 7.88,1.3 2.21,0.87 4.03,1.97 5.45,3.32 1.42,1.36 2.49,2.84 3.18,4.46 0.69,1.62 1.03,3.16 1.03,4.62zm-18.13 -6.12c-2.49,0 -4.78,0.51 -6.87,1.54 -2.09,1.02 -3.95,2.45 -5.57,4.26 -1.62,1.8 -3,3.91 -4.15,6.36 -1.14,2.43 -2.03,5.06 -2.66,7.88 6.08,-0.75 10.96,-1.62 14.63,-2.59 3.67,-0.96 6.5,-2.03 8.47,-3.16 1.97,-1.12 3.28,-2.35 3.91,-3.65 0.63,-1.3 0.95,-2.69 0.95,-4.11 0,-0.71 -0.16,-1.46 -0.48,-2.23 -0.31,-0.77 -0.81,-1.48 -1.5,-2.11 -0.69,-0.63 -1.6,-1.15 -2.7,-1.56 -1.11,-0.42 -2.45,-0.63 -4.03,-0.63z"/>
  <path id="8" class="fil1" d="M490.38 1034.16l10.54 -87.32 10.37 0 -5.22 42.95c1.51,-2.49 3.12,-4.78 4.86,-6.85 1.74,-2.05 3.56,-3.81 5.45,-5.25 1.9,-1.42 3.87,-2.55 5.93,-3.34 2.05,-0.81 4.14,-1.2 6.27,-1.2 5.1,0 9.07,1.85 11.91,5.58 2.85,3.72 4.27,9.15 4.27,16.32 0,3.23 -0.34,6.49 -1.01,9.73 -0.67,3.24 -1.62,6.34 -2.86,9.28 -1.25,2.96 -2.75,5.71 -4.51,8.25 -1.75,2.57 -3.71,4.78 -5.86,6.66 -2.15,1.87 -4.5,3.36 -7.03,4.42 -2.53,1.07 -5.17,1.6 -7.94,1.6 -3.2,0 -6.08,-0.67 -8.67,-2.01 -2.58,-1.35 -4.72,-3.26 -6.37,-5.77l-0.77 3.87c-0.32,1.03 -0.72,1.8 -1.21,2.31 -0.49,0.52 -1.34,0.77 -2.53,0.77l-5.62 0zm34.24 -52.48c-1.9,0 -3.82,0.59 -5.75,1.77 -1.94,1.19 -3.79,2.83 -5.59,4.94 -1.8,2.09 -3.49,4.58 -5.07,7.46 -1.58,2.91 -2.94,6.07 -4.09,9.5l-1.9 15.62c1.5,2.09 3.3,3.6 5.39,4.46 2.1,0.87 4.23,1.33 6.4,1.33 2.06,0 3.99,-0.44 5.81,-1.31 1.81,-0.86 3.47,-2.05 4.97,-3.53 1.5,-1.48 2.85,-3.22 4.03,-5.21 1.19,-2 2.19,-4.13 3,-6.4 0.81,-2.27 1.42,-4.62 1.86,-7.05 0.43,-2.43 0.65,-4.82 0.65,-7.19 0,-4.7 -0.85,-8.27 -2.55,-10.72 -1.69,-2.45 -4.08,-3.67 -7.16,-3.67z"/>
  <path id="9" class="fil1" d="M621.65 1034.16c-1.5,0 -2.45,-0.73 -2.85,-2.19l-0.94 -7.29c-2.57,3.12 -5.49,5.61 -8.79,7.49 -3.3,1.87 -7.09,2.82 -11.35,2.82 -3.44,0 -6.56,-0.67 -9.36,-1.99 -2.81,-1.33 -5.2,-3.26 -7.17,-5.83 -1.98,-2.58 -3.5,-5.78 -4.56,-9.62 -1.07,-3.83 -1.6,-8.23 -1.6,-13.22 0,-4.43 0.59,-8.53 1.77,-12.37 1.19,-3.81 2.91,-7.1 5.14,-9.93 2.23,-2.8 4.94,-4.99 8.13,-6.59 3.2,-1.6 6.84,-2.41 10.9,-2.41 3.68,0 6.82,0.63 9.42,1.87 2.61,1.25 4.94,2.99 6.99,5.24l0 -33.3 10.55 0 0 87.32 -6.28 0zm-20.44 -7.7c3.44,0 6.46,-0.79 9.04,-2.37 2.59,-1.58 4.96,-3.81 7.13,-6.69l0 -29.07c-1.93,-2.61 -4.05,-4.44 -6.36,-5.49 -2.31,-1.04 -4.87,-1.58 -7.68,-1.58 -5.6,0 -9.91,2 -12.91,6 -3,3.99 -4.5,9.68 -4.5,17.09 0,3.9 0.33,7.26 1,10.05 0.68,2.78 1.66,5.07 2.97,6.87 1.3,1.79 2.9,3.12 4.8,3.95 1.89,0.83 4.06,1.24 6.51,1.24z"/>
  <path id="10" class="fil1" d="M669.39 973.15c3.6,0 6.92,0.61 9.96,1.81 3.04,1.21 5.66,2.95 7.88,5.22 2.21,2.27 3.94,5.09 5.19,8.43 1.24,3.34 1.85,7.15 1.85,11.43 0,1.66 -0.17,2.77 -0.53,3.32 -0.35,0.55 -1.03,0.83 -2.01,0.83l-39.93 0c0.08,3.79 0.59,7.11 1.54,9.91 0.95,2.82 2.25,5.15 3.91,7.05 1.66,1.88 3.63,3.28 5.92,4.21 2.29,0.92 4.86,1.4 7.71,1.4 2.64,0 4.93,-0.32 6.85,-0.93 1.91,-0.61 3.55,-1.29 4.93,-2 1.39,-0.71 2.55,-1.36 3.48,-1.97 0.93,-0.63 1.72,-0.93 2.39,-0.93 0.87,0 1.54,0.34 2.01,1.01l2.96 3.87c-1.3,1.56 -2.86,2.92 -4.68,4.09 -1.81,1.16 -3.75,2.11 -5.82,2.86 -2.07,0.73 -4.23,1.3 -6.44,1.68 -2.21,0.37 -4.4,0.55 -6.57,0.55 -4.15,0 -7.96,-0.71 -11.46,-2.11 -3.49,-1.4 -6.51,-3.46 -9.06,-6.16 -2.55,-2.71 -4.54,-6.06 -5.96,-10.05 -1.42,-3.99 -2.14,-8.57 -2.14,-13.77 0,-4.18 0.66,-8.09 1.94,-11.72 1.28,-3.64 3.12,-6.8 5.53,-9.46 2.41,-2.67 5.35,-4.76 8.83,-6.28 3.47,-1.52 7.38,-2.29 11.72,-2.29zm0.24 7.82c-5.09,0 -9.1,1.46 -12.02,4.4 -2.93,2.92 -4.74,6.99 -5.45,12.18l32.64 0c0,-2.45 -0.34,-4.68 -1.01,-6.69 -0.67,-2.04 -1.66,-3.79 -2.96,-5.25 -1.31,-1.48 -2.89,-2.63 -4.76,-3.44 -1.88,-0.81 -4.03,-1.2 -6.44,-1.2z"/>
  <polygon id="11" class="fil1" points="719.45,946.84 719.45,1034.16 708.91,1034.16 708.91,946.84 "/>
  <path id="12" class="fil0" d="M806.06 962.54c-0.36,0.59 -0.73,1.03 -1.13,1.33 -0.39,0.29 -0.91,0.45 -1.54,0.45 -0.67,0 -1.44,-0.34 -2.33,-1.01 -0.89,-0.67 -2.01,-1.42 -3.37,-2.23 -1.37,-0.81 -3.01,-1.54 -4.92,-2.21 -1.92,-0.67 -4.25,-1.01 -6.97,-1.01 -2.57,0 -4.84,0.34 -6.81,1.03 -1.98,0.69 -3.62,1.64 -4.94,2.82 -1.32,1.19 -2.33,2.57 -3,4.17 -0.67,1.6 -1.01,3.34 -1.01,5.19 0,2.37 0.59,4.33 1.76,5.89 1.16,1.56 2.7,2.9 4.62,4.01 1.91,1.1 4.09,2.05 6.51,2.86 2.43,0.81 4.92,1.66 7.47,2.53 2.55,0.87 5.03,1.83 7.46,2.92 2.43,1.08 4.6,2.47 6.52,4.13 1.91,1.65 3.45,3.69 4.62,6.1 1.16,2.41 1.74,5.37 1.74,8.88 0,3.72 -0.63,7.19 -1.9,10.45 -1.26,3.26 -3.1,6.1 -5.53,8.51 -2.43,2.41 -5.41,4.3 -8.94,5.69 -3.54,1.38 -7.57,2.07 -12.07,2.07 -5.49,0 -10.48,-1.01 -15,-3 -4.53,-2 -8.4,-4.7 -11.6,-8.12l3.32 -5.45c0.32,-0.45 0.71,-0.81 1.17,-1.1 0.45,-0.3 0.94,-0.46 1.5,-0.46 0.83,0 1.77,0.46 2.84,1.35 1.07,0.88 2.41,1.85 4.01,2.92 1.6,1.06 3.53,2.05 5.81,2.94 2.27,0.89 5.03,1.32 8.31,1.32 2.72,0 5.15,-0.37 7.28,-1.12 2.14,-0.75 3.95,-1.82 5.44,-3.18 1.48,-1.36 2.6,-2.98 3.39,-4.88 0.79,-1.89 1.19,-4.01 1.19,-6.34 0,-2.56 -0.58,-4.68 -1.74,-6.32 -1.17,-1.63 -2.71,-3 -4.6,-4.1 -1.9,-1.11 -4.05,-2.06 -6.48,-2.83 -2.43,-0.77 -4.92,-1.56 -7.46,-2.37 -2.55,-0.81 -5.04,-1.73 -7.47,-2.8 -2.43,-1.07 -4.6,-2.45 -6.49,-4.15 -1.9,-1.7 -3.42,-3.83 -4.59,-6.38 -1.16,-2.54 -1.75,-5.68 -1.75,-9.43 0,-3 0.59,-5.91 1.75,-8.71 1.17,-2.81 2.85,-5.29 5.06,-7.47 2.21,-2.17 4.96,-3.91 8.21,-5.21 3.26,-1.3 6.99,-1.95 11.22,-1.95 4.74,0 9.06,0.75 12.97,2.27 3.91,1.5 7.33,3.69 10.25,6.55l-2.78 5.45z"/>
  <path id="13" class="fil0" d="M847.47 973.15c3.59,0 6.91,0.61 9.95,1.81 3.04,1.21 5.66,2.95 7.88,5.22 2.21,2.27 3.95,5.09 5.19,8.43 1.24,3.34 1.86,7.15 1.86,11.43 0,1.66 -0.18,2.77 -0.54,3.32 -0.35,0.55 -1.02,0.83 -2.01,0.83l-39.93 0c0.08,3.79 0.59,7.11 1.54,9.91 0.95,2.82 2.25,5.15 3.91,7.05 1.66,1.88 3.63,3.28 5.93,4.21 2.29,0.92 4.85,1.4 7.7,1.4 2.64,0 4.93,-0.32 6.85,-0.93 1.91,-0.61 3.55,-1.29 4.93,-2 1.39,-0.71 2.55,-1.36 3.48,-1.97 0.93,-0.63 1.72,-0.93 2.39,-0.93 0.87,0 1.54,0.34 2.01,1.01l2.97 3.87c-1.31,1.56 -2.87,2.92 -4.68,4.09 -1.82,1.16 -3.76,2.11 -5.83,2.86 -2.07,0.73 -4.22,1.3 -6.44,1.68 -2.21,0.37 -4.4,0.55 -6.57,0.55 -4.15,0 -7.96,-0.71 -11.45,-2.11 -3.5,-1.4 -6.52,-3.46 -9.07,-6.16 -2.55,-2.71 -4.54,-6.06 -5.96,-10.05 -1.42,-3.99 -2.13,-8.57 -2.13,-13.77 0,-4.18 0.65,-8.09 1.93,-11.72 1.28,-3.64 3.12,-6.8 5.53,-9.46 2.41,-2.67 5.35,-4.76 8.83,-6.28 3.47,-1.52 7.38,-2.29 11.73,-2.29zm0.23 7.82c-5.09,0 -9.1,1.46 -12.02,4.4 -2.93,2.92 -4.74,6.99 -5.45,12.18l32.64 0c0,-2.45 -0.34,-4.68 -1.01,-6.69 -0.67,-2.04 -1.66,-3.79 -2.96,-5.25 -1.3,-1.48 -2.88,-2.63 -4.76,-3.44 -1.88,-0.81 -4.03,-1.2 -6.44,-1.2z"/>
  <path id="14" class="fil0" d="M885.79 1034.16l0 -60.07 6.05 0c1.14,0 1.93,0.24 2.36,0.7 0.44,0.45 0.74,1.26 0.89,2.38l0.71 9.96c2.06,-4.45 4.6,-7.9 7.63,-10.37 3.02,-2.49 6.55,-3.73 10.62,-3.73 1.66,0 3.16,0.2 4.5,0.57 1.34,0.4 2.59,0.93 3.73,1.62l-1.36 7.88c-0.28,0.99 -0.89,1.48 -1.84,1.48 -0.55,0 -1.4,-0.2 -2.54,-0.57 -1.15,-0.38 -2.75,-0.56 -4.8,-0.56 -3.67,0 -6.73,1.11 -9.2,3.34 -2.47,2.23 -4.54,5.47 -6.2,9.72l0 37.65 -10.55 0z"/>
  <path id="15" class="fil0" d="M925.96 974.09l8.64 0c0.83,0 1.53,0.22 2.08,0.66 0.55,0.43 0.95,0.94 1.18,1.54l15.23 38.66c0.55,1.42 0.98,2.84 1.3,4.26 0.32,1.43 0.61,2.83 0.89,4.23 0.32,-1.4 0.65,-2.8 1.01,-4.23 0.35,-1.42 0.81,-2.84 1.36,-4.26l15.4 -38.66c0.24,-0.64 0.63,-1.15 1.17,-1.56 0.53,-0.42 1.18,-0.64 1.97,-0.64l8.23 0 -24.46 60.07 -9.54 0 -24.46 -60.07z"/>
  <path id="16" class="fil0" d="M1005.93 974.09l0 60.07 -10.55 0 0 -60.07 10.55 0zm2.37 -18.83c0,1.02 -0.2,1.97 -0.61,2.86 -0.42,0.89 -0.97,1.68 -1.66,2.37 -0.69,0.69 -1.5,1.24 -2.41,1.64 -0.91,0.39 -1.88,0.59 -2.9,0.59 -1.03,0 -1.98,-0.2 -2.87,-0.59 -0.89,-0.4 -1.68,-0.95 -2.37,-1.64 -0.69,-0.69 -1.24,-1.48 -1.64,-2.37 -0.39,-0.89 -0.59,-1.84 -0.59,-2.86 0,-1.03 0.2,-2.02 0.59,-2.95 0.4,-0.92 0.95,-1.73 1.64,-2.42 0.69,-0.7 1.48,-1.23 2.37,-1.62 0.89,-0.4 1.84,-0.6 2.87,-0.6 1.02,0 1.99,0.2 2.9,0.6 0.91,0.39 1.72,0.92 2.41,1.62 0.69,0.69 1.24,1.5 1.66,2.42 0.41,0.93 0.61,1.92 0.61,2.95z"/>
  <path id="17" class="fil0" d="M1065.46 984.76c-0.31,0.43 -0.63,0.77 -0.95,1 -0.31,0.24 -0.77,0.36 -1.36,0.36 -0.59,0 -1.22,-0.24 -1.91,-0.73 -0.69,-0.49 -1.58,-1.05 -2.65,-1.64 -1.07,-0.59 -2.35,-1.13 -3.87,-1.62 -1.52,-0.49 -3.4,-0.75 -5.61,-0.75 -2.92,0 -5.51,0.53 -7.76,1.58 -2.25,1.05 -4.12,2.55 -5.64,4.52 -1.53,1.98 -2.67,4.37 -3.44,7.17 -0.77,2.8 -1.17,5.94 -1.17,9.42 0,3.63 0.42,6.85 1.25,9.67 0.83,2.83 1.99,5.2 3.49,7.11 1.5,1.92 3.34,3.38 5.49,4.39 2.16,1 4.56,1.52 7.25,1.52 2.57,0 4.68,-0.32 6.34,-0.93 1.66,-0.61 3.04,-1.29 4.15,-2.03 1.1,-0.75 2.01,-1.45 2.72,-2.06 0.71,-0.61 1.42,-0.91 2.13,-0.91 0.91,0 1.58,0.34 2.02,1.01l2.96 3.85c-2.61,3.22 -5.87,5.57 -9.78,7.07 -3.91,1.48 -8.03,2.23 -12.38,2.23 -3.75,0 -7.22,-0.69 -10.44,-2.07 -3.22,-1.38 -6.02,-3.4 -8.4,-6.02 -2.36,-2.63 -4.22,-5.87 -5.58,-9.7 -1.37,-3.83 -2.06,-8.19 -2.06,-13.11 0,-4.46 0.64,-8.59 1.88,-12.38 1.24,-3.79 3.06,-7.07 5.45,-9.82 2.39,-2.74 5.33,-4.89 8.85,-6.43 3.51,-1.54 7.54,-2.31 12.08,-2.31 4.19,0 7.9,0.69 11.14,2.05 3.24,1.36 6.1,3.28 8.59,5.77l-2.79 3.79z"/>
  <path id="18" class="fil0" d="M1091.59 974.09l0 60.07 -10.55 0 0 -60.07 10.55 0zm2.36 -18.83c0,1.02 -0.19,1.97 -0.61,2.86 -0.41,0.89 -0.96,1.68 -1.65,2.37 -0.7,0.69 -1.51,1.24 -2.41,1.64 -0.91,0.39 -1.88,0.59 -2.91,0.59 -1.02,0 -1.97,-0.2 -2.86,-0.59 -0.89,-0.4 -1.68,-0.95 -2.37,-1.64 -0.69,-0.69 -1.24,-1.48 -1.64,-2.37 -0.39,-0.89 -0.59,-1.84 -0.59,-2.86 0,-1.03 0.2,-2.02 0.59,-2.95 0.4,-0.92 0.95,-1.73 1.64,-2.42 0.69,-0.7 1.48,-1.23 2.37,-1.62 0.89,-0.4 1.84,-0.6 2.86,-0.6 1.03,0 2,0.2 2.91,0.6 0.9,0.39 1.71,0.92 2.41,1.62 0.69,0.69 1.24,1.5 1.65,2.42 0.42,0.93 0.61,1.92 0.61,2.95z"/>
  <path id="19" class="fil0" d="M1134.47 973.21c4.39,0 8.36,0.73 11.89,2.19 3.54,1.46 6.54,3.53 9.01,6.22 2.46,2.68 4.36,5.92 5.68,9.73 1.33,3.81 1.98,8.08 1.98,12.78 0,4.74 -0.65,9 -1.98,12.79 -1.32,3.8 -3.22,7.03 -5.68,9.72 -2.47,2.68 -5.47,4.74 -9.01,6.18 -3.53,1.44 -7.5,2.17 -11.89,2.17 -4.38,0 -8.33,-0.73 -11.86,-2.17 -3.54,-1.44 -6.56,-3.5 -9.05,-6.18 -2.48,-2.69 -4.4,-5.92 -5.74,-9.72 -1.35,-3.79 -2.02,-8.05 -2.02,-12.79 0,-4.7 0.67,-8.97 2.02,-12.78 1.34,-3.81 3.26,-7.05 5.74,-9.73 2.49,-2.69 5.51,-4.76 9.05,-6.22 3.53,-1.46 7.48,-2.19 11.86,-2.19zm0 53.55c5.93,0 10.35,-2 13.27,-5.97 2.93,-3.97 4.39,-9.51 4.39,-16.64 0,-7.15 -1.46,-12.72 -4.39,-16.73 -2.92,-3.99 -7.34,-5.98 -13.27,-5.98 -3,0 -5.6,0.51 -7.81,1.54 -2.22,1.03 -4.05,2.51 -5.53,4.44 -1.49,1.94 -2.59,4.33 -3.32,7.15 -0.73,2.82 -1.11,6.02 -1.11,9.58 0,3.55 0.38,6.75 1.11,9.55 0.73,2.81 1.83,5.18 3.32,7.09 1.48,1.92 3.31,3.38 5.53,4.43 2.21,1.02 4.81,1.54 7.81,1.54z"/>
  <path id="20" class="fil0" d="M1241.16 1034.16c-1.5,0 -2.45,-0.73 -2.84,-2.19l-0.95 -7.29c-2.56,3.12 -5.49,5.61 -8.79,7.49 -3.29,1.87 -7.08,2.82 -11.35,2.82 -3.43,0 -6.55,-0.67 -9.36,-1.99 -2.8,-1.33 -5.19,-3.26 -7.17,-5.83 -1.97,-2.58 -3.49,-5.78 -4.56,-9.62 -1.06,-3.83 -1.6,-8.23 -1.6,-13.22 0,-4.43 0.59,-8.53 1.78,-12.37 1.18,-3.81 2.9,-7.1 5.13,-9.93 2.23,-2.8 4.94,-4.99 8.14,-6.59 3.2,-1.6 6.83,-2.41 10.9,-2.41 3.67,0 6.81,0.63 9.42,1.87 2.6,1.25 4.93,2.99 6.99,5.24l0 -33.3 10.54 0 0 87.32 -6.28 0zm-20.43 -7.7c3.43,0 6.45,-0.79 9.04,-2.37 2.59,-1.58 4.96,-3.81 7.13,-6.69l0 -29.07c-1.94,-2.61 -4.05,-4.44 -6.36,-5.49 -2.31,-1.04 -4.88,-1.58 -7.68,-1.58 -5.61,0 -9.91,2 -12.92,6 -3,3.99 -4.5,9.68 -4.5,17.09 0,3.9 0.34,7.26 1.01,10.05 0.67,2.78 1.66,5.07 2.96,6.87 1.3,1.79 2.9,3.12 4.8,3.95 1.9,0.83 4.07,1.24 6.52,1.24z"/>
  <path id="21" class="fil0" d="M1288.91 973.15c3.59,0 6.91,0.61 9.95,1.81 3.04,1.21 5.67,2.95 7.88,5.22 2.21,2.27 3.95,5.09 5.19,8.43 1.25,3.34 1.86,7.15 1.86,11.43 0,1.66 -0.18,2.77 -0.53,3.32 -0.36,0.55 -1.03,0.83 -2.02,0.83l-39.92 0c0.07,3.79 0.59,7.11 1.54,9.91 0.94,2.82 2.25,5.15 3.91,7.05 1.65,1.88 3.63,3.28 5.92,4.21 2.29,0.92 4.86,1.4 7.7,1.4 2.65,0 4.94,-0.32 6.85,-0.93 1.92,-0.61 3.56,-1.29 4.94,-2 1.38,-0.71 2.55,-1.36 3.47,-1.97 0.93,-0.63 1.72,-0.93 2.39,-0.93 0.87,0 1.54,0.34 2.02,1.01l2.96 3.87c-1.3,1.56 -2.86,2.92 -4.68,4.09 -1.82,1.16 -3.75,2.11 -5.83,2.86 -2.07,0.73 -4.22,1.3 -6.43,1.68 -2.22,0.37 -4.41,0.55 -6.58,0.55 -4.15,0 -7.96,-0.71 -11.45,-2.11 -3.5,-1.4 -6.52,-3.46 -9.06,-6.16 -2.55,-2.71 -4.55,-6.06 -5.97,-10.05 -1.42,-3.99 -2.13,-8.57 -2.13,-13.77 0,-4.18 0.65,-8.09 1.93,-11.72 1.29,-3.64 3.12,-6.8 5.53,-9.46 2.41,-2.67 5.35,-4.76 8.83,-6.28 3.48,-1.52 7.38,-2.29 11.73,-2.29zm0.24 7.82c-5.1,0 -9.11,1.46 -12.03,4.4 -2.92,2.92 -4.74,6.99 -5.45,12.18l32.64 0c0,-2.45 -0.33,-4.68 -1.01,-6.69 -0.67,-2.04 -1.65,-3.79 -2.96,-5.25 -1.3,-1.48 -2.88,-2.63 -4.76,-3.44 -1.87,-0.81 -4.03,-1.2 -6.43,-1.2z"/>
  <path id="22" class="fil0" d="M1421.6 1034.16l-8.88 0c-1.03,0 -1.86,-0.25 -2.49,-0.77 -0.63,-0.51 -1.11,-1.16 -1.42,-1.95l-7.94 -20.5 -38.09 0 -7.94 20.5c-0.27,0.71 -0.75,1.34 -1.42,1.89 -0.67,0.56 -1.5,0.83 -2.49,0.83l-8.88 0 33.94 -84.95 11.67 0 33.94 84.95zm-55.62 -31.45l31.69 0 -13.33 -34.58c-0.87,-2.13 -1.72,-4.8 -2.54,-8 -0.44,1.62 -0.85,3.1 -1.27,4.47 -0.41,1.36 -0.83,2.56 -1.22,3.59l-13.33 34.52z"/>
  <path id="23" class="fil0" d="M1430.67 1034.16l0 -60.07 6.28 0c1.5,0 2.45,0.73 2.84,2.2l0.83 6.53c2.61,-2.9 5.53,-5.23 8.75,-7.01 3.22,-1.77 6.93,-2.66 11.15,-2.66 3.28,0 6.18,0.55 8.69,1.64 2.51,1.08 4.6,2.62 6.28,4.62 1.68,1.99 2.94,4.4 3.81,7.2 0.87,2.81 1.3,5.91 1.3,9.3l0 38.25 -10.54 0 0 -38.25c0,-4.54 -1.03,-8.07 -3.1,-10.58 -2.07,-2.51 -5.25,-3.77 -9.52,-3.77 -3.12,0 -6.02,0.75 -8.73,2.25 -2.7,1.5 -5.21,3.55 -7.5,6.12l0 44.23 -10.54 0z"/>
  <path id="24" class="fil0" d="M1520.29 973.15c3.6,0 6.92,0.61 9.96,1.81 3.04,1.21 5.66,2.95 7.88,5.22 2.21,2.27 3.94,5.09 5.19,8.43 1.24,3.34 1.85,7.15 1.85,11.43 0,1.66 -0.17,2.77 -0.53,3.32 -0.35,0.55 -1.03,0.83 -2.01,0.83l-39.93 0c0.08,3.79 0.59,7.11 1.54,9.91 0.95,2.82 2.25,5.15 3.91,7.05 1.66,1.88 3.63,3.28 5.92,4.21 2.29,0.92 4.86,1.4 7.71,1.4 2.64,0 4.93,-0.32 6.85,-0.93 1.91,-0.61 3.55,-1.29 4.93,-2 1.39,-0.71 2.55,-1.36 3.48,-1.97 0.93,-0.63 1.72,-0.93 2.39,-0.93 0.87,0 1.54,0.34 2.01,1.01l2.96 3.87c-1.3,1.56 -2.86,2.92 -4.68,4.09 -1.81,1.16 -3.75,2.11 -5.82,2.86 -2.07,0.73 -4.23,1.3 -6.44,1.68 -2.21,0.37 -4.4,0.55 -6.57,0.55 -4.15,0 -7.96,-0.71 -11.46,-2.11 -3.49,-1.4 -6.51,-3.46 -9.06,-6.16 -2.55,-2.71 -4.54,-6.06 -5.96,-10.05 -1.42,-3.99 -2.14,-8.57 -2.14,-13.77 0,-4.18 0.66,-8.09 1.94,-11.72 1.28,-3.64 3.12,-6.8 5.53,-9.46 2.41,-2.67 5.35,-4.76 8.83,-6.28 3.47,-1.52 7.38,-2.29 11.72,-2.29zm0.24 7.82c-5.09,0 -9.1,1.46 -12.02,4.4 -2.93,2.92 -4.74,6.99 -5.45,12.18l32.64 0c0,-2.45 -0.34,-4.68 -1.01,-6.69 -0.67,-2.04 -1.66,-3.79 -2.96,-5.25 -1.31,-1.48 -2.89,-2.63 -4.76,-3.44 -1.88,-0.81 -4.03,-1.2 -6.44,-1.2z"/>
  <path id="25" class="fil0" d="M1592.98 984.05c-0.47,0.86 -1.2,1.3 -2.19,1.3 -0.59,0 -1.27,-0.22 -2.02,-0.65 -0.75,-0.44 -1.66,-0.93 -2.74,-1.46 -1.09,-0.54 -2.39,-1.03 -3.89,-1.48 -1.5,-0.46 -3.28,-0.68 -5.33,-0.68 -1.78,0 -3.38,0.22 -4.8,0.68 -1.42,0.45 -2.63,1.08 -3.63,1.87 -1.01,0.79 -1.78,1.7 -2.31,2.75 -0.54,1.04 -0.81,2.19 -0.81,3.41 0,1.54 0.45,2.83 1.34,3.85 0.89,1.03 2.05,1.92 3.51,2.67 1.47,0.75 3.12,1.4 4.98,1.97 1.86,0.58 3.77,1.19 5.73,1.84 1.95,0.65 3.85,1.38 5.7,2.17 1.86,0.79 3.52,1.78 4.98,2.96 1.46,1.19 2.65,2.63 3.53,4.35 0.89,1.72 1.33,3.79 1.33,6.2 0,2.76 -0.5,5.31 -1.48,7.66 -0.99,2.35 -2.45,4.38 -4.39,6.1 -1.93,1.72 -4.3,3.08 -7.11,4.07 -2.8,0.99 -6.04,1.48 -9.71,1.48 -4.19,0 -7.98,-0.67 -11.38,-2.01 -3.39,-1.35 -6.28,-3.06 -8.64,-5.16l2.48 -4.12c0.32,-0.52 0.7,-0.91 1.13,-1.21 0.43,-0.28 1.01,-0.41 1.72,-0.41 0.71,0 1.46,0.27 2.25,0.83 0.79,0.55 1.76,1.16 2.88,1.83 1.13,0.67 2.49,1.29 4.09,1.84 1.6,0.55 3.59,0.83 6,0.83 2.05,0 3.85,-0.28 5.39,-0.81 1.54,-0.54 2.83,-1.25 3.85,-2.15 1.03,-0.91 1.8,-1.96 2.29,-3.14 0.5,-1.19 0.73,-2.47 0.73,-3.82 0,-1.65 -0.43,-3.02 -1.32,-4.1 -0.89,-1.09 -2.07,-2.02 -3.53,-2.79 -1.47,-0.79 -3.12,-1.46 -5,-2.03 -1.88,-0.57 -3.79,-1.17 -5.75,-1.8 -1.95,-0.63 -3.87,-1.36 -5.74,-2.17 -1.88,-0.81 -3.56,-1.82 -5.02,-3.04 -1.46,-1.22 -2.62,-2.74 -3.51,-4.54 -0.89,-1.8 -1.35,-3.99 -1.35,-6.56 0,-2.29 0.48,-4.5 1.43,-6.61 0.95,-2.12 2.33,-3.97 4.14,-5.57 1.82,-1.6 4.05,-2.88 6.7,-3.83 2.64,-0.95 5.66,-1.42 9.06,-1.42 3.95,0 7.5,0.63 10.64,1.87 3.14,1.27 5.85,2.98 8.14,5.18l-2.37 3.85z"/>
  <path id="26" class="fil0" d="M1628.23 1035.11c-4.74,0 -8.38,-1.32 -10.92,-3.97 -2.55,-2.65 -3.83,-6.46 -3.83,-11.45l0 -36.75 -7.23 0c-0.63,0 -1.17,-0.2 -1.6,-0.57 -0.43,-0.38 -0.65,-0.95 -0.65,-1.74l0 -4.23 9.83 -1.24 2.43 -18.54c0.08,-0.59 0.34,-1.09 0.77,-1.46 0.44,-0.38 0.99,-0.56 1.66,-0.56l5.33 0 0 20.68 17.18 0 0 7.66 -17.18 0 0 36.06c0,2.52 0.61,4.4 1.84,5.62 1.22,1.23 2.8,1.84 4.74,1.84 1.1,0 2.07,-0.16 2.88,-0.45 0.81,-0.3 1.5,-0.62 2.09,-0.97 0.59,-0.36 1.11,-0.69 1.52,-0.99 0.42,-0.29 0.77,-0.43 1.09,-0.43 0.55,0 1.05,0.33 1.48,1.02l3.08 5.1c-1.82,1.68 -4.01,2.98 -6.58,3.95 -2.56,0.95 -5.21,1.42 -7.93,1.42z"/>
  <path id="27" class="fil0" d="M1677.99 973.15c3.59,0 6.91,0.61 9.95,1.81 3.04,1.21 5.67,2.95 7.88,5.22 2.21,2.27 3.95,5.09 5.19,8.43 1.24,3.34 1.86,7.15 1.86,11.43 0,1.66 -0.18,2.77 -0.54,3.32 -0.35,0.55 -1.02,0.83 -2.01,0.83l-39.93 0c0.08,3.79 0.6,7.11 1.54,9.91 0.95,2.82 2.25,5.15 3.91,7.05 1.66,1.88 3.64,3.28 5.93,4.21 2.29,0.92 4.85,1.4 7.7,1.4 2.64,0 4.93,-0.32 6.85,-0.93 1.91,-0.61 3.55,-1.29 4.94,-2 1.38,-0.71 2.54,-1.36 3.47,-1.97 0.93,-0.63 1.72,-0.93 2.39,-0.93 0.87,0 1.54,0.34 2.01,1.01l2.97 3.87c-1.31,1.56 -2.87,2.92 -4.68,4.09 -1.82,1.16 -3.76,2.11 -5.83,2.86 -2.07,0.73 -4.22,1.3 -6.44,1.68 -2.21,0.37 -4.4,0.55 -6.57,0.55 -4.15,0 -7.96,-0.71 -11.45,-2.11 -3.5,-1.4 -6.52,-3.46 -9.07,-6.16 -2.54,-2.71 -4.54,-6.06 -5.96,-10.05 -1.42,-3.99 -2.13,-8.57 -2.13,-13.77 0,-4.18 0.65,-8.09 1.93,-11.72 1.29,-3.64 3.12,-6.8 5.53,-9.46 2.41,-2.67 5.35,-4.76 8.83,-6.28 3.47,-1.52 7.38,-2.29 11.73,-2.29zm0.23 7.82c-5.09,0 -9.1,1.46 -12.02,4.4 -2.92,2.92 -4.74,6.99 -5.45,12.18l32.64 0c0,-2.45 -0.34,-4.68 -1.01,-6.69 -0.67,-2.04 -1.66,-3.79 -2.96,-5.25 -1.3,-1.48 -2.88,-2.63 -4.76,-3.44 -1.88,-0.81 -4.03,-1.2 -6.44,-1.2z"/>
  <path id="28" class="fil0" d="M1750.67 984.05c-0.47,0.86 -1.2,1.3 -2.19,1.3 -0.59,0 -1.26,-0.22 -2.01,-0.65 -0.75,-0.44 -1.66,-0.93 -2.75,-1.46 -1.08,-0.54 -2.39,-1.03 -3.89,-1.48 -1.5,-0.46 -3.28,-0.68 -5.33,-0.68 -1.78,0 -3.38,0.22 -4.8,0.68 -1.42,0.45 -2.62,1.08 -3.63,1.87 -1.01,0.79 -1.78,1.7 -2.31,2.75 -0.54,1.04 -0.81,2.19 -0.81,3.41 0,1.54 0.45,2.83 1.34,3.85 0.89,1.03 2.05,1.92 3.52,2.67 1.46,0.75 3.12,1.4 4.97,1.97 1.86,0.58 3.77,1.19 5.73,1.84 1.95,0.65 3.85,1.38 5.71,2.17 1.85,0.79 3.51,1.78 4.97,2.96 1.46,1.19 2.65,2.63 3.54,4.35 0.88,1.72 1.32,3.79 1.32,6.2 0,2.76 -0.5,5.31 -1.48,7.66 -0.99,2.35 -2.45,4.38 -4.39,6.1 -1.93,1.72 -4.3,3.08 -7.1,4.07 -2.81,0.99 -6.05,1.48 -9.72,1.48 -4.19,0 -7.98,-0.67 -11.37,-2.01 -3.4,-1.35 -6.28,-3.06 -8.65,-5.16l2.49 -4.12c0.31,-0.52 0.69,-0.91 1.12,-1.21 0.44,-0.28 1.01,-0.41 1.72,-0.41 0.71,0 1.46,0.27 2.25,0.83 0.79,0.55 1.76,1.16 2.88,1.83 1.13,0.67 2.49,1.29 4.09,1.84 1.6,0.55 3.59,0.83 6,0.83 2.06,0 3.85,-0.28 5.39,-0.81 1.54,-0.54 2.83,-1.25 3.85,-2.15 1.03,-0.91 1.8,-1.96 2.3,-3.14 0.49,-1.19 0.73,-2.47 0.73,-3.82 0,-1.65 -0.44,-3.02 -1.33,-4.1 -0.89,-1.09 -2.07,-2.02 -3.53,-2.79 -1.46,-0.79 -3.12,-1.46 -5,-2.03 -1.87,-0.57 -3.79,-1.17 -5.74,-1.8 -1.96,-0.63 -3.87,-1.36 -5.75,-2.17 -1.88,-0.81 -3.55,-1.82 -5.02,-3.04 -1.46,-1.22 -2.62,-2.74 -3.51,-4.54 -0.89,-1.8 -1.34,-3.99 -1.34,-6.56 0,-2.29 0.47,-4.5 1.42,-6.61 0.95,-2.12 2.33,-3.97 4.15,-5.57 1.81,-1.6 4.04,-2.88 6.69,-3.83 2.65,-0.95 5.67,-1.42 9.06,-1.42 3.95,0 7.51,0.63 10.65,1.87 3.14,1.27 5.84,2.98 8.13,5.18l-2.37 3.85z"/>
  <path id="29" class="fil0" d="M1779.46 974.09l0 60.07 -10.54 0 0 -60.07 10.54 0zm2.37 -18.83c0,1.02 -0.2,1.97 -0.61,2.86 -0.42,0.89 -0.97,1.68 -1.66,2.37 -0.69,0.69 -1.5,1.24 -2.41,1.64 -0.91,0.39 -1.87,0.59 -2.9,0.59 -1.03,0 -1.98,-0.2 -2.86,-0.59 -0.89,-0.4 -1.68,-0.95 -2.37,-1.64 -0.69,-0.69 -1.25,-1.48 -1.64,-2.37 -0.4,-0.89 -0.59,-1.84 -0.59,-2.86 0,-1.03 0.19,-2.02 0.59,-2.95 0.39,-0.92 0.95,-1.73 1.64,-2.42 0.69,-0.7 1.48,-1.23 2.37,-1.62 0.88,-0.4 1.83,-0.6 2.86,-0.6 1.03,0 1.99,0.2 2.9,0.6 0.91,0.39 1.72,0.92 2.41,1.62 0.69,0.69 1.24,1.5 1.66,2.42 0.41,0.93 0.61,1.92 0.61,2.95z"/>
  <path id="30" class="fil0" d="M1842.14 1034.16l-4.68 0c-1.03,0 -1.86,-0.16 -2.49,-0.47 -0.63,-0.32 -1.05,-1.01 -1.25,-2.04l-1.18 -5.58c-1.58,1.42 -3.12,2.7 -4.62,3.83 -1.5,1.14 -3.08,2.09 -4.74,2.86 -1.66,0.77 -3.42,1.36 -5.29,1.76 -1.88,0.39 -3.97,0.59 -6.26,0.59 -2.33,0 -4.5,-0.34 -6.54,-0.99 -2.03,-0.65 -3.81,-1.64 -5.31,-2.94 -1.5,-1.3 -2.68,-2.96 -3.57,-4.98 -0.89,-1.99 -1.35,-4.36 -1.35,-7.1 0,-2.39 0.65,-4.68 1.96,-6.88 1.3,-2.21 3.42,-4.16 6.32,-5.88 2.9,-1.7 6.69,-3.1 11.39,-4.19 4.7,-1.08 10.45,-1.64 17.24,-1.64l0 -4.71c0,-4.69 -0.99,-8.24 -2.98,-10.63 -2,-2.41 -4.96,-3.61 -8.87,-3.61 -2.57,0 -4.72,0.31 -6.48,0.97 -1.75,0.65 -3.27,1.38 -4.56,2.19 -1.28,0.81 -2.39,1.54 -3.31,2.19 -0.93,0.65 -1.86,0.99 -2.77,0.99 -0.71,0 -1.32,-0.18 -1.85,-0.56 -0.54,-0.37 -0.97,-0.83 -1.29,-1.38l-1.89 -3.32c3.31,-3.21 6.89,-5.62 10.72,-7.22 3.83,-1.6 8.07,-2.39 12.73,-2.39 3.36,0 6.34,0.55 8.95,1.66 2.61,1.1 4.8,2.64 6.58,4.62 1.77,1.97 3.12,4.36 4.02,7.18 0.91,2.81 1.37,5.89 1.37,9.25l0 38.42zm-27.37 -6.51c1.85,0 3.55,-0.18 5.09,-0.56 1.54,-0.37 3,-0.89 4.37,-1.58 1.36,-0.67 2.66,-1.5 3.91,-2.48 1.24,-0.97 2.44,-2.08 3.63,-3.32l0 -12.44c-4.86,0 -8.98,0.31 -12.38,0.93 -3.4,0.61 -6.16,1.4 -8.29,2.4 -2.14,0.99 -3.68,2.16 -4.65,3.5 -0.96,1.34 -1.46,2.84 -1.46,4.52 0,1.58 0.26,2.94 0.77,4.09 0.52,1.14 1.21,2.09 2.08,2.82 0.87,0.73 1.89,1.27 3.08,1.6 1.18,0.34 2.47,0.52 3.85,0.52z"/>
  <path id="31" class="fil0" d="M1898.59 1051.93c-0.36,0.79 -0.79,1.43 -1.32,1.9 -0.54,0.47 -1.37,0.71 -2.47,0.71l-7.82 0 10.96 -23.46 -24.76 -56.93 9.12 0c0.91,0 1.62,0.24 2.13,0.69 0.51,0.46 0.89,0.97 1.13,1.53l16.05 38.28c0.36,0.87 0.67,1.76 0.93,2.63 0.26,0.89 0.47,1.8 0.67,2.7 0.28,-0.9 0.55,-1.81 0.83,-2.7 0.28,-0.87 0.59,-1.78 0.95,-2.69l15.58 -38.22c0.23,-0.64 0.65,-1.17 1.22,-1.58 0.57,-0.42 1.19,-0.64 1.86,-0.64l8.41 0 -33.47 77.78z"/>
  <path id="32" class="fil0" d="M1978.8 998.74l0 35.48 -11.43 0 0 -85.01 23.99 0c5.37,0 10.01,0.56 13.92,1.64 3.91,1.09 7.15,2.65 9.69,4.7 2.55,2.06 4.43,4.54 5.65,7.45 1.23,2.92 1.84,6.16 1.84,9.75 0,3.02 -0.48,5.83 -1.42,8.43 -0.95,2.61 -2.31,4.96 -4.11,7.03 -1.8,2.08 -3.99,3.85 -6.58,5.31 -2.58,1.47 -5.53,2.57 -8.8,3.32 1.42,0.83 2.68,2.04 3.79,3.62l24.76 33.76 -10.19 0c-2.09,0 -3.63,-0.81 -4.62,-2.43l-22.04 -30.39c-0.67,-0.94 -1.4,-1.62 -2.19,-2.03 -0.79,-0.42 -1.97,-0.63 -3.55,-0.63l-8.71 0zm0 -8.41l12.02 0c3.36,0 6.32,-0.4 8.87,-1.21 2.55,-0.81 4.68,-1.95 6.4,-3.44 1.72,-1.48 3,-3.23 3.87,-5.29 0.87,-2.05 1.3,-4.32 1.3,-6.79 0,-5.05 -1.66,-8.87 -4.99,-11.41 -3.34,-2.57 -8.32,-3.85 -14.91,-3.85l-12.56 0 0 31.99z"/>
  <path id="33" class="fil0" d="M2064.58 973.15c3.59,0 6.91,0.61 9.95,1.81 3.04,1.21 5.66,2.95 7.88,5.22 2.21,2.27 3.95,5.09 5.19,8.43 1.24,3.34 1.86,7.15 1.86,11.43 0,1.66 -0.18,2.77 -0.54,3.32 -0.35,0.55 -1.02,0.83 -2.01,0.83l-39.93 0c0.08,3.79 0.59,7.11 1.54,9.91 0.95,2.82 2.25,5.15 3.91,7.05 1.66,1.88 3.63,3.28 5.93,4.21 2.29,0.92 4.85,1.4 7.7,1.4 2.64,0 4.93,-0.32 6.85,-0.93 1.91,-0.61 3.55,-1.29 4.93,-2 1.39,-0.71 2.55,-1.36 3.48,-1.97 0.93,-0.63 1.72,-0.93 2.39,-0.93 0.87,0 1.54,0.34 2.01,1.01l2.97 3.87c-1.31,1.56 -2.87,2.92 -4.68,4.09 -1.82,1.16 -3.76,2.11 -5.83,2.86 -2.07,0.73 -4.22,1.3 -6.44,1.68 -2.21,0.37 -4.4,0.55 -6.57,0.55 -4.15,0 -7.96,-0.71 -11.45,-2.11 -3.5,-1.4 -6.52,-3.46 -9.07,-6.16 -2.55,-2.71 -4.54,-6.06 -5.96,-10.05 -1.42,-3.99 -2.13,-8.57 -2.13,-13.77 0,-4.18 0.65,-8.09 1.93,-11.72 1.28,-3.64 3.12,-6.8 5.53,-9.46 2.41,-2.67 5.35,-4.76 8.83,-6.28 3.47,-1.52 7.38,-2.29 11.73,-2.29zm0.23 7.82c-5.09,0 -9.1,1.46 -12.02,4.4 -2.93,2.92 -4.74,6.99 -5.45,12.18l32.64 0c0,-2.45 -0.34,-4.68 -1.01,-6.69 -0.67,-2.04 -1.66,-3.79 -2.96,-5.25 -1.3,-1.48 -2.88,-2.63 -4.76,-3.44 -1.88,-0.81 -4.03,-1.2 -6.44,-1.2z"/>
  <path id="34" class="fil0" d="M2146.98 1034.16l-4.68 0c-1.03,0 -1.86,-0.16 -2.49,-0.47 -0.63,-0.32 -1.05,-1.01 -1.25,-2.04l-1.18 -5.58c-1.58,1.42 -3.12,2.7 -4.62,3.83 -1.5,1.14 -3.08,2.09 -4.74,2.86 -1.66,0.77 -3.42,1.36 -5.29,1.76 -1.88,0.39 -3.97,0.59 -6.26,0.59 -2.33,0 -4.5,-0.34 -6.54,-0.99 -2.03,-0.65 -3.81,-1.64 -5.31,-2.94 -1.5,-1.3 -2.68,-2.96 -3.57,-4.98 -0.89,-1.99 -1.35,-4.36 -1.35,-7.1 0,-2.39 0.66,-4.68 1.96,-6.88 1.3,-2.21 3.42,-4.16 6.32,-5.88 2.9,-1.7 6.69,-3.1 11.39,-4.19 4.7,-1.08 10.45,-1.64 17.24,-1.64l0 -4.71c0,-4.69 -0.99,-8.24 -2.98,-10.63 -2,-2.41 -4.96,-3.61 -8.87,-3.61 -2.56,0 -4.72,0.31 -6.48,0.97 -1.75,0.65 -3.27,1.38 -4.56,2.19 -1.28,0.81 -2.39,1.54 -3.31,2.19 -0.93,0.65 -1.86,0.99 -2.77,0.99 -0.71,0 -1.32,-0.18 -1.85,-0.56 -0.54,-0.37 -0.97,-0.83 -1.29,-1.38l-1.89 -3.32c3.31,-3.21 6.89,-5.62 10.72,-7.22 3.83,-1.6 8.08,-2.39 12.74,-2.39 3.35,0 6.33,0.55 8.94,1.66 2.61,1.1 4.8,2.64 6.58,4.62 1.77,1.97 3.12,4.36 4.02,7.18 0.91,2.81 1.37,5.89 1.37,9.25l0 38.42zm-27.37 -6.51c1.85,0 3.55,-0.18 5.09,-0.56 1.54,-0.37 3,-0.89 4.37,-1.58 1.36,-0.67 2.66,-1.5 3.91,-2.48 1.24,-0.97 2.44,-2.08 3.63,-3.32l0 -12.44c-4.86,0 -8.98,0.31 -12.38,0.93 -3.4,0.61 -6.16,1.4 -8.29,2.4 -2.14,0.99 -3.68,2.16 -4.65,3.5 -0.96,1.34 -1.46,2.84 -1.46,4.52 0,1.58 0.26,2.94 0.77,4.09 0.52,1.14 1.21,2.09 2.08,2.82 0.87,0.73 1.89,1.27 3.08,1.6 1.18,0.34 2.47,0.52 3.85,0.52z"/>
  <path id="35" class="fil0" d="M2162.97 1034.16l0 -60.07 6.28 0c1.5,0 2.45,0.73 2.84,2.2l0.83 6.53c2.61,-2.9 5.53,-5.23 8.75,-7.01 3.22,-1.77 6.93,-2.66 11.16,-2.66 3.27,0 6.18,0.55 8.68,1.64 2.51,1.08 4.61,2.62 6.28,4.62 1.68,1.99 2.95,4.4 3.82,7.2 0.86,2.81 1.3,5.91 1.3,9.3l0 38.25 -10.55 0 0 -38.25c0,-4.54 -1.02,-8.07 -3.1,-10.58 -2.07,-2.51 -5.25,-3.77 -9.51,-3.77 -3.12,0 -6.03,0.75 -8.73,2.25 -2.71,1.5 -5.22,3.55 -7.51,6.12l0 44.23 -10.54 0z"/>
  <path id="36" class="fil0" d="M2240.57 974.09l0 60.07 -10.54 0 0 -60.07 10.54 0zm2.37 -18.83c0,1.02 -0.2,1.97 -0.61,2.86 -0.41,0.89 -0.97,1.68 -1.66,2.37 -0.69,0.69 -1.5,1.24 -2.41,1.64 -0.91,0.39 -1.87,0.59 -2.9,0.59 -1.03,0 -1.98,-0.2 -2.86,-0.59 -0.89,-0.4 -1.68,-0.95 -2.37,-1.64 -0.69,-0.69 -1.25,-1.48 -1.64,-2.37 -0.4,-0.89 -0.59,-1.84 -0.59,-2.86 0,-1.03 0.19,-2.02 0.59,-2.95 0.39,-0.92 0.95,-1.73 1.64,-2.42 0.69,-0.7 1.48,-1.23 2.37,-1.62 0.88,-0.4 1.83,-0.6 2.86,-0.6 1.03,0 1.99,0.2 2.9,0.6 0.91,0.39 1.72,0.92 2.41,1.62 0.69,0.69 1.25,1.5 1.66,2.42 0.41,0.93 0.61,1.92 0.61,2.95z"/>
  <path id="37" class="fil0" d="M2259.17 1034.16l0 -60.07 6.28 0c1.5,0 2.45,0.73 2.85,2.2l0.77 6.18c2.21,-2.75 4.7,-4.98 7.44,-6.72 2.75,-1.73 5.92,-2.6 9.56,-2.6 4.06,0 7.36,1.12 9.87,3.37 2.51,2.25 4.31,5.29 5.41,9.15 0.83,-2.18 1.94,-4.07 3.3,-5.65 1.36,-1.58 2.88,-2.88 4.58,-3.91 1.7,-1.03 3.51,-1.78 5.43,-2.25 1.91,-0.48 3.85,-0.71 5.82,-0.71 3.16,0 5.99,0.51 8.46,1.52 2.46,1 4.56,2.47 6.28,4.4 1.71,1.94 3.02,4.32 3.92,7.15 0.91,2.82 1.37,6.06 1.37,9.69l0 38.25 -10.55 0 0 -38.25c0,-4.7 -1.02,-8.27 -3.08,-10.7 -2.05,-2.43 -5.03,-3.65 -8.94,-3.65 -1.74,0 -3.38,0.31 -4.94,0.93 -1.56,0.61 -2.94,1.5 -4.13,2.68 -1.18,1.19 -2.11,2.69 -2.8,4.48 -0.69,1.8 -1.05,3.89 -1.05,6.26l0 38.25 -10.54 0 0 -38.25c0,-4.81 -0.97,-8.43 -2.9,-10.8 -1.94,-2.37 -4.76,-3.55 -8.47,-3.55 -2.61,0 -5.02,0.71 -7.25,2.11 -2.23,1.4 -4.29,3.32 -6.14,5.73l0 44.76 -10.55 0z"/>
  <path id="38" class="fil0" d="M2400.52 1034.16l-4.68 0c-1.03,0 -1.86,-0.16 -2.49,-0.47 -0.63,-0.32 -1.05,-1.01 -1.25,-2.04l-1.18 -5.58c-1.58,1.42 -3.12,2.7 -4.62,3.83 -1.5,1.14 -3.08,2.09 -4.74,2.86 -1.66,0.77 -3.42,1.36 -5.29,1.76 -1.88,0.39 -3.97,0.59 -6.26,0.59 -2.33,0 -4.5,-0.34 -6.54,-0.99 -2.03,-0.65 -3.81,-1.64 -5.31,-2.94 -1.5,-1.3 -2.68,-2.96 -3.57,-4.98 -0.89,-1.99 -1.35,-4.36 -1.35,-7.1 0,-2.39 0.65,-4.68 1.96,-6.88 1.3,-2.21 3.42,-4.16 6.32,-5.88 2.9,-1.7 6.69,-3.1 11.39,-4.19 4.7,-1.08 10.45,-1.64 17.24,-1.64l0 -4.71c0,-4.69 -0.99,-8.24 -2.98,-10.63 -2,-2.41 -4.96,-3.61 -8.87,-3.61 -2.57,0 -4.72,0.31 -6.48,0.97 -1.75,0.65 -3.27,1.38 -4.56,2.19 -1.28,0.81 -2.39,1.54 -3.31,2.19 -0.93,0.65 -1.86,0.99 -2.77,0.99 -0.71,0 -1.32,-0.18 -1.85,-0.56 -0.54,-0.37 -0.97,-0.83 -1.29,-1.38l-1.89 -3.32c3.31,-3.21 6.89,-5.62 10.72,-7.22 3.83,-1.6 8.07,-2.39 12.73,-2.39 3.36,0 6.34,0.55 8.95,1.66 2.61,1.1 4.8,2.64 6.58,4.62 1.77,1.97 3.12,4.36 4.02,7.18 0.91,2.81 1.37,5.89 1.37,9.25l0 38.42zm-27.37 -6.51c1.85,0 3.55,-0.18 5.09,-0.56 1.54,-0.37 3,-0.89 4.37,-1.58 1.36,-0.67 2.66,-1.5 3.91,-2.48 1.24,-0.97 2.44,-2.08 3.63,-3.32l0 -12.44c-4.86,0 -8.99,0.31 -12.38,0.93 -3.4,0.61 -6.16,1.4 -8.29,2.4 -2.14,0.99 -3.68,2.16 -4.65,3.5 -0.96,1.34 -1.46,2.84 -1.46,4.52 0,1.58 0.26,2.94 0.77,4.09 0.52,1.14 1.21,2.09 2.08,2.82 0.87,0.73 1.89,1.27 3.08,1.6 1.18,0.34 2.47,0.52 3.85,0.52z"/>
  <path id="39" class="fil0" d="M2457.44 984.76c-0.31,0.43 -0.63,0.77 -0.94,1 -0.32,0.24 -0.77,0.36 -1.37,0.36 -0.59,0 -1.22,-0.24 -1.91,-0.73 -0.69,-0.49 -1.58,-1.05 -2.65,-1.64 -1.07,-0.59 -2.35,-1.13 -3.87,-1.62 -1.52,-0.49 -3.4,-0.75 -5.61,-0.75 -2.92,0 -5.51,0.53 -7.76,1.58 -2.25,1.05 -4.12,2.55 -5.64,4.52 -1.52,1.98 -2.67,4.37 -3.44,7.17 -0.77,2.8 -1.16,5.94 -1.16,9.42 0,3.63 0.41,6.85 1.24,9.67 0.83,2.83 1.99,5.2 3.49,7.11 1.51,1.92 3.34,3.38 5.49,4.39 2.16,1 4.56,1.52 7.25,1.52 2.57,0 4.68,-0.32 6.34,-0.93 1.66,-0.61 3.04,-1.29 4.15,-2.03 1.1,-0.75 2.01,-1.45 2.72,-2.06 0.71,-0.61 1.42,-0.91 2.13,-0.91 0.91,0 1.58,0.34 2.02,1.01l2.96 3.85c-2.61,3.22 -5.87,5.57 -9.77,7.07 -3.92,1.48 -8.04,2.23 -12.39,2.23 -3.75,0 -7.22,-0.69 -10.44,-2.07 -3.22,-1.38 -6.02,-3.4 -8.39,-6.02 -2.37,-2.63 -4.23,-5.87 -5.59,-9.7 -1.36,-3.83 -2.06,-8.19 -2.06,-13.11 0,-4.46 0.64,-8.59 1.88,-12.38 1.25,-3.79 3.06,-7.07 5.45,-9.82 2.39,-2.74 5.33,-4.89 8.85,-6.43 3.51,-1.54 7.54,-2.31 12.08,-2.31 4.19,0 7.9,0.69 11.14,2.05 3.24,1.36 6.1,3.28 8.59,5.77l-2.79 3.79z"/>
  <path id="40" class="fil0" d="M2483.57 974.09l0 60.07 -10.55 0 0 -60.07 10.55 0zm2.37 -18.83c0,1.02 -0.2,1.97 -0.62,2.86 -0.41,0.89 -0.96,1.68 -1.65,2.37 -0.7,0.69 -1.5,1.24 -2.41,1.64 -0.91,0.39 -1.88,0.59 -2.91,0.59 -1.02,0 -1.97,-0.2 -2.86,-0.59 -0.89,-0.4 -1.68,-0.95 -2.37,-1.64 -0.69,-0.69 -1.24,-1.48 -1.64,-2.37 -0.39,-0.89 -0.59,-1.84 -0.59,-2.86 0,-1.03 0.2,-2.02 0.59,-2.95 0.4,-0.92 0.95,-1.73 1.64,-2.42 0.69,-0.7 1.48,-1.23 2.37,-1.62 0.89,-0.4 1.84,-0.6 2.86,-0.6 1.03,0 2,0.2 2.91,0.6 0.91,0.39 1.71,0.92 2.41,1.62 0.69,0.69 1.24,1.5 1.65,2.42 0.42,0.93 0.62,1.92 0.62,2.95z"/>
  <path id="41" class="fil0" d="M2526.46 973.21c4.38,0 8.35,0.73 11.88,2.19 3.54,1.46 6.54,3.53 9.01,6.22 2.47,2.68 4.36,5.92 5.68,9.73 1.33,3.81 1.98,8.08 1.98,12.78 0,4.74 -0.65,9 -1.98,12.79 -1.32,3.8 -3.21,7.03 -5.68,9.72 -2.47,2.68 -5.47,4.74 -9.01,6.18 -3.53,1.44 -7.5,2.17 -11.88,2.17 -4.39,0 -8.34,-0.73 -11.87,-2.17 -3.54,-1.44 -6.56,-3.5 -9.05,-6.18 -2.48,-2.69 -4.4,-5.92 -5.74,-9.72 -1.34,-3.79 -2.02,-8.05 -2.02,-12.79 0,-4.7 0.68,-8.97 2.02,-12.78 1.34,-3.81 3.26,-7.05 5.74,-9.73 2.49,-2.69 5.51,-4.76 9.05,-6.22 3.53,-1.46 7.48,-2.19 11.87,-2.19zm0 53.55c5.92,0 10.34,-2 13.27,-5.97 2.92,-3.97 4.38,-9.51 4.38,-16.64 0,-7.15 -1.46,-12.72 -4.38,-16.73 -2.93,-3.99 -7.35,-5.98 -13.27,-5.98 -3.01,0 -5.61,0.51 -7.82,1.54 -2.22,1.03 -4.05,2.51 -5.53,4.44 -1.48,1.94 -2.59,4.33 -3.32,7.15 -0.73,2.82 -1.11,6.02 -1.11,9.58 0,3.55 0.38,6.75 1.11,9.55 0.73,2.81 1.84,5.18 3.32,7.09 1.48,1.92 3.31,3.38 5.53,4.43 2.21,1.02 4.81,1.54 7.82,1.54zm17.35 -78.49l-13.8 15.28c-0.55,0.59 -1.09,1.01 -1.62,1.26 -0.53,0.26 -1.22,0.4 -2.05,0.4l-6.28 0 8.76 -14.34c0.56,-0.91 1.17,-1.58 1.82,-1.99 0.65,-0.42 1.6,-0.61 2.86,-0.61l10.31 0z"/>
  <path id="42" class="fil0" d="M2568.04 1034.16l0 -60.07 6.28 0c1.5,0 2.45,0.73 2.84,2.2l0.83 6.53c2.61,-2.9 5.53,-5.23 8.75,-7.01 3.22,-1.77 6.93,-2.66 11.16,-2.66 3.28,0 6.18,0.55 8.69,1.64 2.5,1.08 4.6,2.62 6.27,4.62 1.68,1.99 2.95,4.4 3.82,7.2 0.86,2.81 1.3,5.91 1.3,9.3l0 38.25 -10.55 0 0 -38.25c0,-4.54 -1.02,-8.07 -3.1,-10.58 -2.07,-2.51 -5.25,-3.77 -9.51,-3.77 -3.12,0 -6.03,0.75 -8.73,2.25 -2.71,1.5 -5.21,3.55 -7.5,6.12l0 44.23 -10.55 0z"/>
  <path id="43" class="fil0" d="M2699.02 1034.16c-1.5,0 -2.45,-0.73 -2.85,-2.19l-0.94 -7.29c-2.57,3.12 -5.49,5.61 -8.79,7.49 -3.3,1.87 -7.09,2.82 -11.36,2.82 -3.43,0 -6.55,-0.67 -9.35,-1.99 -2.81,-1.33 -5.2,-3.26 -7.17,-5.83 -1.98,-2.58 -3.5,-5.78 -4.56,-9.62 -1.07,-3.83 -1.6,-8.23 -1.6,-13.22 0,-4.43 0.59,-8.53 1.77,-12.37 1.19,-3.81 2.91,-7.1 5.14,-9.93 2.23,-2.8 4.93,-4.99 8.13,-6.59 3.2,-1.6 6.83,-2.41 10.9,-2.41 3.68,0 6.81,0.63 9.42,1.87 2.61,1.25 4.94,2.99 6.99,5.24l0 -33.3 10.55 0 0 87.32 -6.28 0zm-20.44 -7.7c3.44,0 6.46,-0.79 9.04,-2.37 2.59,-1.58 4.96,-3.81 7.13,-6.69l0 -29.07c-1.93,-2.61 -4.05,-4.44 -6.36,-5.49 -2.31,-1.04 -4.87,-1.58 -7.68,-1.58 -5.61,0 -9.91,2 -12.91,6 -3,3.99 -4.5,9.68 -4.5,17.09 0,3.9 0.33,7.26 1,10.05 0.67,2.78 1.66,5.07 2.97,6.87 1.3,1.79 2.9,3.12 4.79,3.95 1.9,0.83 4.07,1.24 6.52,1.24z"/>
  <path id="44" class="fil0" d="M2746.76 973.15c3.6,0 6.91,0.61 9.95,1.81 3.05,1.21 5.67,2.95 7.88,5.22 2.21,2.27 3.95,5.09 5.2,8.43 1.24,3.34 1.85,7.15 1.85,11.43 0,1.66 -0.18,2.77 -0.53,3.32 -0.36,0.55 -1.03,0.83 -2.01,0.83l-39.93 0c0.08,3.79 0.59,7.11 1.54,9.91 0.95,2.82 2.25,5.15 3.91,7.05 1.66,1.88 3.63,3.28 5.92,4.21 2.29,0.92 4.86,1.4 7.7,1.4 2.65,0 4.94,-0.32 6.86,-0.93 1.91,-0.61 3.55,-1.29 4.93,-2 1.38,-0.71 2.55,-1.36 3.48,-1.97 0.93,-0.63 1.72,-0.93 2.39,-0.93 0.87,0 1.54,0.34 2.01,1.01l2.96 3.87c-1.3,1.56 -2.86,2.92 -4.68,4.09 -1.81,1.16 -3.75,2.11 -5.82,2.86 -2.08,0.73 -4.23,1.3 -6.44,1.68 -2.21,0.37 -4.4,0.55 -6.57,0.55 -4.15,0 -7.96,-0.71 -11.46,-2.11 -3.49,-1.4 -6.51,-3.46 -9.06,-6.16 -2.55,-2.71 -4.54,-6.06 -5.96,-10.05 -1.43,-3.99 -2.14,-8.57 -2.14,-13.77 0,-4.18 0.66,-8.09 1.94,-11.72 1.28,-3.64 3.12,-6.8 5.53,-9.46 2.41,-2.67 5.35,-4.76 8.82,-6.28 3.48,-1.52 7.39,-2.29 11.73,-2.29zm0.24 7.82c-5.1,0 -9.1,1.46 -12.03,4.4 -2.92,2.92 -4.73,6.99 -5.45,12.18l32.64 0c0,-2.45 -0.33,-4.68 -1,-6.69 -0.67,-2.04 -1.66,-3.79 -2.96,-5.25 -1.31,-1.48 -2.89,-2.63 -4.76,-3.44 -1.88,-0.81 -4.03,-1.2 -6.44,-1.2z"/>
  <polygon id="45" class="fil0" points="2796.82,946.84 2796.82,1034.16 2786.28,1034.16 2786.28,946.84 "/>
  <polygon id="46" class="fil0" points="2908.78,1034.16 2897.23,1034.16 2897.23,995.54 2851.5,995.54 2851.5,1034.16 2839.95,1034.16 2839.95,949.21 2851.5,949.21 2851.5,987.13 2897.23,987.13 2897.23,949.21 2908.78,949.21 "/>
  <path id="47" class="fil0" d="M2962.51 1025.04c3.51,0 6.65,-0.59 9.42,-1.78 2.76,-1.18 5.11,-2.84 7.03,-4.97 1.91,-2.14 3.37,-4.68 4.38,-7.65 1.01,-2.96 1.5,-6.22 1.5,-9.77l0 -51.6 11.43 0 0 51.64c0,4.9 -0.77,9.44 -2.33,13.62 -1.56,4.19 -3.79,7.82 -6.69,10.88 -2.9,3.07 -6.46,5.47 -10.64,7.21 -4.19,1.74 -8.89,2.61 -14.1,2.61 -5.21,0 -9.91,-0.87 -14.1,-2.61 -4.19,-1.74 -7.74,-4.14 -10.66,-7.21 -2.92,-3.06 -5.16,-6.69 -6.72,-10.88 -1.56,-4.18 -2.35,-8.72 -2.35,-13.62l0 -51.64 11.44 0 0 51.54c0,3.56 0.51,6.81 1.52,9.77 1,2.97 2.47,5.51 4.38,7.65 1.92,2.13 4.27,3.79 7.05,4.99 2.78,1.21 5.92,1.82 9.44,1.82z"/>
  <path id="48" class="fil0" d="M3075.83 1016.57c0.63,0 1.21,0.25 1.72,0.77l4.5 4.95c-3.47,4.03 -7.68,7.19 -12.64,9.44 -4.95,2.25 -10.93,3.38 -17.92,3.38 -6.13,0 -11.67,-1.07 -16.65,-3.18 -4.98,-2.11 -9.22,-5.07 -12.74,-8.88 -3.51,-3.82 -6.24,-8.4 -8.17,-13.73 -1.94,-5.33 -2.9,-11.19 -2.9,-17.61 0,-6.4 1.04,-12.26 3.12,-17.6 2.07,-5.33 4.97,-9.91 8.72,-13.76 3.75,-3.83 8.26,-6.79 13.49,-8.9 5.23,-2.12 11,-3.18 17.32,-3.18 6.24,0 11.63,0.96 16.15,2.92 4.52,1.95 8.53,4.6 12.04,7.96l-3.73 5.19c-0.27,0.39 -0.59,0.71 -0.95,0.97 -0.35,0.23 -0.86,0.37 -1.54,0.37 -0.51,0 -1.04,-0.19 -1.61,-0.57 -0.58,-0.38 -1.27,-0.83 -2.06,-1.38 -0.79,-0.55 -1.72,-1.15 -2.78,-1.78 -1.07,-0.63 -2.33,-1.22 -3.79,-1.78 -1.47,-0.55 -3.16,-1.02 -5.1,-1.4 -1.93,-0.37 -4.16,-0.55 -6.69,-0.55 -4.54,0 -8.69,0.77 -12.46,2.33 -3.77,1.56 -7.03,3.79 -9.76,6.67 -2.72,2.89 -4.83,6.4 -6.35,10.55 -1.53,4.14 -2.3,8.78 -2.3,13.92 0,5.29 0.77,10.01 2.3,14.16 1.52,4.14 3.59,7.64 6.21,10.5 2.63,2.86 5.73,5.06 9.33,6.56 3.59,1.5 7.46,2.25 11.61,2.25 2.52,0 4.79,-0.16 6.81,-0.46 2.01,-0.29 3.89,-0.75 5.61,-1.38 1.71,-0.63 3.31,-1.44 4.79,-2.41 1.49,-0.96 2.97,-2.11 4.47,-3.45 0.67,-0.6 1.32,-0.89 1.95,-0.89z"/>
  <path id="49" class="fil0" d="M3167 1034.16l-8.89 0c-1.02,0 -1.85,-0.25 -2.48,-0.77 -0.64,-0.51 -1.11,-1.16 -1.43,-1.95l-7.93 -20.5 -38.09 0 -7.94 20.5c-0.28,0.71 -0.75,1.34 -1.42,1.89 -0.67,0.56 -1.5,0.83 -2.49,0.83l-8.89 0 33.95 -84.95 11.67 0 33.94 84.95zm-55.63 -31.45l31.7 0 -13.33 -34.58c-0.87,-2.13 -1.72,-4.8 -2.55,-8 -0.43,1.62 -0.85,3.1 -1.26,4.47 -0.42,1.36 -0.83,2.56 -1.23,3.59l-13.33 34.52z"/>
 </g>
</svg>
