<?xml version="1.0" encoding="UTF-8"?>
<!DOCTYPE svg PUBLIC "-//W3C//DTD SVG 1.1//EN" "http://www.w3.org/Graphics/SVG/1.1/DTD/svg11.dtd">
<!-- Creator: CorelDRAW 2019 (64-Bit) -->
<svg xmlns="http://www.w3.org/2000/svg" xml:space="preserve" width="2577px" height="1231px" version="1.1" style="shape-rendering:geometricPrecision; text-rendering:geometricPrecision; image-rendering:optimizeQuality; fill-rule:evenodd; clip-rule:evenodd"
viewBox="0 0 2576.87 1231.09"
 xmlns:xlink="http://www.w3.org/1999/xlink"
 xmlns:xodm="http://www.corel.com/coreldraw/odm/2003">
 <defs>
  <style type="text/css">
   <![CDATA[
    .fil3 {fill:#A2D9CE}
    .fil2 {fill:white}
    .fil1 {fill:#A2D9CE;fill-rule:nonzero}
    .fil0 {fill:white;fill-rule:nonzero}
   ]]>
  </style>
 </defs>
 <g id="Capa_x0020_1">
  <metadata id="CorelCorpID_0Corel-Layer"/>
  <g id="_1767822266448">
   <path class="fil0" d="M265.43 751.75l-34.46 0c-7.24,0 -12.93,-1.14 -17.07,-3.31 -4.14,-2.18 -7.25,-6.52 -9.32,-13.14l-6.83 -22.67c-8.07,7.25 -15.93,13.56 -23.69,19.04 -7.77,5.49 -15.84,10.15 -24.12,13.87 -8.27,3.73 -17.07,6.52 -26.38,8.38 -9.32,1.87 -19.66,2.8 -31.05,2.8 -13.45,0 -25.87,-1.87 -37.25,-5.49 -11.38,-3.62 -21.11,-9 -29.29,-16.35 -8.17,-7.24 -14.59,-16.24 -19.14,-27.11 -4.55,-10.76 -6.83,-23.28 -6.83,-37.67 0,-12 3.21,-23.9 9.52,-35.59 6.31,-11.8 16.76,-22.36 31.46,-31.77 14.69,-9.52 34.25,-17.39 58.67,-23.6 24.43,-6.21 54.74,-9.31 90.96,-9.31l0 -18.73c0,-21.53 -4.45,-37.46 -13.45,-47.71 -9,-10.34 -22.14,-15.52 -39.32,-15.52 -12.42,0 -22.77,1.45 -31.05,4.35 -8.28,2.9 -15.42,6.1 -21.52,9.73 -6.11,3.62 -11.8,6.93 -16.97,9.83 -5.18,2.89 -10.87,4.34 -17.08,4.34 -5.17,0 -9.62,-1.34 -13.35,-4.03 -3.72,-2.69 -6.72,-6.01 -9,-9.94l-13.97 -24.52c36.63,-33.74 80.82,-50.61 132.56,-50.61 18.63,0 35.29,3.11 49.88,9.21 14.59,6.11 26.9,14.6 37.05,25.46 10.14,10.87 17.9,23.91 23.18,39.01 5.27,15.11 7.86,31.67 7.86,49.67l0 201.38zm-149.01 -47.81c7.86,0 15.1,-0.72 21.73,-2.17 6.62,-1.45 12.93,-3.62 18.83,-6.52 5.9,-2.9 11.59,-6.52 17.08,-10.76 5.48,-4.25 10.97,-9.21 16.55,-15.01l0 -53.08c-22.35,0 -40.98,1.44 -55.98,4.24 -15.01,2.79 -27.11,6.41 -36.22,10.86 -9.1,4.35 -15.52,9.52 -19.35,15.32 -3.83,5.9 -5.79,12.21 -5.79,19.14 0,13.56 4.03,23.39 12,29.18 7.97,5.9 18.31,8.8 31.15,8.8z"/>
   <path id="1" class="fil0" d="M340.87 751.75l0 -318.52 46.88 0c9.93,0 16.45,4.66 19.55,13.97l5.28 25.15c6.42,-6.62 13.25,-12.63 20.39,-18.01 7.14,-5.38 14.69,-10.03 22.66,-13.97 7.97,-3.93 16.45,-6.93 25.56,-9 9.11,-2.07 19.04,-3.1 29.8,-3.1 17.39,0 32.81,2.89 46.26,8.79 13.45,5.9 24.73,14.18 33.73,24.84 9.01,10.66 15.84,23.38 20.49,38.18 4.66,14.8 6.94,31.15 6.94,48.95l0 202.72 -76.69 0 0 -202.72c0,-19.46 -4.44,-34.56 -13.45,-45.22 -9,-10.66 -22.56,-15.94 -40.56,-15.94 -13.25,0 -25.67,3 -37.26,9 -11.58,6.01 -22.55,14.18 -32.9,24.53l0 230.35 -76.68 0z"/>
   <path id="2" class="fil0" d="M693.84 751.75l0 -318.52 45.02 0c7.86,0 13.35,1.45 16.45,4.35 3.11,2.9 5.18,7.86 6.21,14.9l4.66 38.5c11.38,-19.77 24.73,-35.39 40.04,-46.78 15.32,-11.48 32.5,-17.18 51.54,-17.18 15.73,0 28.76,3.73 39.11,11.18l-9.93 57.43c-0.62,3.73 -1.97,6.32 -4.04,7.87 -2.07,1.55 -4.86,2.38 -8.38,2.38 -3.1,0 -7.35,-0.73 -12.73,-2.18 -5.38,-1.44 -12.52,-2.17 -21.42,-2.17 -15.93,0 -29.59,4.35 -40.98,13.14 -11.38,8.8 -21,21.73 -28.87,38.71l0 198.37 -76.68 0z"/>
   <path id="3" class="fil1" d="M947.48 751.75l0 -461.32 76.68 0 0 177.26c12.41,-11.79 26.07,-21.31 40.98,-28.56 14.9,-7.24 32.38,-10.86 52.46,-10.86 17.38,0 32.8,2.89 46.26,8.79 13.45,5.9 24.73,14.18 33.73,24.84 9,10.66 15.83,23.38 20.49,38.18 4.66,14.8 6.93,31.15 6.93,48.95l0 202.72 -76.68 0 0 -202.72c0,-19.46 -4.45,-34.56 -13.45,-45.22 -9,-10.66 -22.56,-15.94 -40.56,-15.94 -13.25,0 -25.67,3 -37.26,9 -11.59,6.01 -22.56,14.18 -32.9,24.53l0 230.35 -76.68 0z"/>
   <path id="4" class="fil1" d="M1370.61 433.23l0 202.21c0,19.35 4.56,34.46 13.56,45.11 9,10.66 22.45,15.94 40.46,15.94 13.25,0 25.66,-2.9 37.25,-8.69 11.59,-5.8 22.56,-13.87 32.91,-24.01l0 -230.56 76.68 0 0 318.52 -46.88 0c-9.93,0 -16.45,-4.66 -19.56,-13.97l-5.27 -25.46c-6.63,6.63 -13.46,12.63 -20.49,18.11 -7.04,5.49 -14.49,10.14 -22.46,13.97 -7.97,3.83 -16.55,6.83 -25.76,9.01 -9.21,2.17 -19.15,3.31 -29.7,3.31 -17.39,0 -32.7,-3 -46.05,-8.9 -13.35,-5.9 -24.63,-14.18 -33.74,-24.94 -9.1,-10.76 -15.93,-23.6 -20.59,-38.39 -4.66,-14.8 -7.04,-31.05 -7.04,-48.85l0 -202.41 76.68 0z"/>
   <path id="5" class="fil1" d="M1877.26 500.91c-2.28,2.9 -4.45,5.17 -6.63,6.83 -2.17,1.66 -5.38,2.48 -9.52,2.48 -3.93,0 -7.76,-1.24 -11.48,-3.62 -3.73,-2.38 -8.18,-5.07 -13.35,-8.07 -5.18,-3 -11.28,-5.69 -18.42,-8.07 -7.14,-2.38 -16.04,-3.52 -26.6,-3.52 -13.45,0 -25.25,2.38 -35.39,7.24 -10.14,4.87 -18.52,11.9 -25.25,21.01 -6.72,9 -11.79,20.08 -15.1,33.01 -3.32,12.83 -4.97,27.53 -4.97,43.77 0,16.97 1.86,32.08 5.48,45.33 3.62,13.24 8.8,24.32 15.63,33.32 6.83,9 15.11,15.83 24.83,20.49 9.73,4.66 20.7,6.93 32.91,6.93 12.21,0 22.15,-1.45 29.7,-4.45 7.55,-3 13.87,-6.31 19.04,-9.93 5.17,-3.62 9.73,-6.94 13.56,-9.94 3.83,-3 8.07,-4.55 12.83,-4.55 6.21,0 10.86,2.49 13.97,7.24l22.04 28.15c-8.48,9.94 -17.69,18.21 -27.63,24.94 -9.93,6.73 -20.18,12.11 -30.84,16.14 -10.66,4.04 -21.73,6.94 -33.11,8.59 -11.38,1.66 -22.66,2.49 -33.84,2.49 -19.66,0 -38.18,-3.73 -55.57,-11.08 -17.38,-7.34 -32.49,-18 -45.43,-32.08 -12.93,-14.17 -23.18,-31.35 -30.73,-51.74 -7.56,-20.49 -11.38,-43.67 -11.38,-69.85 0,-23.38 3.41,-45.01 10.14,-65.09 6.72,-19.97 16.55,-37.25 29.59,-51.84 13.04,-14.59 29.19,-26.08 48.43,-34.36 19.25,-8.27 41.39,-12.41 66.44,-12.41 23.8,0 44.7,3.83 62.6,11.59 17.91,7.65 33.95,18.73 48.23,33.11l-20.18 27.94z"/>
   <path id="6" class="fil1" d="M2199.19 751.75l-34.46 0c-7.24,0 -12.94,-1.14 -17.08,-3.31 -4.13,-2.18 -7.24,-6.52 -9.31,-13.14l-6.83 -22.67c-8.07,7.25 -15.94,13.56 -23.7,19.04 -7.76,5.49 -15.83,10.15 -24.11,13.87 -8.28,3.73 -17.07,6.52 -26.38,8.38 -9.32,1.87 -19.67,2.8 -31.05,2.8 -13.45,0 -25.87,-1.87 -37.25,-5.49 -11.39,-3.62 -21.11,-9 -29.29,-16.35 -8.17,-7.24 -14.59,-16.24 -19.14,-27.11 -4.56,-10.76 -6.83,-23.28 -6.83,-37.67 0,-12 3.21,-23.9 9.52,-35.59 6.31,-11.8 16.76,-22.36 31.46,-31.77 14.69,-9.52 34.25,-17.39 58.67,-23.6 24.42,-6.21 54.74,-9.31 90.96,-9.31l0 -18.73c0,-21.53 -4.45,-37.46 -13.45,-47.71 -9,-10.34 -22.15,-15.52 -39.33,-15.52 -12.41,0 -22.76,1.45 -31.04,4.35 -8.28,2.9 -15.42,6.1 -21.52,9.73 -6.11,3.62 -11.8,6.93 -16.97,9.83 -5.18,2.89 -10.87,4.34 -17.08,4.34 -5.17,0 -9.62,-1.34 -13.35,-4.03 -3.72,-2.69 -6.72,-6.01 -9,-9.94l-13.97 -24.52c36.63,-33.74 80.82,-50.61 132.56,-50.61 18.63,0 35.29,3.11 49.88,9.21 14.59,6.11 26.9,14.6 37.04,25.46 10.14,10.87 17.91,23.91 23.18,39.01 5.28,15.11 7.87,31.67 7.87,49.67l0 201.38zm-149.02 -47.81c7.87,0 15.11,-0.72 21.74,-2.17 6.62,-1.45 12.93,-3.62 18.83,-6.52 5.9,-2.9 11.59,-6.52 17.07,-10.76 5.49,-4.25 10.97,-9.21 16.56,-15.01l0 -53.08c-22.35,0 -40.98,1.44 -55.98,4.24 -15.01,2.79 -27.11,6.41 -36.22,10.86 -9.11,4.35 -15.52,9.52 -19.35,15.32 -3.83,5.9 -5.8,12.21 -5.8,19.14 0,13.56 4.04,23.39 12.01,29.18 7.96,5.9 18.31,8.8 31.14,8.8z"/>
   <path class="fil0" d="M2349.49 598.43l3.76 0.02c61.74,0 117.66,-25.04 158.12,-65.49 40.46,-40.46 65.5,-96.38 65.5,-158.13 0,-61.74 -25.04,-117.66 -65.5,-158.12 -40.46,-40.46 -96.38,-65.5 -158.12,-65.5l-3.76 0.03 0 76.16 3.76 -0.04c40.72,0 77.6,16.51 104.28,43.19 26.68,26.68 43.19,63.56 43.19,104.28 0,40.72 -16.51,77.6 -43.19,104.28 -26.68,26.68 -63.56,43.19 -104.28,43.19l-3.76 -0.04 0 76.17z"/>
   <circle class="fil2" cx="2355.09" cy="334.59" r="31.9"/>
   <g>
    <path class="fil1" d="M2362.61 227.38l0.03 -3.76c0,-61.74 -25.04,-117.66 -65.5,-158.12 -40.46,-40.46 -96.38,-65.5 -158.12,-65.5 -61.75,0 -117.67,25.04 -158.13,65.5 -40.46,40.46 -65.5,96.38 -65.5,158.12l0.03 3.76 76.17 0 -0.05 -3.76c0,-40.72 16.52,-77.59 43.2,-104.28 26.68,-26.68 63.56,-43.19 104.28,-43.19 40.72,0 77.59,16.51 104.28,43.19 26.68,26.69 43.19,63.56 43.19,104.28l-0.04 3.76 76.16 0z"/>
    <path class="fil3" d="M2077.76 264l0 -69.8c0,-10.87 8.9,-19.77 19.77,-19.77l0 0c10.87,0 19.76,8.9 19.76,19.77l0 69.8c0,10.87 -8.89,19.77 -19.76,19.77l0 0c-10.87,0 -19.77,-8.9 -19.77,-19.77z"/>
   </g>
   <path class="fil1" d="M47.61 1002.52l-4.6 37.47 -12.95 0 12.19 -99.87 27.51 0c5.29,0 9.89,0.63 13.79,1.88 3.9,1.26 7.12,3.04 9.66,5.37 2.53,2.32 4.41,5.13 5.66,8.38 1.25,3.25 1.88,6.87 1.88,10.86 0,5.27 -0.86,10.08 -2.58,14.46 -1.72,4.41 -4.2,8.17 -7.47,11.33 -3.28,3.18 -7.32,5.64 -12.12,7.43 -4.81,1.79 -10.31,2.69 -16.48,2.69l-14.49 0zm6.41 -52.09l-5.15 41.79 14.48 0c3.95,0 7.43,-0.61 10.45,-1.82 3.02,-1.2 5.55,-2.9 7.59,-5.06 2.04,-2.15 3.6,-4.73 4.66,-7.73 1.07,-2.99 1.61,-6.24 1.61,-9.77 0,-2.69 -0.4,-5.11 -1.19,-7.24 -0.79,-2.14 -1.97,-3.97 -3.55,-5.48 -1.58,-1.51 -3.57,-2.67 -5.99,-3.48 -2.41,-0.81 -5.22,-1.21 -8.43,-1.21l-14.48 0z"/>
   <path id="1" class="fil1" d="M155.42 1039.99l-6.41 0c-1.62,0 -2.71,-0.42 -3.29,-1.23 -0.58,-0.83 -0.89,-1.83 -0.89,-3.02l1.26 -14.2c-1.67,2.95 -3.46,5.61 -5.39,8.01 -1.92,2.41 -3.97,4.45 -6.13,6.12 -2.16,1.7 -4.43,3 -6.8,3.9 -2.37,0.93 -4.83,1.4 -7.38,1.4 -2.79,0 -5.32,-0.56 -7.59,-1.65 -2.28,-1.09 -4.2,-2.69 -5.81,-4.81 -1.6,-2.11 -2.85,-4.71 -3.73,-7.8 -0.89,-3.08 -1.33,-6.64 -1.33,-10.63 0,-4.18 0.54,-8.26 1.58,-12.23 1.05,-3.97 2.53,-7.73 4.46,-11.26 1.93,-3.53 4.22,-6.78 6.92,-9.73 2.69,-2.95 5.71,-5.5 9.03,-7.66 3.32,-2.16 6.87,-3.83 10.68,-5.02 3.8,-1.18 7.8,-1.78 11.97,-1.78 3.02,0 5.97,0.25 8.83,0.74 2.85,0.49 5.66,1.35 8.45,2.55l-8.43 68.3zm-30.36 -9.33c2.27,0 4.5,-0.7 6.68,-2.09 2.18,-1.39 4.25,-3.34 6.2,-5.8 1.95,-2.46 3.78,-5.41 5.48,-8.82 1.69,-3.42 3.18,-7.15 4.48,-11.22l2.99 -23.89c-1.02,-0.83 -2.02,-1.25 -3.01,-1.25 -1,0 -2,0 -2.98,0 -2.78,0 -5.48,0.44 -8.07,1.35 -2.6,0.9 -5.04,2.18 -7.32,3.8 -2.27,1.63 -4.34,3.56 -6.2,5.81 -1.85,2.25 -3.43,4.71 -4.75,7.4 -1.33,2.7 -2.37,5.55 -3.12,8.59 -0.74,3.04 -1.11,6.15 -1.11,9.36 0,11.17 3.58,16.76 10.73,16.76zm41.5 -91.51l-17.27 17.9c-0.65,0.69 -1.3,1.18 -1.97,1.46 -0.68,0.28 -1.49,0.42 -2.42,0.42l-7.1 0 11.56 -16.86c0.65,-1.02 1.37,-1.76 2.16,-2.23 0.79,-0.46 1.9,-0.69 3.34,-0.69l11.7 0z"/>
   <path id="2" class="fil1" d="M225.76 988.92c-0.05,2.32 -0.32,4.41 -0.86,6.29 -0.53,1.86 -1.21,3.58 -1.99,5.15 -0.79,1.58 -1.65,3.07 -2.58,4.46 -0.93,1.39 -1.79,2.79 -2.58,4.18 -0.79,1.39 -1.44,2.83 -1.97,4.3 -0.54,1.46 -0.81,3.06 -0.81,4.78 0,1.95 0.48,3.71 1.44,5.29 0.95,1.58 1.99,3.2 3.13,4.87 1.14,1.68 2.18,3.51 3.13,5.48 0.95,1.98 1.42,4.32 1.42,7.01 0,3.3 -0.77,6.44 -2.3,9.38 -1.53,2.95 -3.71,5.55 -6.55,7.85 -2.83,2.28 -6.26,4.06 -10.33,5.39 -4.06,1.32 -8.63,1.99 -13.69,1.99 -4.04,0 -7.71,-0.42 -11.03,-1.25 -3.32,-0.84 -6.15,-2.02 -8.5,-3.55 -2.34,-1.54 -4.15,-3.39 -5.43,-5.55 -1.28,-2.16 -1.92,-4.53 -1.92,-7.13 0,-3.67 0.95,-6.82 2.85,-9.47 1.9,-2.65 4.41,-4.83 7.52,-6.55 3.11,-1.71 6.66,-2.97 10.63,-3.76 3.97,-0.79 8.01,-1.18 12.15,-1.18 1.67,0 3.34,0.07 4.99,0.23 1.64,0.14 3.27,0.35 4.89,0.6 -0.41,-0.88 -0.74,-1.81 -0.99,-2.76 -0.26,-0.97 -0.4,-1.99 -0.4,-3.13 0,-1.44 0.23,-2.93 0.68,-4.48 0.44,-1.53 1.16,-3.25 2.18,-5.18 -1.77,1.21 -3.74,2.11 -5.92,2.76 -2.18,0.63 -4.67,0.96 -7.45,0.96 -2.7,0 -5.2,-0.45 -7.55,-1.33 -2.34,-0.88 -4.41,-2.18 -6.17,-3.9 -1.77,-1.72 -3.16,-3.87 -4.18,-6.45 -1.02,-2.58 -1.53,-5.6 -1.53,-9.03 0,-3.37 0.62,-6.64 1.85,-9.87 1.23,-3.25 3.02,-6.13 5.39,-8.66 2.37,-2.53 5.29,-4.57 8.77,-6.1 3.49,-1.53 7.5,-2.3 12.05,-2.3 5.11,0 9.54,1.21 13.3,3.62l19.16 0 -0.56 4.13c-0.09,0.79 -0.35,1.51 -0.79,2.16 -0.44,0.65 -1.11,1.05 -2,1.18l-8.77 1.56c0.42,1.21 0.74,2.46 0.97,3.81 0.23,1.32 0.35,2.71 0.35,4.2zm-26.88 19.17c2.51,0 4.71,-0.55 6.61,-1.64 1.91,-1.09 3.53,-2.53 4.86,-4.32 1.32,-1.79 2.32,-3.81 3.01,-6.04 0.7,-2.23 1.05,-4.5 1.05,-6.78 0,-4.08 -1.02,-7.19 -3.09,-9.28 -2.06,-2.09 -4.92,-3.14 -8.54,-3.14 -2.51,0 -4.71,0.52 -6.62,1.54 -1.9,1.02 -3.5,2.39 -4.8,4.13 -1.3,1.72 -2.28,3.67 -2.95,5.85 -0.67,2.18 -1.02,4.48 -1.02,6.85 0,4.18 1.02,7.36 3.04,9.56 2.02,2.18 4.83,3.27 8.45,3.27zm13.93 33.67c0,-1.21 -0.12,-2.33 -0.35,-3.37 -0.23,-1.02 -0.54,-2.02 -0.91,-2.92 -2.5,-0.42 -4.85,-0.73 -7.05,-0.91 -2.21,-0.19 -4.3,-0.28 -6.25,-0.28 -3.81,0 -7.1,0.33 -9.89,1 -2.78,0.67 -5.08,1.55 -6.89,2.67 -1.81,1.11 -3.16,2.39 -4.04,3.83 -0.88,1.46 -1.33,2.97 -1.33,4.55 0,3.32 1.42,5.85 4.23,7.61 2.81,1.75 6.78,2.63 11.93,2.63 3.07,0 5.88,-0.4 8.41,-1.21 2.53,-0.81 4.69,-1.88 6.47,-3.23 1.79,-1.32 3.18,-2.9 4.18,-4.71 1,-1.79 1.49,-3.69 1.49,-5.66z"/>
   <path id="3" class="fil1" d="M260.93 969.37l-8.5 70.62 -12.18 0 8.49 -70.62 12.19 0zm4.67 -22.14c0,1.2 -0.23,2.32 -0.72,3.36 -0.49,1.05 -1.14,1.98 -1.95,2.79 -0.81,0.81 -1.74,1.46 -2.76,1.93 -1.03,0.46 -2.09,0.69 -3.21,0.69 -1.07,0 -2.11,-0.23 -3.13,-0.69 -1.02,-0.47 -1.91,-1.12 -2.67,-1.93 -0.77,-0.81 -1.4,-1.74 -1.86,-2.79 -0.46,-1.04 -0.7,-2.16 -0.7,-3.36 0,-1.21 0.24,-2.35 0.7,-3.42 0.46,-1.06 1.09,-2.02 1.88,-2.83 0.79,-0.81 1.7,-1.46 2.72,-1.95 1.02,-0.49 2.06,-0.72 3.13,-0.72 1.12,0 2.18,0.23 3.21,0.7 1.02,0.46 1.95,1.09 2.76,1.9 0.81,0.81 1.44,1.77 1.9,2.86 0.47,1.09 0.7,2.25 0.7,3.46z"/>
   <path id="4" class="fil1" d="M272.49 1039.99l8.43 -70.62 6.2 0c2.78,0 4.18,1.42 4.18,4.25l-1.05 14.35c3.76,-6.48 8.01,-11.35 12.72,-14.65 4.72,-3.27 9.59,-4.92 14.65,-4.92 5.25,0 9.33,1.76 12.24,5.29 2.9,3.53 4.34,8.68 4.34,15.46 0,0.93 -0.03,1.88 -0.07,2.86 -0.05,0.97 -0.14,1.99 -0.28,3.06l-5.29 44.92 -12.4 0 5.29 -44.92c0.1,-0.93 0.19,-1.83 0.26,-2.69 0.07,-0.86 0.09,-1.67 0.09,-2.46 0,-3.81 -0.7,-6.64 -2.11,-8.48 -1.42,-1.83 -3.65,-2.73 -6.66,-2.73 -2.23,0 -4.48,0.6 -6.78,1.81 -2.3,1.2 -4.53,2.9 -6.67,5.1 -2.13,2.21 -4.1,4.88 -5.94,8.01 -1.83,3.14 -3.41,6.64 -4.71,10.5l-4.04 35.86 -12.4 0z"/>
   <path id="5" class="fil1" d="M397.64 1039.99l-6.4 0c-1.63,0 -2.72,-0.42 -3.3,-1.23 -0.58,-0.83 -0.88,-1.83 -0.88,-3.02l1.25 -14.2c-1.67,2.95 -3.46,5.61 -5.39,8.01 -1.92,2.41 -3.97,4.45 -6.12,6.12 -2.16,1.7 -4.44,3 -6.81,3.9 -2.36,0.93 -4.82,1.4 -7.38,1.4 -2.78,0 -5.31,-0.56 -7.59,-1.65 -2.27,-1.09 -4.2,-2.69 -5.8,-4.81 -1.61,-2.11 -2.86,-4.71 -3.74,-7.8 -0.88,-3.08 -1.32,-6.64 -1.32,-10.63 0,-4.18 0.53,-8.26 1.58,-12.23 1.04,-3.97 2.53,-7.73 4.45,-11.26 1.93,-3.53 4.23,-6.78 6.92,-9.73 2.69,-2.95 5.71,-5.5 9.03,-7.66 3.32,-2.16 6.87,-3.83 10.68,-5.02 3.81,-1.18 7.8,-1.78 11.98,-1.78 3.02,0 5.96,0.25 8.82,0.74 2.86,0.49 5.66,1.35 8.45,2.55l-8.43 68.3zm-30.36 -9.33c2.27,0 4.5,-0.7 6.68,-2.09 2.19,-1.39 4.25,-3.34 6.2,-5.8 1.95,-2.46 3.79,-5.41 5.48,-8.82 1.7,-3.42 3.18,-7.15 4.48,-11.22l3 -23.89c-1.03,-0.83 -2.02,-1.25 -3.02,-1.25 -1,0 -2,0 -2.97,0 -2.79,0 -5.48,0.44 -8.08,1.35 -2.6,0.9 -5.04,2.18 -7.31,3.8 -2.28,1.63 -4.35,3.56 -6.2,5.81 -1.86,2.25 -3.44,4.71 -4.76,7.4 -1.32,2.7 -2.37,5.55 -3.11,8.59 -0.75,3.04 -1.12,6.15 -1.12,9.36 0,11.17 3.58,16.76 10.73,16.76z"/>
   <path id="6" class="fil1" d="M443.68 969.37l9.26 0c0.93,0 1.7,0.24 2.28,0.7 0.58,0.46 0.9,1.09 0.99,1.88l6.48 45.45c0.23,1.63 0.37,3.21 0.4,4.72 0.02,1.51 0.04,2.99 0.09,4.5 0.56,-1.51 1.14,-2.99 1.72,-4.5 0.58,-1.51 1.18,-3.09 1.83,-4.72l19.29 -45.73c0.28,-0.69 0.74,-1.28 1.37,-1.74 0.63,-0.46 1.32,-0.7 2.11,-0.7l5.16 0c0.93,0 1.65,0.24 2.16,0.7 0.51,0.46 0.81,1.05 0.9,1.74l7.87 45.73c0.28,1.63 0.51,3.21 0.68,4.74 0.16,1.53 0.3,3.06 0.44,4.62 0.46,-1.51 0.93,-3.02 1.37,-4.57 0.44,-1.56 0.97,-3.16 1.62,-4.79l17.83 -45.45c0.28,-0.74 0.74,-1.35 1.39,-1.83 0.65,-0.49 1.4,-0.75 2.23,-0.75l8.92 0 -29.6 70.62 -9.4 0c-1.07,0 -1.75,-0.79 -2.02,-2.37l-8.57 -47.89c-0.14,-0.74 -0.26,-1.51 -0.35,-2.27 -0.09,-0.77 -0.18,-1.51 -0.28,-2.25 -0.23,0.78 -0.46,1.55 -0.69,2.29 -0.24,0.75 -0.52,1.51 -0.84,2.3l-20.41 47.82c-0.64,1.58 -1.57,2.37 -2.78,2.37l-9.05 0 -12.4 -70.62z"/>
   <path id="7" class="fil1" d="M598.22 984.51c0,3.09 -0.63,5.89 -1.88,8.5 -1.26,2.57 -3.55,4.89 -6.9,6.96 -3.34,2.07 -7.94,3.88 -13.79,5.41 -5.85,1.53 -13.37,2.78 -22.56,3.71 -0.05,0.51 -0.07,1 -0.07,1.49 0,0.49 0,1 0,1.51 0,6.22 1.37,10.98 4.09,14.27 2.71,3.28 6.8,4.93 12.28,4.93 2.22,0 4.22,-0.24 5.96,-0.7 1.74,-0.49 3.3,-1.04 4.67,-1.72 1.37,-0.67 2.57,-1.41 3.62,-2.23 1.04,-0.81 2,-1.55 2.88,-2.25 0.88,-0.67 1.69,-1.23 2.44,-1.69 0.74,-0.47 1.48,-0.7 2.22,-0.7 0.84,0 1.61,0.4 2.3,1.18l3.07 3.84c-2.37,2.46 -4.67,4.55 -6.92,6.29 -2.25,1.71 -4.57,3.18 -6.94,4.34 -2.37,1.13 -4.83,1.99 -7.41,2.53 -2.57,0.53 -5.36,0.79 -8.33,0.79 -4.04,0 -7.66,-0.68 -10.87,-2.02 -3.2,-1.35 -5.92,-3.28 -8.14,-5.76 -2.23,-2.48 -3.95,-5.5 -5.16,-9.03 -1.21,-3.53 -1.81,-7.48 -1.81,-11.84 0,-3.62 0.4,-7.24 1.16,-10.84 0.77,-3.6 1.88,-7.04 3.34,-10.28 1.47,-3.26 3.25,-6.27 5.37,-9.06 2.11,-2.81 4.52,-5.2 7.24,-7.22 2.72,-2.02 5.71,-3.62 8.98,-4.78 3.28,-1.16 6.78,-1.74 10.54,-1.74 3.58,0 6.67,0.51 9.27,1.53 2.6,1.02 4.73,2.32 6.4,3.9 1.68,1.6 2.93,3.34 3.74,5.25 0.81,1.9 1.21,3.71 1.21,5.43zm-21.31 -7.2c-2.93,0 -5.62,0.61 -8.08,1.81 -2.46,1.21 -4.64,2.88 -6.55,5.02 -1.9,2.11 -3.53,4.59 -4.87,7.47 -1.35,2.86 -2.39,5.95 -3.14,9.27 7.15,-0.89 12.89,-1.91 17.2,-3.05 4.32,-1.13 7.64,-2.39 9.96,-3.71 2.33,-1.32 3.86,-2.76 4.6,-4.3 0.74,-1.53 1.11,-3.15 1.11,-4.82 0,-0.84 -0.18,-1.72 -0.55,-2.63 -0.37,-0.9 -0.95,-1.74 -1.77,-2.48 -0.81,-0.74 -1.88,-1.35 -3.18,-1.83 -1.3,-0.49 -2.88,-0.75 -4.73,-0.75z"/>
   <path id="8" class="fil1" d="M606.58 1039.99l12.39 -102.65 12.19 0 -6.13 50.49c1.77,-2.93 3.67,-5.62 5.71,-8.06 2.04,-2.41 4.18,-4.48 6.41,-6.17 2.23,-1.67 4.55,-3 6.96,-3.93 2.42,-0.95 4.88,-1.41 7.39,-1.41 5.99,0 10.65,2.18 13.99,6.57 3.35,4.36 5.02,10.75 5.02,19.17 0,3.81 -0.4,7.64 -1.19,11.45 -0.78,3.81 -1.9,7.45 -3.36,10.91 -1.46,3.48 -3.23,6.71 -5.29,9.7 -2.07,3.02 -4.37,5.62 -6.9,7.83 -2.53,2.2 -5.29,3.94 -8.26,5.2 -2.98,1.25 -6.09,1.88 -9.34,1.88 -3.76,0 -7.15,-0.79 -10.19,-2.37 -3.04,-1.58 -5.55,-3.83 -7.5,-6.78l-0.9 4.55c-0.37,1.21 -0.84,2.11 -1.42,2.72 -0.58,0.6 -1.58,0.9 -2.97,0.9l-6.61 0zm40.25 -61.7c-2.23,0 -4.48,0.69 -6.76,2.09 -2.27,1.39 -4.45,3.32 -6.57,5.8 -2.11,2.46 -4.1,5.39 -5.96,8.78 -1.86,3.41 -3.46,7.12 -4.81,11.16l-2.23 18.37c1.77,2.46 3.88,4.22 6.34,5.24 2.46,1.02 4.97,1.56 7.52,1.56 2.42,0 4.69,-0.51 6.83,-1.54 2.13,-1.02 4.08,-2.41 5.85,-4.15 1.76,-1.74 3.34,-3.79 4.73,-6.13 1.4,-2.35 2.58,-4.85 3.53,-7.52 0.95,-2.67 1.67,-5.43 2.19,-8.29 0.51,-2.85 0.76,-5.66 0.76,-8.45 0,-5.52 -1,-9.73 -2.99,-12.6 -2,-2.88 -4.81,-4.32 -8.43,-4.32z"/>
   <path id="9" class="fil1" d="M760.91 1039.99c-1.77,0 -2.88,-0.86 -3.35,-2.58l-1.11 -8.56c-3.02,3.67 -6.45,6.59 -10.33,8.8 -3.88,2.2 -8.33,3.32 -13.35,3.32 -4.04,0 -7.71,-0.79 -11,-2.35 -3.3,-1.55 -6.11,-3.83 -8.43,-6.85 -2.32,-3.04 -4.11,-6.8 -5.36,-11.3 -1.26,-4.51 -1.88,-9.68 -1.88,-15.56 0,-5.2 0.69,-10.02 2.09,-14.53 1.39,-4.48 3.41,-8.35 6.03,-11.67 2.63,-3.3 5.81,-5.88 9.57,-7.76 3.76,-1.88 8.03,-2.83 12.81,-2.83 4.32,0 8.01,0.74 11.07,2.2 3.07,1.47 5.81,3.51 8.22,6.16l0 -39.14 12.4 0 0 102.65 -7.38 0zm-24.03 -9.05c4.04,0 7.59,-0.93 10.63,-2.79 3.04,-1.85 5.83,-4.48 8.38,-7.87l0 -34.17c-2.27,-3.06 -4.76,-5.22 -7.47,-6.45 -2.72,-1.23 -5.74,-1.86 -9.03,-1.86 -6.6,0 -11.66,2.34 -15.19,7.06 -3.52,4.69 -5.29,11.37 -5.29,20.08 0,4.59 0.4,8.54 1.19,11.81 0.78,3.28 1.95,5.97 3.48,8.08 1.53,2.12 3.41,3.67 5.64,4.65 2.23,0.97 4.78,1.46 7.66,1.46z"/>
   <path id="10" class="fil1" d="M817.04 968.26c4.22,0 8.12,0.72 11.7,2.13 3.57,1.42 6.66,3.46 9.26,6.13 2.6,2.67 4.65,5.99 6.11,9.92 1.46,3.92 2.18,8.4 2.18,13.44 0,1.95 -0.21,3.25 -0.63,3.9 -0.41,0.65 -1.2,0.97 -2.36,0.97l-46.94 0c0.09,4.46 0.69,8.36 1.81,11.66 1.11,3.32 2.64,6.06 4.59,8.28 1.95,2.21 4.27,3.86 6.97,4.95 2.69,1.09 5.71,1.65 9.05,1.65 3.11,0 5.8,-0.37 8.06,-1.1 2.25,-0.71 4.17,-1.5 5.8,-2.34 1.62,-0.83 2.99,-1.6 4.09,-2.32 1.09,-0.74 2.02,-1.09 2.8,-1.09 1.03,0 1.81,0.39 2.37,1.18l3.48 4.55c-1.53,1.84 -3.36,3.44 -5.5,4.81 -2.13,1.37 -4.41,2.48 -6.85,3.36 -2.43,0.86 -4.96,1.54 -7.56,1.98 -2.6,0.44 -5.18,0.65 -7.73,0.65 -4.88,0 -9.36,-0.84 -13.47,-2.49 -4.11,-1.65 -7.66,-4.06 -10.65,-7.24 -3,-3.18 -5.34,-7.13 -7.01,-11.82 -1.68,-4.69 -2.51,-10.07 -2.51,-16.18 0,-4.92 0.76,-9.51 2.27,-13.79 1.51,-4.27 3.67,-7.98 6.5,-11.12 2.84,-3.13 6.29,-5.59 10.38,-7.38 4.09,-1.79 8.68,-2.69 13.79,-2.69zm0.28 9.19c-5.99,0 -10.7,1.72 -14.14,5.18 -3.44,3.43 -5.57,8.22 -6.41,14.32l38.38 0c0,-2.88 -0.4,-5.5 -1.19,-7.87 -0.79,-2.39 -1.95,-4.45 -3.48,-6.17 -1.53,-1.74 -3.39,-3.09 -5.59,-4.04 -2.21,-0.95 -4.74,-1.42 -7.57,-1.42z"/>
   <polygon id="11" class="fil1" points="875.89,937.34 875.89,1039.99 863.49,1039.99 863.49,937.34 "/>
   <path id="12" class="fil0" d="M977.71 955.79c-0.42,0.7 -0.86,1.21 -1.32,1.56 -0.47,0.35 -1.07,0.53 -1.82,0.53 -0.78,0 -1.69,-0.39 -2.73,-1.18 -1.05,-0.79 -2.37,-1.67 -3.97,-2.63 -1.61,-0.95 -3.53,-1.81 -5.78,-2.6 -2.26,-0.78 -5,-1.18 -8.2,-1.18 -3.02,0 -5.69,0.4 -8.01,1.21 -2.32,0.81 -4.25,1.92 -5.8,3.32 -1.56,1.39 -2.74,3.02 -3.53,4.9 -0.79,1.88 -1.18,3.92 -1.18,6.1 0,2.79 0.69,5.09 2.06,6.92 1.37,1.83 3.18,3.41 5.43,4.71 2.26,1.3 4.81,2.42 7.66,3.37 2.86,0.95 5.78,1.95 8.78,2.97 2.99,1.02 5.92,2.16 8.78,3.44 2.85,1.27 5.4,2.9 7.66,4.85 2.25,1.95 4.06,4.34 5.43,7.17 1.37,2.83 2.04,6.31 2.04,10.45 0,4.36 -0.74,8.45 -2.23,12.28 -1.48,3.83 -3.64,7.17 -6.5,10 -2.85,2.83 -6.36,5.06 -10.51,6.69 -4.16,1.62 -8.9,2.44 -14.19,2.44 -6.45,0 -12.33,-1.19 -17.64,-3.53 -5.32,-2.35 -9.87,-5.53 -13.63,-9.54l3.9 -6.41c0.37,-0.54 0.84,-0.95 1.37,-1.3 0.54,-0.35 1.12,-0.53 1.77,-0.53 0.97,0 2.08,0.53 3.34,1.57 1.25,1.05 2.83,2.19 4.71,3.44 1.88,1.25 4.16,2.41 6.83,3.46 2.67,1.04 5.92,1.55 9.77,1.55 3.2,0 6.06,-0.44 8.57,-1.32 2.5,-0.88 4.64,-2.14 6.38,-3.74 1.74,-1.6 3.06,-3.5 3.99,-5.73 0.93,-2.23 1.4,-4.71 1.4,-7.45 0,-3.02 -0.68,-5.51 -2.05,-7.43 -1.37,-1.93 -3.18,-3.53 -5.41,-4.83 -2.23,-1.3 -4.76,-2.41 -7.61,-3.32 -2.86,-0.91 -5.78,-1.83 -8.78,-2.79 -2.99,-0.95 -5.92,-2.04 -8.77,-3.29 -2.86,-1.26 -5.41,-2.88 -7.64,-4.88 -2.23,-1.99 -4.01,-4.5 -5.38,-7.49 -1.37,-3 -2.07,-6.69 -2.07,-11.1 0,-3.53 0.7,-6.94 2.07,-10.24 1.37,-3.3 3.34,-6.22 5.94,-8.78 2.6,-2.55 5.83,-4.59 9.66,-6.12 3.83,-1.54 8.21,-2.3 13.18,-2.3 5.57,0 10.66,0.88 15.25,2.67 4.6,1.76 8.62,4.34 12.05,7.71l-3.27 6.4z"/>
   <path id="13" class="fil0" d="M1026.39 968.26c4.23,0 8.13,0.72 11.7,2.13 3.58,1.42 6.66,3.46 9.26,6.13 2.6,2.67 4.65,5.99 6.11,9.92 1.46,3.92 2.18,8.4 2.18,13.44 0,1.95 -0.21,3.25 -0.63,3.9 -0.41,0.65 -1.2,0.97 -2.36,0.97l-46.94 0c0.09,4.46 0.69,8.36 1.81,11.66 1.11,3.32 2.64,6.06 4.59,8.28 1.95,2.21 4.28,3.86 6.97,4.95 2.69,1.09 5.71,1.65 9.05,1.65 3.11,0 5.8,-0.37 8.06,-1.1 2.25,-0.71 4.18,-1.5 5.8,-2.34 1.63,-0.83 2.99,-1.6 4.09,-2.32 1.09,-0.74 2.02,-1.09 2.81,-1.09 1.02,0 1.81,0.39 2.36,1.18l3.49 4.55c-1.54,1.84 -3.37,3.44 -5.51,4.81 -2.13,1.37 -4.41,2.48 -6.84,3.36 -2.44,0.86 -4.97,1.54 -7.57,1.98 -2.6,0.44 -5.18,0.65 -7.73,0.65 -4.88,0 -9.36,-0.84 -13.47,-2.49 -4.11,-1.65 -7.66,-4.06 -10.65,-7.24 -3,-3.18 -5.34,-7.13 -7.01,-11.82 -1.67,-4.69 -2.51,-10.07 -2.51,-16.18 0,-4.92 0.77,-9.51 2.27,-13.79 1.51,-4.27 3.67,-7.98 6.5,-11.12 2.84,-3.13 6.3,-5.59 10.38,-7.38 4.09,-1.79 8.68,-2.69 13.79,-2.69zm0.28 9.19c-5.99,0 -10.7,1.72 -14.14,5.18 -3.43,3.43 -5.57,8.22 -6.41,14.32l38.38 0c0,-2.88 -0.4,-5.5 -1.19,-7.87 -0.79,-2.39 -1.95,-4.45 -3.48,-6.17 -1.53,-1.74 -3.39,-3.09 -5.59,-4.04 -2.21,-0.95 -4.74,-1.42 -7.57,-1.42z"/>
   <path id="14" class="fil0" d="M1071.45 1039.99l0 -70.62 7.1 0c1.35,0 2.28,0.28 2.79,0.81 0.51,0.54 0.86,1.49 1.04,2.81l0.84 11.7c2.41,-5.22 5.41,-9.28 8.96,-12.18 3.55,-2.93 7.71,-4.39 12.49,-4.39 1.95,0 3.71,0.23 5.29,0.67 1.58,0.47 3.04,1.09 4.39,1.91l-1.6 9.26c-0.33,1.16 -1.05,1.74 -2.16,1.74 -0.65,0 -1.65,-0.23 -3,-0.67 -1.34,-0.44 -3.22,-0.65 -5.64,-0.65 -4.31,0 -7.91,1.3 -10.81,3.92 -2.91,2.62 -5.34,6.43 -7.29,11.42l0 44.27 -12.4 0z"/>
   <path id="15" class="fil0" d="M1118.67 969.37l10.17 0c0.97,0 1.78,0.26 2.43,0.77 0.65,0.51 1.12,1.11 1.4,1.81l17.9 45.45c0.65,1.68 1.16,3.35 1.53,5.02 0.37,1.67 0.72,3.32 1.04,4.97 0.37,-1.65 0.77,-3.3 1.19,-4.97 0.41,-1.67 0.95,-3.34 1.6,-5.02l18.11 -45.45c0.27,-0.74 0.74,-1.35 1.37,-1.83 0.62,-0.49 1.39,-0.75 2.32,-0.75l9.68 0 -28.77 70.62 -11.21 0 -28.76 -70.62z"/>
   <path id="16" class="fil0" d="M1212.69 969.37l0 70.62 -12.4 0 0 -70.62 12.4 0zm2.78 -22.14c0,1.2 -0.23,2.32 -0.72,3.36 -0.48,1.05 -1.13,1.98 -1.95,2.79 -0.81,0.81 -1.76,1.46 -2.83,1.93 -1.07,0.46 -2.2,0.69 -3.41,0.69 -1.21,0 -2.32,-0.23 -3.37,-0.69 -1.04,-0.47 -1.97,-1.12 -2.78,-1.93 -0.81,-0.81 -1.47,-1.74 -1.93,-2.79 -0.46,-1.04 -0.7,-2.16 -0.7,-3.36 0,-1.21 0.24,-2.37 0.7,-3.46 0.46,-1.09 1.12,-2.05 1.93,-2.86 0.81,-0.81 1.74,-1.44 2.78,-1.9 1.05,-0.47 2.16,-0.7 3.37,-0.7 1.21,0 2.34,0.23 3.41,0.7 1.07,0.46 2.02,1.09 2.83,1.9 0.82,0.81 1.47,1.77 1.95,2.86 0.49,1.09 0.72,2.25 0.72,3.46z"/>
   <path id="17" class="fil0" d="M1282.68 981.91c-0.37,0.51 -0.74,0.9 -1.11,1.18 -0.37,0.28 -0.91,0.42 -1.61,0.42 -0.69,0 -1.43,-0.28 -2.25,-0.86 -0.81,-0.58 -1.85,-1.23 -3.11,-1.93 -1.25,-0.69 -2.76,-1.32 -4.55,-1.9 -1.79,-0.58 -3.99,-0.88 -6.59,-0.88 -3.44,0 -6.48,0.63 -9.12,1.86 -2.65,1.23 -4.86,2.99 -6.64,5.31 -1.79,2.32 -3.14,5.13 -4.04,8.43 -0.91,3.3 -1.37,6.99 -1.37,11.07 0,4.27 0.48,8.06 1.46,11.38 0.97,3.32 2.34,6.1 4.11,8.36 1.76,2.25 3.92,3.96 6.45,5.15 2.53,1.18 5.37,1.79 8.52,1.79 3.02,0 5.5,-0.37 7.45,-1.1 1.95,-0.71 3.58,-1.5 4.88,-2.39 1.3,-0.88 2.37,-1.69 3.2,-2.41 0.84,-0.72 1.67,-1.07 2.51,-1.07 1.07,0 1.86,0.4 2.37,1.19l3.48 4.52c-3.06,3.79 -6.89,6.55 -11.49,8.31 -4.6,1.75 -9.45,2.63 -14.56,2.63 -4.41,0 -8.49,-0.82 -12.28,-2.44 -3.78,-1.63 -7.08,-3.99 -9.86,-7.08 -2.79,-3.09 -4.97,-6.9 -6.57,-11.4 -1.6,-4.5 -2.42,-9.63 -2.42,-15.41 0,-5.25 0.75,-10.1 2.21,-14.56 1.46,-4.46 3.6,-8.31 6.4,-11.54 2.81,-3.22 6.27,-5.75 10.41,-7.56 4.13,-1.82 8.86,-2.72 14.2,-2.72 4.92,0 9.29,0.81 13.1,2.41 3.8,1.6 7.17,3.86 10.09,6.78l-3.27 4.46z"/>
   <path id="18" class="fil0" d="M1313.39 969.37l0 70.62 -12.39 0 0 -70.62 12.39 0zm2.79 -22.14c0,1.2 -0.23,2.32 -0.72,3.36 -0.49,1.05 -1.14,1.98 -1.95,2.79 -0.81,0.81 -1.76,1.46 -2.83,1.93 -1.07,0.46 -2.21,0.69 -3.41,0.69 -1.21,0 -2.33,-0.23 -3.37,-0.69 -1.04,-0.47 -1.97,-1.12 -2.79,-1.93 -0.81,-0.81 -1.46,-1.74 -1.92,-2.79 -0.47,-1.04 -0.7,-2.16 -0.7,-3.36 0,-1.21 0.23,-2.37 0.7,-3.46 0.46,-1.09 1.11,-2.05 1.92,-2.86 0.82,-0.81 1.75,-1.44 2.79,-1.9 1.04,-0.47 2.16,-0.7 3.37,-0.7 1.2,0 2.34,0.23 3.41,0.7 1.07,0.46 2.02,1.09 2.83,1.9 0.81,0.81 1.46,1.77 1.95,2.86 0.49,1.09 0.72,2.25 0.72,3.46z"/>
   <path id="19" class="fil0" d="M1363.82 968.33c5.15,0 9.82,0.86 13.97,2.58 4.16,1.71 7.69,4.15 10.59,7.31 2.9,3.15 5.13,6.96 6.68,11.44 1.56,4.48 2.32,9.5 2.32,15.02 0,5.57 -0.76,10.59 -2.32,15.05 -1.55,4.45 -3.78,8.26 -6.68,11.42 -2.9,3.15 -6.43,5.57 -10.59,7.26 -4.15,1.7 -8.82,2.56 -13.97,2.56 -5.16,0 -9.8,-0.86 -13.96,-2.56 -4.15,-1.69 -7.7,-4.11 -10.63,-7.26 -2.92,-3.16 -5.17,-6.97 -6.75,-11.42 -1.58,-4.46 -2.37,-9.48 -2.37,-15.05 0,-5.52 0.79,-10.54 2.37,-15.02 1.58,-4.48 3.83,-8.29 6.75,-11.44 2.93,-3.16 6.48,-5.6 10.63,-7.31 4.16,-1.72 8.8,-2.58 13.96,-2.58zm0 62.96c6.96,0 12.16,-2.35 15.6,-7.01 3.43,-4.67 5.15,-11.19 5.15,-19.57 0,-8.41 -1.72,-14.95 -5.15,-19.67 -3.44,-4.69 -8.64,-7.03 -15.6,-7.03 -3.53,0 -6.6,0.6 -9.2,1.81 -2.6,1.21 -4.76,2.95 -6.5,5.22 -1.74,2.28 -3.04,5.09 -3.9,8.41 -0.86,3.32 -1.3,7.08 -1.3,11.26 0,4.17 0.44,7.93 1.3,11.23 0.86,3.3 2.16,6.08 3.9,8.34 1.74,2.25 3.9,3.96 6.5,5.2 2.6,1.2 5.67,1.81 9.2,1.81z"/>
   <path id="20" class="fil0" d="M1489.25 1039.99c-1.77,0 -2.88,-0.86 -3.35,-2.58l-1.11 -8.56c-3.02,3.67 -6.45,6.59 -10.33,8.8 -3.88,2.2 -8.33,3.32 -13.35,3.32 -4.04,0 -7.71,-0.79 -11,-2.35 -3.3,-1.55 -6.11,-3.83 -8.43,-6.85 -2.32,-3.04 -4.11,-6.8 -5.36,-11.3 -1.26,-4.51 -1.88,-9.68 -1.88,-15.56 0,-5.2 0.69,-10.02 2.09,-14.53 1.39,-4.48 3.41,-8.35 6.03,-11.67 2.63,-3.3 5.81,-5.88 9.57,-7.76 3.76,-1.88 8.03,-2.83 12.81,-2.83 4.32,0 8.01,0.74 11.07,2.2 3.07,1.47 5.81,3.51 8.22,6.16l0 -39.14 12.4 0 0 102.65 -7.38 0zm-24.03 -9.05c4.04,0 7.59,-0.93 10.63,-2.79 3.04,-1.85 5.83,-4.48 8.38,-7.87l0 -34.17c-2.27,-3.06 -4.76,-5.22 -7.47,-6.45 -2.72,-1.23 -5.74,-1.86 -9.03,-1.86 -6.6,0 -11.66,2.34 -15.19,7.06 -3.52,4.69 -5.29,11.37 -5.29,20.08 0,4.59 0.4,8.54 1.19,11.81 0.78,3.28 1.95,5.97 3.48,8.08 1.53,2.12 3.41,3.67 5.64,4.65 2.23,0.97 4.78,1.46 7.66,1.46z"/>
   <path id="21" class="fil0" d="M1545.38 968.26c4.22,0 8.12,0.72 11.7,2.13 3.57,1.42 6.66,3.46 9.26,6.13 2.6,2.67 4.65,5.99 6.11,9.92 1.46,3.92 2.18,8.4 2.18,13.44 0,1.95 -0.21,3.25 -0.63,3.9 -0.41,0.65 -1.2,0.97 -2.36,0.97l-46.94 0c0.09,4.46 0.69,8.36 1.81,11.66 1.11,3.32 2.64,6.06 4.59,8.28 1.95,2.21 4.27,3.86 6.97,4.95 2.69,1.09 5.71,1.65 9.05,1.65 3.11,0 5.8,-0.37 8.06,-1.1 2.25,-0.71 4.17,-1.5 5.8,-2.34 1.62,-0.83 2.99,-1.6 4.09,-2.32 1.09,-0.74 2.02,-1.09 2.8,-1.09 1.03,0 1.81,0.39 2.37,1.18l3.48 4.55c-1.53,1.84 -3.36,3.44 -5.5,4.81 -2.13,1.37 -4.41,2.48 -6.85,3.36 -2.43,0.86 -4.96,1.54 -7.56,1.98 -2.6,0.44 -5.18,0.65 -7.73,0.65 -4.88,0 -9.36,-0.84 -13.47,-2.49 -4.11,-1.65 -7.66,-4.06 -10.65,-7.24 -3,-3.18 -5.34,-7.13 -7.01,-11.82 -1.68,-4.69 -2.51,-10.07 -2.51,-16.18 0,-4.92 0.76,-9.51 2.27,-13.79 1.51,-4.27 3.67,-7.98 6.5,-11.12 2.84,-3.13 6.29,-5.59 10.38,-7.38 4.09,-1.79 8.68,-2.69 13.79,-2.69zm0.28 9.19c-5.99,0 -10.7,1.72 -14.14,5.18 -3.44,3.43 -5.57,8.22 -6.41,14.32l38.38 0c0,-2.88 -0.4,-5.5 -1.19,-7.87 -0.79,-2.39 -1.95,-4.45 -3.48,-6.17 -1.53,-1.74 -3.39,-3.09 -5.59,-4.04 -2.21,-0.95 -4.74,-1.42 -7.57,-1.42z"/>
   <path id="22" class="fil0" d="M1701.38 1039.99l-10.44 0c-1.21,0 -2.19,-0.3 -2.93,-0.9 -0.74,-0.61 -1.3,-1.37 -1.67,-2.3l-9.33 -24.1 -44.78 0 -9.34 24.1c-0.32,0.83 -0.88,1.58 -1.67,2.23 -0.79,0.65 -1.76,0.97 -2.92,0.97l-10.45 0 39.91 -99.87 13.72 0 39.9 99.87zm-65.39 -36.98l37.26 0 -15.67 -40.65c-1.03,-2.5 -2.02,-5.64 -3,-9.4 -0.51,1.9 -1,3.64 -1.48,5.25 -0.49,1.6 -0.98,3.01 -1.44,4.22l-15.67 40.58z"/>
   <path id="23" class="fil0" d="M1712.04 1039.99l0 -70.62 7.38 0c1.77,0 2.88,0.86 3.34,2.58l0.98 7.68c3.06,-3.41 6.5,-6.15 10.28,-8.24 3.79,-2.09 8.15,-3.13 13.12,-3.13 3.85,0 7.26,0.65 10.21,1.92 2.95,1.28 5.41,3.09 7.39,5.44 1.97,2.34 3.45,5.17 4.48,8.47 1.02,3.3 1.53,6.94 1.53,10.93l0 44.97 -12.4 0 0 -44.97c0,-5.33 -1.21,-9.49 -3.64,-12.44 -2.44,-2.95 -6.18,-4.43 -11.19,-4.43 -3.67,0 -7.08,0.88 -10.26,2.64 -3.18,1.77 -6.13,4.18 -8.83,7.2l0 52 -12.39 0z"/>
   <path id="24" class="fil0" d="M1817.41 968.26c4.23,0 8.13,0.72 11.7,2.13 3.58,1.42 6.66,3.46 9.26,6.13 2.6,2.67 4.65,5.99 6.11,9.92 1.46,3.92 2.18,8.4 2.18,13.44 0,1.95 -0.21,3.25 -0.63,3.9 -0.41,0.65 -1.2,0.97 -2.36,0.97l-46.94 0c0.09,4.46 0.69,8.36 1.81,11.66 1.11,3.32 2.64,6.06 4.59,8.28 1.95,2.21 4.28,3.86 6.97,4.95 2.69,1.09 5.71,1.65 9.05,1.65 3.11,0 5.8,-0.37 8.06,-1.1 2.25,-0.71 4.17,-1.5 5.8,-2.34 1.63,-0.83 2.99,-1.6 4.09,-2.32 1.09,-0.74 2.02,-1.09 2.8,-1.09 1.03,0 1.82,0.39 2.37,1.18l3.49 4.55c-1.54,1.84 -3.37,3.44 -5.51,4.81 -2.13,1.37 -4.41,2.48 -6.85,3.36 -2.43,0.86 -4.96,1.54 -7.56,1.98 -2.6,0.44 -5.18,0.65 -7.73,0.65 -4.88,0 -9.36,-0.84 -13.47,-2.49 -4.11,-1.65 -7.66,-4.06 -10.65,-7.24 -3,-3.18 -5.34,-7.13 -7.01,-11.82 -1.68,-4.69 -2.51,-10.07 -2.51,-16.18 0,-4.92 0.77,-9.51 2.27,-13.79 1.51,-4.27 3.67,-7.98 6.5,-11.12 2.84,-3.13 6.29,-5.59 10.38,-7.38 4.09,-1.79 8.68,-2.69 13.79,-2.69zm0.28 9.19c-5.99,0 -10.7,1.72 -14.14,5.18 -3.44,3.43 -5.57,8.22 -6.41,14.32l38.38 0c0,-2.88 -0.4,-5.5 -1.19,-7.87 -0.79,-2.39 -1.95,-4.45 -3.48,-6.17 -1.53,-1.74 -3.39,-3.09 -5.59,-4.04 -2.21,-0.95 -4.74,-1.42 -7.57,-1.42z"/>
   <path id="25" class="fil0" d="M1902.86 981.07c-0.55,1.03 -1.41,1.54 -2.57,1.54 -0.7,0 -1.49,-0.26 -2.37,-0.77 -0.88,-0.51 -1.95,-1.09 -3.23,-1.72 -1.28,-0.63 -2.81,-1.21 -4.57,-1.74 -1.77,-0.53 -3.86,-0.79 -6.27,-0.79 -2.09,0 -3.97,0.26 -5.64,0.79 -1.67,0.53 -3.09,1.28 -4.27,2.21 -1.19,0.92 -2.09,1.99 -2.72,3.22 -0.63,1.23 -0.95,2.58 -0.95,4.02 0,1.81 0.53,3.32 1.58,4.53 1.04,1.2 2.41,2.25 4.13,3.13 1.72,0.88 3.67,1.65 5.85,2.32 2.18,0.67 4.43,1.39 6.73,2.16 2.3,0.77 4.53,1.62 6.71,2.55 2.18,0.93 4.13,2.09 5.85,3.49 1.72,1.39 3.11,3.08 4.16,5.1 1.04,2.02 1.55,4.46 1.55,7.29 0,3.25 -0.58,6.25 -1.74,9.01 -1.16,2.76 -2.88,5.15 -5.15,7.17 -2.28,2.02 -5.06,3.62 -8.36,4.78 -3.3,1.17 -7.1,1.75 -11.42,1.75 -4.92,0 -9.38,-0.79 -13.37,-2.37 -4,-1.58 -7.38,-3.6 -10.17,-6.06l2.92 -4.85c0.38,-0.61 0.82,-1.07 1.33,-1.42 0.51,-0.32 1.18,-0.49 2.02,-0.49 0.83,0 1.72,0.33 2.64,0.98 0.93,0.65 2.07,1.37 3.39,2.16 1.33,0.79 2.93,1.51 4.81,2.16 1.88,0.65 4.22,0.97 7.06,0.97 2.41,0 4.52,-0.32 6.33,-0.95 1.81,-0.63 3.32,-1.46 4.53,-2.53 1.21,-1.07 2.11,-2.3 2.69,-3.69 0.58,-1.39 0.86,-2.9 0.86,-4.48 0,-1.95 -0.51,-3.55 -1.55,-4.83 -1.05,-1.28 -2.44,-2.37 -4.16,-3.27 -1.72,-0.93 -3.67,-1.72 -5.87,-2.4 -2.21,-0.67 -4.46,-1.36 -6.76,-2.11 -2.3,-0.74 -4.55,-1.6 -6.75,-2.55 -2.21,-0.95 -4.18,-2.14 -5.9,-3.58 -1.72,-1.44 -3.09,-3.22 -4.13,-5.34 -1.05,-2.11 -1.58,-4.68 -1.58,-7.7 0,-2.7 0.56,-5.3 1.67,-7.78 1.12,-2.48 2.74,-4.67 4.88,-6.55 2.13,-1.88 4.76,-3.39 7.87,-4.5 3.11,-1.11 6.66,-1.67 10.65,-1.67 4.64,0 8.82,0.74 12.51,2.2 3.7,1.49 6.88,3.51 9.57,6.09l-2.79 4.52z"/>
   <path id="26" class="fil0" d="M1944.3 1041.11c-5.57,0 -9.84,-1.56 -12.84,-4.67 -2.99,-3.11 -4.5,-7.59 -4.5,-13.46l0 -43.21 -8.5 0c-0.74,0 -1.37,-0.23 -1.88,-0.67 -0.51,-0.44 -0.76,-1.11 -0.76,-2.04l0 -4.97 11.56 -1.46 2.85 -21.8c0.1,-0.7 0.4,-1.28 0.91,-1.72 0.51,-0.44 1.16,-0.65 1.95,-0.65l6.27 0 0 24.31 20.19 0 0 9 -20.19 0 0 42.39c0,2.97 0.72,5.18 2.15,6.62 1.44,1.44 3.3,2.16 5.58,2.16 1.3,0 2.43,-0.19 3.39,-0.54 0.95,-0.34 1.76,-0.72 2.46,-1.13 0.69,-0.42 1.3,-0.82 1.78,-1.16 0.49,-0.35 0.91,-0.51 1.28,-0.51 0.65,0 1.23,0.39 1.74,1.2l3.62 5.99c-2.13,1.97 -4.71,3.51 -7.73,4.64 -3.01,1.12 -6.13,1.68 -9.33,1.68z"/>
   <path id="27" class="fil0" d="M2002.8 968.26c4.23,0 8.13,0.72 11.7,2.13 3.58,1.42 6.66,3.46 9.26,6.13 2.6,2.67 4.65,5.99 6.11,9.92 1.46,3.92 2.18,8.4 2.18,13.44 0,1.95 -0.21,3.25 -0.62,3.9 -0.42,0.65 -1.21,0.97 -2.37,0.97l-46.94 0c0.09,4.46 0.69,8.36 1.81,11.66 1.11,3.32 2.64,6.06 4.59,8.28 1.95,2.21 4.28,3.86 6.97,4.95 2.69,1.09 5.71,1.65 9.05,1.65 3.11,0 5.81,-0.37 8.06,-1.1 2.25,-0.71 4.18,-1.5 5.8,-2.34 1.63,-0.83 3,-1.6 4.09,-2.32 1.09,-0.74 2.02,-1.09 2.81,-1.09 1.02,0 1.81,0.39 2.36,1.18l3.49 4.55c-1.54,1.84 -3.37,3.44 -5.51,4.81 -2.13,1.37 -4.41,2.48 -6.84,3.36 -2.44,0.86 -4.97,1.54 -7.57,1.98 -2.6,0.44 -5.18,0.65 -7.73,0.65 -4.88,0 -9.36,-0.84 -13.47,-2.49 -4.11,-1.65 -7.66,-4.06 -10.65,-7.24 -3,-3.18 -5.34,-7.13 -7.01,-11.82 -1.67,-4.69 -2.51,-10.07 -2.51,-16.18 0,-4.92 0.77,-9.51 2.27,-13.79 1.51,-4.27 3.67,-7.98 6.51,-11.12 2.83,-3.13 6.29,-5.59 10.37,-7.38 4.09,-1.79 8.68,-2.69 13.79,-2.69zm0.28 9.19c-5.99,0 -10.7,1.72 -14.14,5.18 -3.43,3.43 -5.57,8.22 -6.4,14.32l38.37 0c0,-2.88 -0.4,-5.5 -1.19,-7.87 -0.78,-2.39 -1.94,-4.45 -3.48,-6.17 -1.53,-1.74 -3.39,-3.09 -5.59,-4.04 -2.21,-0.95 -4.74,-1.42 -7.57,-1.42z"/>
   <path id="28" class="fil0" d="M2088.25 981.07c-0.55,1.03 -1.41,1.54 -2.57,1.54 -0.7,0 -1.49,-0.26 -2.37,-0.77 -0.88,-0.51 -1.95,-1.09 -3.23,-1.72 -1.27,-0.63 -2.81,-1.21 -4.57,-1.74 -1.76,-0.53 -3.85,-0.79 -6.27,-0.79 -2.09,0 -3.97,0.26 -5.64,0.79 -1.67,0.53 -3.09,1.28 -4.27,2.21 -1.18,0.92 -2.09,1.99 -2.72,3.22 -0.62,1.23 -0.95,2.58 -0.95,4.02 0,1.81 0.54,3.32 1.58,4.53 1.05,1.2 2.41,2.25 4.13,3.13 1.72,0.88 3.67,1.65 5.85,2.32 2.18,0.67 4.44,1.39 6.73,2.16 2.3,0.77 4.53,1.62 6.71,2.55 2.19,0.93 4.14,2.09 5.85,3.49 1.72,1.39 3.11,3.08 4.16,5.1 1.04,2.02 1.55,4.46 1.55,7.29 0,3.25 -0.58,6.25 -1.74,9.01 -1.16,2.76 -2.88,5.15 -5.15,7.17 -2.28,2.02 -5.06,3.62 -8.36,4.78 -3.29,1.17 -7.1,1.75 -11.42,1.75 -4.92,0 -9.38,-0.79 -13.37,-2.37 -3.99,-1.58 -7.38,-3.6 -10.17,-6.06l2.93 -4.85c0.37,-0.61 0.81,-1.07 1.32,-1.42 0.51,-0.32 1.18,-0.49 2.02,-0.49 0.83,0 1.72,0.33 2.64,0.98 0.93,0.65 2.07,1.37 3.4,2.16 1.32,0.79 2.92,1.51 4.8,2.16 1.88,0.65 4.23,0.97 7.06,0.97 2.41,0 4.52,-0.32 6.34,-0.95 1.81,-0.63 3.31,-1.46 4.52,-2.53 1.21,-1.07 2.11,-2.3 2.69,-3.69 0.59,-1.39 0.86,-2.9 0.86,-4.48 0,-1.95 -0.51,-3.55 -1.55,-4.83 -1.05,-1.28 -2.44,-2.37 -4.16,-3.27 -1.72,-0.93 -3.67,-1.72 -5.87,-2.4 -2.21,-0.67 -4.46,-1.36 -6.76,-2.11 -2.29,-0.74 -4.55,-1.6 -6.75,-2.55 -2.21,-0.95 -4.18,-2.14 -5.9,-3.58 -1.72,-1.44 -3.09,-3.22 -4.13,-5.34 -1.05,-2.11 -1.58,-4.68 -1.58,-7.7 0,-2.7 0.56,-5.3 1.67,-7.78 1.12,-2.48 2.74,-4.67 4.88,-6.55 2.13,-1.88 4.76,-3.39 7.87,-4.5 3.11,-1.11 6.66,-1.67 10.65,-1.67 4.65,0 8.82,0.74 12.52,2.2 3.69,1.49 6.87,3.51 9.56,6.09l-2.79 4.52z"/>
   <path id="29" class="fil0" d="M2122.1 969.37l0 70.62 -12.4 0 0 -70.62 12.4 0zm2.79 -22.14c0,1.2 -0.24,2.32 -0.72,3.36 -0.49,1.05 -1.14,1.98 -1.95,2.79 -0.81,0.81 -1.77,1.46 -2.83,1.93 -1.07,0.46 -2.21,0.69 -3.42,0.69 -1.2,0 -2.32,-0.23 -3.36,-0.69 -1.05,-0.47 -1.98,-1.12 -2.79,-1.93 -0.81,-0.81 -1.46,-1.74 -1.93,-2.79 -0.46,-1.04 -0.69,-2.16 -0.69,-3.36 0,-1.21 0.23,-2.37 0.69,-3.46 0.47,-1.09 1.12,-2.05 1.93,-2.86 0.81,-0.81 1.74,-1.44 2.79,-1.9 1.04,-0.47 2.16,-0.7 3.36,-0.7 1.21,0 2.35,0.23 3.42,0.7 1.06,0.46 2.02,1.09 2.83,1.9 0.81,0.81 1.46,1.77 1.95,2.86 0.48,1.09 0.72,2.25 0.72,3.46z"/>
   <path id="30" class="fil0" d="M2195.78 1039.99l-5.5 0c-1.2,0 -2.18,-0.18 -2.92,-0.56 -0.75,-0.37 -1.23,-1.18 -1.46,-2.39l-1.4 -6.57c-1.85,1.68 -3.66,3.18 -5.43,4.51 -1.76,1.34 -3.62,2.46 -5.57,3.36 -1.95,0.91 -4.02,1.61 -6.22,2.07 -2.21,0.46 -4.67,0.7 -7.36,0.7 -2.74,0 -5.29,-0.4 -7.69,-1.16 -2.39,-0.77 -4.48,-1.93 -6.24,-3.46 -1.77,-1.54 -3.16,-3.49 -4.2,-5.85 -1.05,-2.35 -1.58,-5.13 -1.58,-8.36 0,-2.81 0.77,-5.5 2.3,-8.08 1.53,-2.6 4.01,-4.9 7.43,-6.92 3.41,-1.99 7.87,-3.64 13.39,-4.92 5.53,-1.28 12.28,-1.93 20.27,-1.93l0 -5.54c0,-5.51 -1.16,-9.68 -3.51,-12.49 -2.34,-2.84 -5.82,-4.25 -10.42,-4.25 -3.02,0 -5.55,0.37 -7.62,1.14 -2.06,0.76 -3.85,1.62 -5.36,2.57 -1.51,0.95 -2.81,1.81 -3.9,2.58 -1.09,0.77 -2.18,1.16 -3.25,1.16 -0.83,0 -1.55,-0.21 -2.18,-0.65 -0.63,-0.44 -1.14,-0.97 -1.51,-1.63l-2.23 -3.9c3.9,-3.78 8.1,-6.61 12.61,-8.49 4.5,-1.88 9.49,-2.81 14.97,-2.81 3.95,0 7.45,0.65 10.52,1.95 3.06,1.3 5.64,3.11 7.73,5.43 2.09,2.32 3.67,5.13 4.73,8.45 1.07,3.3 1.6,6.92 1.6,10.87l0 45.17zm-32.17 -7.66c2.18,0 4.18,-0.21 5.99,-0.65 1.81,-0.44 3.53,-1.04 5.13,-1.86 1.6,-0.78 3.13,-1.76 4.6,-2.92 1.46,-1.14 2.87,-2.44 4.27,-3.9l0 -14.63c-5.71,0 -10.57,0.38 -14.56,1.09 -3.99,0.72 -7.24,1.65 -9.75,2.84 -2.51,1.16 -4.32,2.53 -5.45,4.11 -1.14,1.57 -1.72,3.34 -1.72,5.31 0,1.86 0.3,3.46 0.9,4.81 0.61,1.34 1.42,2.46 2.44,3.32 1.02,0.86 2.23,1.48 3.62,1.88 1.4,0.39 2.9,0.6 4.53,0.6z"/>
   <path id="31" class="fil0" d="M52.97 1228.03c-0.41,0.93 -0.92,1.67 -1.55,2.23 -0.63,0.56 -1.6,0.83 -2.9,0.83l-9.2 0 12.89 -27.57 -29.11 -66.93 10.72 0c1.07,0 1.91,0.28 2.51,0.81 0.6,0.53 1.04,1.14 1.32,1.79l18.88 45.01c0.41,1.02 0.78,2.07 1.09,3.09 0.3,1.04 0.55,2.11 0.79,3.18 0.32,-1.07 0.65,-2.14 0.97,-3.18 0.33,-1.02 0.7,-2.09 1.12,-3.16l18.31 -44.94c0.28,-0.74 0.77,-1.37 1.44,-1.86 0.67,-0.49 1.39,-0.74 2.18,-0.74l9.89 0 -39.35 91.44z"/>
   <path id="32" class="fil0" d="M147.27 1165.49l0 41.72 -13.44 0 0 -99.94 28.21 0c6.31,0 11.77,0.65 16.36,1.93 4.6,1.27 8.41,3.11 11.4,5.52 3,2.41 5.2,5.34 6.64,8.75 1.44,3.44 2.16,7.24 2.16,11.47 0,3.55 -0.56,6.85 -1.67,9.91 -1.12,3.07 -2.72,5.83 -4.83,8.27 -2.11,2.43 -4.69,4.52 -7.73,6.24 -3.04,1.72 -6.5,3.02 -10.35,3.9 1.67,0.98 3.15,2.39 4.45,4.25l29.11 39.7 -11.97 0c-2.47,0 -4.28,-0.96 -5.44,-2.86l-25.9 -35.73c-0.79,-1.11 -1.65,-1.9 -2.58,-2.39 -0.93,-0.48 -2.32,-0.74 -4.18,-0.74l-10.24 0zm0 -9.89l14.14 0c3.95,0 7.43,-0.46 10.42,-1.41 3,-0.96 5.51,-2.3 7.52,-4.04 2.02,-1.75 3.53,-3.81 4.55,-6.23 1.03,-2.41 1.54,-5.08 1.54,-7.98 0,-5.94 -1.95,-10.43 -5.88,-13.42 -3.92,-3.02 -9.77,-4.53 -17.52,-4.53l-14.77 0 0 37.61z"/>
   <path id="33" class="fil0" d="M248.12 1135.4c4.22,0 8.12,0.72 11.7,2.14 3.57,1.42 6.66,3.46 9.26,6.13 2.6,2.67 4.64,5.99 6.1,9.91 1.47,3.92 2.19,8.4 2.19,13.44 0,1.95 -0.21,3.25 -0.63,3.9 -0.42,0.65 -1.21,0.98 -2.37,0.98l-46.94 0c0.1,4.46 0.7,8.35 1.81,11.65 1.12,3.32 2.65,6.06 4.6,8.29 1.95,2.2 4.27,3.85 6.96,4.94 2.7,1.09 5.71,1.65 9.06,1.65 3.11,0 5.8,-0.37 8.05,-1.09 2.25,-0.72 4.18,-1.51 5.81,-2.34 1.62,-0.84 2.99,-1.61 4.08,-2.33 1.09,-0.74 2.02,-1.09 2.81,-1.09 1.02,0 1.81,0.4 2.37,1.19l3.48 4.55c-1.53,1.83 -3.37,3.43 -5.5,4.8 -2.14,1.37 -4.41,2.49 -6.85,3.37 -2.44,0.86 -4.97,1.53 -7.57,1.97 -2.6,0.44 -5.17,0.65 -7.73,0.65 -4.87,0 -9.35,-0.83 -13.46,-2.48 -4.11,-1.65 -7.66,-4.06 -10.66,-7.24 -2.99,-3.19 -5.34,-7.13 -7.01,-11.82 -1.67,-4.69 -2.51,-10.08 -2.51,-16.18 0,-4.92 0.77,-9.52 2.28,-13.79 1.51,-4.27 3.67,-7.99 6.5,-11.12 2.83,-3.13 6.29,-5.6 10.38,-7.38 4.08,-1.79 8.68,-2.7 13.79,-2.7zm0.27 9.2c-5.99,0 -10.7,1.71 -14.13,5.17 -3.44,3.44 -5.57,8.22 -6.41,14.33l38.37 0c0,-2.88 -0.39,-5.5 -1.18,-7.87 -0.79,-2.39 -1.95,-4.46 -3.48,-6.18 -1.54,-1.74 -3.39,-3.08 -5.6,-4.04 -2.2,-0.95 -4.73,-1.41 -7.57,-1.41z"/>
   <path id="34" class="fil0" d="M344.99 1207.14l-5.5 0c-1.21,0 -2.18,-0.19 -2.93,-0.56 -0.74,-0.37 -1.23,-1.18 -1.46,-2.39l-1.39 -6.57c-1.86,1.67 -3.67,3.18 -5.43,4.5 -1.77,1.35 -3.63,2.46 -5.58,3.37 -1.95,0.9 -4.01,1.6 -6.22,2.07 -2.2,0.46 -4.66,0.69 -7.36,0.69 -2.74,0 -5.29,-0.39 -7.68,-1.16 -2.39,-0.77 -4.48,-1.93 -6.24,-3.46 -1.77,-1.53 -3.16,-3.48 -4.21,-5.85 -1.04,-2.34 -1.58,-5.13 -1.58,-8.35 0,-2.81 0.77,-5.51 2.3,-8.08 1.54,-2.6 4.02,-4.9 7.43,-6.92 3.41,-2 7.87,-3.65 13.4,-4.92 5.52,-1.28 12.28,-1.93 20.26,-1.93l0 -5.55c0,-5.5 -1.16,-9.68 -3.5,-12.49 -2.35,-2.83 -5.83,-4.25 -10.43,-4.25 -3.01,0 -5.54,0.37 -7.61,1.14 -2.07,0.77 -3.85,1.63 -5.36,2.58 -1.51,0.95 -2.81,1.81 -3.9,2.58 -1.09,0.76 -2.19,1.16 -3.25,1.16 -0.84,0 -1.56,-0.21 -2.18,-0.65 -0.63,-0.45 -1.14,-0.98 -1.51,-1.63l-2.23 -3.9c3.9,-3.78 8.1,-6.62 12.6,-8.5 4.51,-1.88 9.5,-2.81 14.98,-2.81 3.94,0 7.45,0.66 10.51,1.95 3.07,1.31 5.64,3.12 7.73,5.44 2.09,2.32 3.67,5.13 4.74,8.45 1.07,3.29 1.6,6.92 1.6,10.86l0 45.18zm-32.17 -7.66c2.18,0 4.17,-0.21 5.98,-0.65 1.81,-0.44 3.53,-1.05 5.14,-1.86 1.6,-0.79 3.13,-1.77 4.59,-2.93 1.46,-1.13 2.88,-2.43 4.27,-3.9l0 -14.62c-5.71,0 -10.56,0.37 -14.55,1.09 -4,0.72 -7.25,1.65 -9.75,2.83 -2.51,1.16 -4.32,2.53 -5.46,4.11 -1.14,1.58 -1.72,3.34 -1.72,5.32 0,1.85 0.31,3.46 0.91,4.8 0.6,1.35 1.42,2.46 2.44,3.32 1.02,0.86 2.23,1.49 3.62,1.88 1.39,0.4 2.9,0.61 4.53,0.61z"/>
   <path id="35" class="fil0" d="M363.79 1207.14l0 -70.62 7.39 0c1.76,0 2.87,0.86 3.34,2.58l0.97 7.68c3.07,-3.41 6.5,-6.15 10.29,-8.24 3.78,-2.09 8.15,-3.14 13.11,-3.14 3.86,0 7.27,0.65 10.22,1.93 2.95,1.28 5.41,3.09 7.38,5.43 1.97,2.35 3.46,5.18 4.48,8.48 1.02,3.29 1.53,6.94 1.53,10.93l0 44.97 -12.39 0 0 -44.97c0,-5.34 -1.21,-9.49 -3.65,-12.44 -2.44,-2.95 -6.17,-4.44 -11.19,-4.44 -3.66,0 -7.08,0.89 -10.26,2.65 -3.18,1.76 -6.13,4.18 -8.82,7.2l0 52 -12.4 0z"/>
   <path id="36" class="fil0" d="M455.03 1136.52l0 70.62 -12.4 0 0 -70.62 12.4 0zm2.78 -22.15c0,1.21 -0.23,2.32 -0.72,3.37 -0.48,1.04 -1.13,1.97 -1.95,2.78 -0.81,0.82 -1.76,1.47 -2.83,1.93 -1.07,0.46 -2.2,0.7 -3.41,0.7 -1.21,0 -2.32,-0.24 -3.37,-0.7 -1.04,-0.46 -1.97,-1.11 -2.78,-1.93 -0.81,-0.81 -1.47,-1.74 -1.93,-2.78 -0.46,-1.05 -0.7,-2.16 -0.7,-3.37 0,-1.21 0.24,-2.37 0.7,-3.46 0.46,-1.09 1.12,-2.04 1.93,-2.85 0.81,-0.81 1.74,-1.44 2.78,-1.91 1.05,-0.46 2.16,-0.69 3.37,-0.69 1.21,0 2.34,0.23 3.41,0.69 1.07,0.47 2.02,1.1 2.83,1.91 0.82,0.81 1.47,1.76 1.95,2.85 0.49,1.09 0.72,2.25 0.72,3.46z"/>
   <path id="37" class="fil0" d="M476.9 1207.14l0 -70.62 7.38 0c1.76,0 2.88,0.86 3.34,2.58l0.91 7.26c2.6,-3.23 5.52,-5.85 8.75,-7.89 3.23,-2.04 6.96,-3.07 11.24,-3.07 4.78,0 8.65,1.33 11.6,3.97 2.95,2.65 5.06,6.23 6.36,10.75 0.98,-2.55 2.28,-4.78 3.88,-6.64 1.6,-1.85 3.39,-3.39 5.39,-4.59 1.99,-1.21 4.13,-2.09 6.38,-2.65 2.25,-0.56 4.53,-0.84 6.85,-0.84 3.71,0 7.03,0.61 9.93,1.79 2.91,1.19 5.37,2.9 7.39,5.18 2.02,2.27 3.55,5.08 4.62,8.4 1.06,3.32 1.6,7.13 1.6,11.4l0 44.97 -12.4 0 0 -44.97c0,-5.52 -1.21,-9.73 -3.62,-12.58 -2.42,-2.86 -5.92,-4.3 -10.52,-4.3 -2.04,0 -3.97,0.37 -5.8,1.09 -1.83,0.72 -3.46,1.77 -4.85,3.16 -1.4,1.39 -2.49,3.16 -3.3,5.27 -0.81,2.11 -1.23,4.57 -1.23,7.36l0 44.97 -12.4 0 0 -44.97c0,-5.66 -1.13,-9.91 -3.41,-12.7 -2.27,-2.78 -5.59,-4.18 -9.96,-4.18 -3.06,0 -5.89,0.84 -8.52,2.49 -2.62,1.65 -5.03,3.9 -7.22,6.73l0 52.63 -12.39 0z"/>
   <path id="38" class="fil0" d="M643.07 1207.14l-5.5 0c-1.21,0 -2.19,-0.19 -2.93,-0.56 -0.74,-0.37 -1.23,-1.18 -1.46,-2.39l-1.4 -6.57c-1.85,1.67 -3.66,3.18 -5.43,4.5 -1.76,1.35 -3.62,2.46 -5.57,3.37 -1.95,0.9 -4.02,1.6 -6.22,2.07 -2.21,0.46 -4.67,0.69 -7.36,0.69 -2.74,0 -5.29,-0.39 -7.68,-1.16 -2.4,-0.77 -4.48,-1.93 -6.25,-3.46 -1.76,-1.53 -3.16,-3.48 -4.2,-5.85 -1.05,-2.34 -1.58,-5.13 -1.58,-8.35 0,-2.81 0.77,-5.51 2.3,-8.08 1.53,-2.6 4.02,-4.9 7.43,-6.92 3.41,-2 7.87,-3.65 13.39,-4.92 5.53,-1.28 12.28,-1.93 20.27,-1.93l0 -5.55c0,-5.5 -1.16,-9.68 -3.51,-12.49 -2.34,-2.83 -5.82,-4.25 -10.42,-4.25 -3.02,0 -5.55,0.37 -7.61,1.14 -2.07,0.77 -3.86,1.63 -5.37,2.58 -1.51,0.95 -2.81,1.81 -3.9,2.58 -1.09,0.76 -2.18,1.16 -3.25,1.16 -0.83,0 -1.55,-0.21 -2.18,-0.65 -0.63,-0.45 -1.14,-0.98 -1.51,-1.63l-2.23 -3.9c3.9,-3.78 8.11,-6.62 12.61,-8.5 4.5,-1.88 9.49,-2.81 14.97,-2.81 3.95,0 7.45,0.66 10.52,1.95 3.06,1.31 5.64,3.12 7.73,5.44 2.09,2.32 3.67,5.13 4.73,8.45 1.07,3.29 1.61,6.92 1.61,10.86l0 45.18zm-32.18 -7.66c2.18,0 4.18,-0.21 5.99,-0.65 1.81,-0.44 3.53,-1.05 5.13,-1.86 1.6,-0.79 3.14,-1.77 4.6,-2.93 1.46,-1.13 2.88,-2.43 4.27,-3.9l0 -14.62c-5.71,0 -10.56,0.37 -14.56,1.09 -3.99,0.72 -7.24,1.65 -9.75,2.83 -2.5,1.16 -4.31,2.53 -5.45,4.11 -1.14,1.58 -1.72,3.34 -1.72,5.32 0,1.85 0.3,3.46 0.91,4.8 0.6,1.35 1.41,2.46 2.43,3.32 1.02,0.86 2.23,1.49 3.62,1.88 1.4,0.4 2.91,0.61 4.53,0.61z"/>
   <path id="39" class="fil0" d="M709.99 1149.05c-0.37,0.52 -0.74,0.91 -1.11,1.19 -0.37,0.28 -0.91,0.42 -1.6,0.42 -0.7,0 -1.44,-0.28 -2.25,-0.86 -0.82,-0.58 -1.86,-1.23 -3.11,-1.93 -1.26,-0.7 -2.77,-1.32 -4.55,-1.9 -1.79,-0.58 -4,-0.88 -6.6,-0.88 -3.43,0 -6.47,0.62 -9.12,1.85 -2.65,1.23 -4.85,3 -6.64,5.32 -1.79,2.32 -3.13,5.13 -4.04,8.43 -0.9,3.29 -1.37,6.98 -1.37,11.07 0,4.27 0.49,8.05 1.46,11.37 0.98,3.32 2.35,6.11 4.11,8.36 1.77,2.25 3.93,3.97 6.46,5.15 2.53,1.19 5.36,1.79 8.52,1.79 3.01,0 5.5,-0.37 7.45,-1.09 1.95,-0.72 3.57,-1.51 4.87,-2.39 1.3,-0.88 2.37,-1.7 3.21,-2.41 0.83,-0.72 1.67,-1.07 2.5,-1.07 1.07,0 1.86,0.39 2.37,1.18l3.48 4.53c-3.06,3.78 -6.89,6.54 -11.49,8.31 -4.59,1.74 -9.45,2.62 -14.55,2.62 -4.41,0 -8.5,-0.81 -12.28,-2.44 -3.79,-1.62 -7.08,-3.99 -9.87,-7.08 -2.79,-3.08 -4.97,-6.89 -6.57,-11.39 -1.6,-4.51 -2.41,-9.64 -2.41,-15.42 0,-5.25 0.74,-10.1 2.2,-14.55 1.46,-4.46 3.6,-8.32 6.41,-11.54 2.81,-3.23 6.27,-5.76 10.4,-7.57 4.13,-1.81 8.87,-2.72 14.21,-2.72 4.92,0 9.28,0.82 13.09,2.42 3.81,1.6 7.17,3.85 10.1,6.78l-3.28 4.45z"/>
   <path id="40" class="fil0" d="M740.71 1136.52l0 70.62 -12.4 0 0 -70.62 12.4 0zm2.78 -22.15c0,1.21 -0.23,2.32 -0.72,3.37 -0.48,1.04 -1.13,1.97 -1.95,2.78 -0.81,0.82 -1.76,1.47 -2.83,1.93 -1.07,0.46 -2.2,0.7 -3.41,0.7 -1.21,0 -2.32,-0.24 -3.37,-0.7 -1.04,-0.46 -1.97,-1.11 -2.78,-1.93 -0.82,-0.81 -1.47,-1.74 -1.93,-2.78 -0.46,-1.05 -0.7,-2.16 -0.7,-3.37 0,-1.21 0.24,-2.37 0.7,-3.46 0.46,-1.09 1.11,-2.04 1.93,-2.85 0.81,-0.81 1.74,-1.44 2.78,-1.91 1.05,-0.46 2.16,-0.69 3.37,-0.69 1.21,0 2.34,0.23 3.41,0.69 1.07,0.47 2.02,1.1 2.83,1.91 0.82,0.81 1.47,1.76 1.95,2.85 0.49,1.09 0.72,2.25 0.72,3.46z"/>
   <path id="41" class="fil0" d="M791.13 1135.47c5.15,0 9.82,0.86 13.98,2.58 4.15,1.72 7.68,4.16 10.58,7.31 2.9,3.16 5.13,6.97 6.69,11.45 1.55,4.48 2.32,9.49 2.32,15.02 0,5.57 -0.77,10.58 -2.32,15.04 -1.56,4.46 -3.79,8.27 -6.69,11.42 -2.9,3.16 -6.43,5.57 -10.58,7.27 -4.16,1.69 -8.83,2.55 -13.98,2.55 -5.15,0 -9.8,-0.86 -13.95,-2.55 -4.16,-1.7 -7.71,-4.11 -10.63,-7.27 -2.93,-3.15 -5.18,-6.96 -6.76,-11.42 -1.58,-4.46 -2.37,-9.47 -2.37,-15.04 0,-5.53 0.79,-10.54 2.37,-15.02 1.58,-4.48 3.83,-8.29 6.76,-11.45 2.92,-3.15 6.47,-5.59 10.63,-7.31 4.15,-1.72 8.8,-2.58 13.95,-2.58zm0 62.96c6.97,0 12.16,-2.34 15.6,-7.01 3.44,-4.67 5.15,-11.19 5.15,-19.57 0,-8.4 -1.71,-14.95 -5.15,-19.66 -3.44,-4.69 -8.63,-7.04 -15.6,-7.04 -3.53,0 -6.59,0.61 -9.19,1.82 -2.6,1.2 -4.76,2.94 -6.5,5.22 -1.74,2.27 -3.04,5.08 -3.9,8.4 -0.86,3.32 -1.3,7.08 -1.3,11.26 0,4.18 0.44,7.94 1.3,11.24 0.86,3.29 2.16,6.08 3.9,8.33 1.74,2.25 3.9,3.97 6.5,5.2 2.6,1.21 5.66,1.81 9.19,1.81zm20.41 -92.28l-16.23 17.97c-0.65,0.7 -1.28,1.19 -1.9,1.49 -0.63,0.3 -1.44,0.46 -2.42,0.46l-7.38 0 10.31 -16.85c0.65,-1.07 1.37,-1.86 2.13,-2.35 0.77,-0.48 1.88,-0.72 3.37,-0.72l12.12 0z"/>
   <path id="42" class="fil0" d="M840.02 1207.14l0 -70.62 7.38 0c1.77,0 2.88,0.86 3.35,2.58l0.97 7.68c3.07,-3.41 6.5,-6.15 10.29,-8.24 3.78,-2.09 8.14,-3.14 13.11,-3.14 3.85,0 7.27,0.65 10.22,1.93 2.94,1.28 5.41,3.09 7.38,5.43 1.97,2.35 3.46,5.18 4.48,8.48 1.02,3.29 1.53,6.94 1.53,10.93l0 44.97 -12.4 0 0 -44.97c0,-5.34 -1.2,-9.49 -3.64,-12.44 -2.44,-2.95 -6.18,-4.44 -11.19,-4.44 -3.67,0 -7.08,0.89 -10.26,2.65 -3.18,1.76 -6.13,4.18 -8.82,7.2l0 52 -12.4 0z"/>
   <path id="43" class="fil0" d="M994.01 1207.14c-1.77,0 -2.88,-0.86 -3.35,-2.58l-1.11 -8.57c-3.02,3.67 -6.46,6.6 -10.33,8.8 -3.88,2.21 -8.34,3.32 -13.35,3.32 -4.04,0 -7.71,-0.79 -11.01,-2.34 -3.29,-1.56 -6.1,-3.83 -8.42,-6.85 -2.32,-3.04 -4.11,-6.8 -5.36,-11.31 -1.26,-4.5 -1.89,-9.68 -1.89,-15.55 0,-5.2 0.7,-10.03 2.09,-14.53 1.4,-4.48 3.42,-8.36 6.04,-11.68 2.62,-3.3 5.8,-5.87 9.56,-7.75 3.77,-1.88 8.04,-2.84 12.82,-2.84 4.32,0 8.01,0.75 11.07,2.21 3.07,1.46 5.81,3.51 8.22,6.15l0 -39.14 12.4 0 0 102.66 -7.38 0zm-24.03 -9.06c4.04,0 7.59,-0.93 10.63,-2.78 3.04,-1.86 5.83,-4.48 8.38,-7.87l0 -34.17c-2.28,-3.07 -4.76,-5.23 -7.47,-6.46 -2.72,-1.23 -5.74,-1.85 -9.04,-1.85 -6.59,0 -11.65,2.34 -15.18,7.05 -3.53,4.69 -5.29,11.38 -5.29,20.08 0,4.6 0.39,8.55 1.18,11.82 0.79,3.27 1.95,5.97 3.49,8.08 1.53,2.11 3.41,3.67 5.64,4.64 2.23,0.98 4.78,1.46 7.66,1.46z"/>
   <path id="44" class="fil0" d="M1050.14 1135.4c4.22,0 8.12,0.72 11.7,2.14 3.57,1.42 6.66,3.46 9.26,6.13 2.6,2.67 4.64,5.99 6.11,9.91 1.46,3.92 2.18,8.4 2.18,13.44 0,1.95 -0.21,3.25 -0.63,3.9 -0.42,0.65 -1.21,0.98 -2.37,0.98l-46.94 0c0.1,4.46 0.7,8.35 1.81,11.65 1.12,3.32 2.65,6.06 4.6,8.29 1.95,2.2 4.27,3.85 6.96,4.94 2.7,1.09 5.72,1.65 9.06,1.65 3.11,0 5.8,-0.37 8.05,-1.09 2.26,-0.72 4.18,-1.51 5.81,-2.34 1.62,-0.84 2.99,-1.61 4.08,-2.33 1.09,-0.74 2.02,-1.09 2.81,-1.09 1.02,0 1.81,0.4 2.37,1.19l3.48 4.55c-1.53,1.83 -3.36,3.43 -5.5,4.8 -2.13,1.37 -4.41,2.49 -6.85,3.37 -2.43,0.86 -4.97,1.53 -7.57,1.97 -2.6,0.44 -5.17,0.65 -7.73,0.65 -4.87,0 -9.35,-0.83 -13.46,-2.48 -4.11,-1.65 -7.66,-4.06 -10.66,-7.24 -2.99,-3.19 -5.34,-7.13 -7.01,-11.82 -1.67,-4.69 -2.5,-10.08 -2.5,-16.18 0,-4.92 0.76,-9.52 2.27,-13.79 1.51,-4.27 3.67,-7.99 6.5,-11.12 2.83,-3.13 6.29,-5.6 10.38,-7.38 4.08,-1.79 8.68,-2.7 13.79,-2.7zm0.28 9.2c-5.99,0 -10.71,1.71 -14.14,5.17 -3.44,3.44 -5.57,8.22 -6.41,14.33l38.38 0c0,-2.88 -0.4,-5.5 -1.19,-7.87 -0.79,-2.39 -1.95,-4.46 -3.48,-6.18 -1.53,-1.74 -3.39,-3.08 -5.6,-4.04 -2.2,-0.95 -4.73,-1.41 -7.56,-1.41z"/>
   <polygon id="45" class="fil0" points="1108.99,1104.48 1108.99,1207.14 1096.59,1207.14 1096.59,1104.48 "/>
   <polygon id="46" class="fil0" points="1240.62,1207.14 1227.03,1207.14 1227.03,1161.73 1173.27,1161.73 1173.27,1207.14 1159.69,1207.14 1159.69,1107.27 1173.27,1107.27 1173.27,1151.84 1227.03,1151.84 1227.03,1107.27 1240.62,1107.27 "/>
   <path id="47" class="fil0" d="M1303.78 1196.41c4.13,0 7.83,-0.69 11.08,-2.09 3.25,-1.39 6.01,-3.34 8.26,-5.85 2.25,-2.5 3.97,-5.5 5.15,-8.98 1.19,-3.48 1.77,-7.31 1.77,-11.49l0 -60.66 13.44 0 0 60.7c0,5.76 -0.91,11.1 -2.74,16.02 -1.83,4.92 -4.46,9.19 -7.87,12.79 -3.41,3.6 -7.59,6.43 -12.51,8.48 -4.92,2.04 -10.45,3.06 -16.58,3.06 -6.13,0 -11.65,-1.02 -16.57,-3.06 -4.92,-2.05 -9.1,-4.88 -12.54,-8.48 -3.43,-3.6 -6.06,-7.87 -7.89,-12.79 -1.84,-4.92 -2.76,-10.26 -2.76,-16.02l0 -60.7 13.44 0 0 60.59c0,4.18 0.6,8.01 1.78,11.49 1.19,3.48 2.91,6.48 5.16,8.98 2.25,2.51 5.01,4.46 8.29,5.88 3.27,1.41 6.96,2.13 11.09,2.13z"/>
   <path id="48" class="fil0" d="M1437.01 1186.45c0.74,0 1.42,0.3 2.02,0.91l5.29 5.82c-4.08,4.74 -9.03,8.46 -14.85,11.1 -5.83,2.65 -12.86,3.97 -21.08,3.97 -7.2,0 -13.72,-1.25 -19.57,-3.74 -5.85,-2.48 -10.84,-5.96 -14.98,-10.44 -4.13,-4.48 -7.33,-9.87 -9.61,-16.14 -2.27,-6.26 -3.41,-13.16 -3.41,-20.7 0,-7.53 1.23,-14.42 3.67,-20.69 2.44,-6.27 5.85,-11.65 10.26,-16.18 4.41,-4.5 9.7,-7.98 15.86,-10.47 6.15,-2.48 12.93,-3.74 20.36,-3.74 7.33,0 13.67,1.14 18.98,3.44 5.32,2.3 10.03,5.41 14.17,9.35l-4.39 6.11c-0.33,0.46 -0.7,0.84 -1.12,1.14 -0.41,0.28 -1.02,0.44 -1.81,0.44 -0.6,0 -1.23,-0.23 -1.9,-0.67 -0.67,-0.45 -1.49,-0.98 -2.42,-1.63 -0.92,-0.65 -2.02,-1.35 -3.27,-2.09 -1.25,-0.74 -2.74,-1.44 -4.46,-2.09 -1.71,-0.65 -3.71,-1.21 -5.99,-1.65 -2.27,-0.44 -4.89,-0.65 -7.86,-0.65 -5.34,0 -10.22,0.91 -14.65,2.74 -4.44,1.84 -8.27,4.46 -11.47,7.85 -3.21,3.39 -5.69,7.52 -7.48,12.4 -1.78,4.87 -2.69,10.33 -2.69,16.36 0,6.22 0.91,11.77 2.69,16.65 1.79,4.87 4.23,8.98 7.32,12.35 3.08,3.36 6.73,5.94 10.95,7.71 4.23,1.76 8.78,2.64 13.65,2.64 2.97,0 5.64,-0.18 8.01,-0.53 2.37,-0.35 4.58,-0.88 6.6,-1.63 2.01,-0.74 3.9,-1.69 5.64,-2.83 1.74,-1.14 3.48,-2.48 5.24,-4.06 0.79,-0.7 1.56,-1.05 2.3,-1.05z"/>
   <path id="49" class="fil0" d="M1544.19 1207.14l-10.44 0c-1.21,0 -2.19,-0.3 -2.93,-0.91 -0.74,-0.6 -1.3,-1.37 -1.67,-2.3l-9.33 -24.09 -44.78 0 -9.34 24.09c-0.32,0.84 -0.88,1.58 -1.67,2.23 -0.79,0.65 -1.76,0.98 -2.92,0.98l-10.45 0 39.91 -99.87 13.72 0 39.9 99.87zm-65.39 -36.98l37.26 0 -15.67 -40.65c-1.02,-2.51 -2.02,-5.64 -3,-9.4 -0.51,1.9 -1,3.64 -1.48,5.24 -0.49,1.6 -0.98,3.02 -1.44,4.23l-15.67 40.58z"/>
  </g>
 </g>
</svg>
