<?xml version="1.0" encoding="UTF-8"?>
<!DOCTYPE svg PUBLIC "-//W3C//DTD SVG 1.1//EN" "http://www.w3.org/Graphics/SVG/1.1/DTD/svg11.dtd">
<!-- Creator: CorelDRAW 2019 (64-Bit) -->
<svg xmlns="http://www.w3.org/2000/svg" xml:space="preserve" width="2577px" height="1020px" version="1.1" style="shape-rendering:geometricPrecision; text-rendering:geometricPrecision; image-rendering:optimizeQuality; fill-rule:evenodd; clip-rule:evenodd"
viewBox="0 0 2575.63 1019.16"
 xmlns:xlink="http://www.w3.org/1999/xlink"
 xmlns:xodm="http://www.corel.com/coreldraw/odm/2003">
 <defs>
  <style type="text/css">
   <![CDATA[
    .fil3 {fill:#A2D9CE}
    .fil2 {fill:white}
    .fil1 {fill:#A2D9CE;fill-rule:nonzero}
    .fil0 {fill:white;fill-rule:nonzero}
   ]]>
  </style>
 </defs>
 <g id="Capa_x0020_1">
  <metadata id="CorelCorpID_0Corel-Layer"/>
  <g id="_2203659302176">
   <path class="fil0" d="M720.04 924.87l-8.83 72.19c-0.36,3.03 -1.11,5.89 -2.26,8.56 -1.16,2.67 -2.7,5.02 -4.62,7.04 -1.93,2.02 -4.26,3.6 -7,4.76 -2.74,1.15 -5.91,1.74 -9.49,1.74 -1.77,0 -3.28,-0.11 -4.57,-0.32 -1.29,-0.2 -2.58,-0.52 -3.85,-0.97l1.63 -9.08c0.27,-0.93 0.7,-1.5 1.29,-1.75 0.59,-0.24 1.65,-0.38 3.19,-0.38 1.54,0 2.86,-0.18 3.92,-0.52 1.06,-0.34 1.95,-0.88 2.67,-1.63 0.73,-0.75 1.29,-1.72 1.7,-2.95 0.41,-1.22 0.72,-2.73 0.95,-4.55l8.83 -72.14 16.44 0zm3.67 -20.36c0,1.47 -0.3,2.83 -0.91,4.1 -0.61,1.27 -1.4,2.38 -2.37,3.35 -0.98,0.95 -2.11,1.7 -3.38,2.27 -1.27,0.56 -2.58,0.86 -3.94,0.86 -1.31,0 -2.58,-0.3 -3.83,-0.86 -1.24,-0.57 -2.35,-1.32 -3.3,-2.27 -0.95,-0.97 -1.7,-2.08 -2.27,-3.35 -0.56,-1.27 -0.86,-2.63 -0.86,-4.1 0,-1.45 0.3,-2.83 0.89,-4.14 0.59,-1.31 1.36,-2.47 2.31,-3.44 0.95,-0.98 2.06,-1.75 3.3,-2.31 1.25,-0.57 2.52,-0.86 3.83,-0.86 1.36,0 2.67,0.29 3.94,0.86 1.27,0.56 2.4,1.31 3.37,2.26 0.98,0.97 1.75,2.11 2.34,3.42 0.58,1.31 0.88,2.72 0.88,4.21z"/>
   <path id="1" class="fil0" d="M755.25 925c-0.91,7.66 -1.67,14.16 -2.31,19.46 -0.63,5.3 -1.15,9.73 -1.56,13.27 -0.41,3.53 -0.73,6.31 -0.95,8.35 -0.23,2.04 -0.39,3.58 -0.5,4.62 -0.11,1.04 -0.18,1.77 -0.2,2.13 -0.03,0.36 -0.05,0.66 -0.05,0.88 0,2.99 0.57,5.12 1.68,6.41 1.11,1.29 2.78,1.95 5.05,1.95 1.76,0 3.6,-0.5 5.48,-1.47 1.88,-0.98 3.69,-2.36 5.43,-4.17 1.74,-1.81 3.35,-4.03 4.85,-6.61 1.49,-2.58 2.76,-5.46 3.8,-8.63l4.35 -36.19 16.78 0 -8.43 69.7 -8.49 0c-0.77,0 -1.49,-0.09 -2.2,-0.29 -0.7,-0.2 -1.33,-0.52 -1.9,-0.93 -0.56,-0.41 -1.02,-0.93 -1.35,-1.54 -0.34,-0.63 -0.53,-1.38 -0.53,-2.24l0 -0.27 0.41 -8.45c-3.53,4.98 -7.38,8.7 -11.57,11.14 -4.19,2.45 -8.54,3.67 -13.02,3.67 -2.58,0 -4.91,-0.47 -7.02,-1.4 -2.11,-0.93 -3.92,-2.27 -5.41,-4.03 -1.5,-1.77 -2.65,-3.97 -3.47,-6.57 -0.81,-2.6 -1.22,-5.59 -1.22,-8.94 0,-0.91 0.02,-1.82 0.07,-2.72 0.04,-0.91 0.14,-1.86 0.27,-2.86l5.23 -44.27 16.78 0z"/>
   <path id="2" class="fil0" d="M807.04 994.7l8.35 -69.83 8.56 0c1.77,0 3.15,0.45 4.12,1.36 0.98,0.93 1.45,2.38 1.45,4.41l-0.47 9.58c3.53,-5.48 7.45,-9.58 11.75,-12.27 4.3,-2.7 8.74,-4.03 13.31,-4.03 2.59,0 4.94,0.45 7.05,1.38 2.1,0.93 3.89,2.29 5.39,4.08 1.49,1.78 2.64,3.98 3.46,6.58 0.82,2.61 1.22,5.62 1.22,9.02 0,0.86 -0.02,1.72 -0.09,2.6 -0.07,0.88 -0.16,1.81 -0.25,2.76l-5.23 44.36 -16.78 0c0.91,-7.65 1.68,-14.15 2.31,-19.47 0.64,-5.32 1.16,-9.74 1.56,-13.27 0.41,-3.53 0.73,-6.32 0.96,-8.33 0.22,-2.02 0.4,-3.54 0.52,-4.58 0.11,-1.04 0.18,-1.74 0.2,-2.08 0.02,-0.34 0.02,-0.61 0.02,-0.84 0,-2.99 -0.54,-5.16 -1.63,-6.5 -1.08,-1.33 -2.78,-1.99 -5.09,-1.99 -1.86,0 -3.78,0.54 -5.78,1.63 -1.99,1.09 -3.89,2.63 -5.7,4.62 -1.81,1.99 -3.47,4.39 -4.96,7.2 -1.5,2.81 -2.72,5.93 -3.67,9.38l-3.8 34.23 -16.78 0z"/>
   <path id="3" class="fil0" d="M889.66 980.48c0,-0.31 0,-0.68 0,-1.11 0,-0.43 0.05,-1.06 0.12,-1.9 0.07,-0.86 0.18,-1.97 0.34,-3.35 0.16,-1.38 0.36,-3.15 0.63,-5.32l3.87 -31.29 -6.59 0c-0.77,0 -1.38,-0.25 -1.85,-0.73 -0.48,-0.48 -0.73,-1.18 -0.73,-2.13 0,-0.04 0.02,-0.13 0.05,-0.27 0.02,-0.14 0.04,-0.45 0.09,-0.93 0.04,-0.47 0.13,-1.18 0.25,-2.13 0.11,-0.95 0.25,-2.28 0.43,-4l10.59 -1.84 5.57 -19.02c0.28,-0.91 0.75,-1.61 1.41,-2.11 0.66,-0.49 1.45,-0.74 2.4,-0.74l8.97 0 -2.72 21.94 16.85 0 -1.43 11.96 -16.92 0 -3.73 30.36c-0.23,1.86 -0.39,3.33 -0.5,4.42 -0.11,1.08 -0.2,1.92 -0.27,2.53 -0.07,0.61 -0.11,1.04 -0.14,1.29 -0.02,0.25 -0.04,0.43 -0.04,0.52 0,1.72 0.43,3.08 1.26,4.08 0.84,1 2.02,1.49 3.56,1.49 0.95,0 1.77,-0.13 2.45,-0.38 0.67,-0.25 1.26,-0.5 1.76,-0.77 0.5,-0.27 0.95,-0.54 1.34,-0.79 0.38,-0.25 0.74,-0.37 1.11,-0.37 0.5,0 0.9,0.14 1.2,0.39 0.29,0.25 0.54,0.61 0.77,1.11l3.6 8.22c-2.49,2.04 -5.26,3.58 -8.29,4.62 -3.03,1.04 -6.09,1.56 -9.17,1.56 -4.94,0 -8.83,-1.34 -11.71,-4.01 -2.87,-2.67 -4.39,-6.45 -4.53,-11.3z"/>
   <path id="4" class="fil0" d="M1000.21 982.2c-2.85,0 -5.3,-0.7 -7.34,-2.12 -2.03,-1.41 -3.3,-3.72 -3.8,-6.91 -2.85,3.26 -5.75,5.57 -8.69,6.95 -2.95,1.38 -6.03,2.08 -9.24,2.08 -2.31,0 -4.31,-0.4 -5.98,-1.22 -1.68,-0.81 -3.08,-1.95 -4.21,-3.4 -1.14,-1.44 -1.97,-3.17 -2.52,-5.14 -0.54,-1.97 -0.81,-4.09 -0.81,-6.36 0,-2.76 0.36,-5.59 1.08,-8.47 0.73,-2.87 1.82,-5.68 3.24,-8.4 1.43,-2.72 3.2,-5.27 5.3,-7.65 2.11,-2.38 4.53,-4.46 7.29,-6.25 2.76,-1.79 5.87,-3.22 9.29,-4.26 3.42,-1.04 7.13,-1.56 11.16,-1.56 1.68,0 3.19,0.07 4.55,0.2 1.36,0.16 2.63,0.34 3.81,0.61 1.17,0.25 2.28,0.57 3.32,0.95 1.05,0.37 2.09,0.82 3.13,1.34l-9.17 25.07c-0.77,2.01 -1.29,3.8 -1.56,5.32 -0.28,1.49 -0.41,2.81 -0.41,3.89 0,2.02 0.47,3.42 1.43,4.17 0.95,0.75 2.17,1.11 3.66,1.11 2.04,0 3.99,-0.77 5.85,-2.31 1.85,-1.54 3.51,-3.67 4.93,-6.39 1.43,-2.71 2.56,-5.93 3.42,-9.64 0.86,-3.72 1.29,-7.75 1.29,-12.09 0,-4.89 -0.68,-9.24 -2.06,-13.02 -1.38,-3.79 -3.35,-6.96 -5.91,-9.51 -2.56,-2.56 -5.66,-4.49 -9.31,-5.8 -3.64,-1.31 -7.72,-1.97 -12.2,-1.97 -3.99,0 -7.81,0.59 -11.5,1.77 -3.7,1.17 -7.14,2.85 -10.31,5.02 -3.17,2.18 -6.04,4.78 -8.65,7.84 -2.6,3.05 -4.84,6.5 -6.7,10.3 -1.86,3.8 -3.28,7.9 -4.3,12.32 -1.02,4.41 -1.54,9.08 -1.54,13.97 0,6.16 0.86,11.59 2.56,16.3 1.7,4.71 4.07,8.65 7.15,11.85 3.08,3.19 6.77,5.61 11.08,7.27 4.3,1.65 9.05,2.49 14.26,2.49 3.22,0 6.23,-0.19 9.01,-0.55 2.79,-0.36 5.32,-0.86 7.61,-1.47 2.29,-0.61 4.33,-1.29 6.12,-2.06 1.78,-0.77 3.32,-1.54 4.64,-2.31 0.63,-0.36 1.22,-0.61 1.76,-0.75 0.55,-0.13 1.05,-0.2 1.5,-0.2 0.95,0 1.67,0.27 2.17,0.81 0.5,0.55 0.86,1.23 1.09,2l1.22 4.66c-4.71,3.08 -10.07,5.59 -16.1,7.54 -6.02,1.95 -12.77,2.92 -20.24,2.92 -6.88,0 -13.11,-1.13 -18.71,-3.37 -5.59,-2.24 -10.39,-5.44 -14.37,-9.58 -3.99,-4.14 -7.07,-9.17 -9.24,-15.06 -2.18,-5.88 -3.26,-12.5 -3.26,-19.83 0,-5.66 0.68,-11.14 2.03,-16.42 1.36,-5.28 3.27,-10.24 5.71,-14.86 2.45,-4.61 5.39,-8.83 8.83,-12.61 3.44,-3.78 7.25,-7.04 11.39,-9.76 4.14,-2.72 8.58,-4.82 13.34,-6.31 4.75,-1.5 9.67,-2.25 14.74,-2.25 5.48,0 10.62,0.93 15.42,2.81 4.8,1.88 9.01,4.57 12.61,8.08 3.6,3.51 6.43,7.79 8.52,12.82 2.08,5.03 3.12,10.67 3.12,16.92 0,5.7 -0.79,11 -2.4,15.92 -1.61,4.91 -3.8,9.19 -6.56,12.83 -2.77,3.65 -5.98,6.53 -9.67,8.61 -3.69,2.08 -7.66,3.12 -11.87,3.12zm-24.52 -10.46c1.04,0 2.1,-0.2 3.19,-0.59 1.09,-0.38 2.17,-1.04 3.24,-1.99 1.06,-0.95 2.08,-2.24 3.08,-3.85 0.99,-1.61 1.95,-3.6 2.85,-6l7 -19.31c-1.22,-0.3 -2.54,-0.46 -3.94,-0.46 -2.72,0 -5.32,0.7 -7.84,2.11 -2.51,1.4 -4.73,3.26 -6.65,5.59 -1.93,2.31 -3.47,4.96 -4.62,7.93 -1.16,2.96 -1.75,6.02 -1.75,9.15 0,2.33 0.46,4.14 1.36,5.45 0.91,1.32 2.27,1.97 4.08,1.97z"/>
   <path id="5" class="fil0" d="M1084.94 938.05c-0.49,0.72 -0.97,1.24 -1.42,1.54 -0.46,0.29 -1.04,0.43 -1.77,0.43 -0.77,0 -1.56,-0.23 -2.38,-0.68 -0.81,-0.45 -1.74,-0.95 -2.8,-1.52 -1.07,-0.56 -2.29,-1.09 -3.67,-1.54 -1.38,-0.45 -3.06,-0.68 -5.01,-0.68 -3.58,0 -6.32,0.82 -8.22,2.43 -1.9,1.6 -2.85,3.6 -2.85,6 0,1.4 0.41,2.6 1.2,3.57 0.79,0.98 1.81,1.84 3.08,2.56 1.27,0.73 2.72,1.38 4.35,2 1.63,0.61 3.3,1.26 5.02,1.97 1.73,0.7 3.4,1.49 5.03,2.4 1.63,0.88 3.08,1.94 4.35,3.21 1.27,1.27 2.31,2.81 3.1,4.6 0.79,1.79 1.18,3.94 1.18,6.43 0,3.35 -0.66,6.54 -1.99,9.58 -1.34,3.03 -3.26,5.7 -5.76,7.99 -2.49,2.29 -5.5,4.1 -9.03,5.44 -3.53,1.33 -7.47,2.01 -11.82,2.01 -2.22,0 -4.35,-0.2 -6.41,-0.63 -2.06,-0.43 -4.01,-1.02 -5.82,-1.77 -1.81,-0.77 -3.44,-1.65 -4.91,-2.69 -1.47,-1.02 -2.74,-2.13 -3.78,-3.33l4.07 -6.5c0.5,-0.77 1.11,-1.38 1.81,-1.79 0.71,-0.41 1.52,-0.61 2.47,-0.61 0.95,0 1.81,0.29 2.58,0.88 0.77,0.59 1.68,1.22 2.72,1.93 1.04,0.7 2.31,1.35 3.78,1.94 1.47,0.59 3.35,0.89 5.66,0.89 1.86,0 3.51,-0.25 4.94,-0.75 1.43,-0.5 2.63,-1.18 3.6,-2.04 0.97,-0.86 1.7,-1.86 2.2,-3.01 0.49,-1.13 0.74,-2.33 0.74,-3.6 0,-1.54 -0.38,-2.83 -1.15,-3.85 -0.77,-1.02 -1.79,-1.9 -3.08,-2.65 -1.29,-0.75 -2.76,-1.4 -4.39,-1.97 -1.63,-0.57 -3.29,-1.18 -4.99,-1.81 -1.69,-0.64 -3.35,-1.36 -4.95,-2.18 -1.61,-0.81 -3.06,-1.85 -4.35,-3.1 -1.29,-1.24 -2.33,-2.76 -3.1,-4.55 -0.77,-1.81 -1.16,-3.98 -1.16,-6.59 0,-3.08 0.59,-6.09 1.77,-9.01 1.17,-2.92 2.92,-5.53 5.21,-7.77 2.28,-2.24 5.09,-4.05 8.42,-5.41 3.33,-1.36 7.13,-2.04 11.43,-2.04 4.44,0 8.38,0.77 11.8,2.29 3.42,1.54 6.3,3.49 8.65,5.86l-4.35 6.12z"/>
   <path id="6" class="fil0" d="M1167.5 938.05c-0.49,0.72 -0.97,1.24 -1.42,1.54 -0.46,0.29 -1.05,0.43 -1.77,0.43 -0.77,0 -1.56,-0.23 -2.38,-0.68 -0.81,-0.45 -1.74,-0.95 -2.81,-1.52 -1.06,-0.56 -2.28,-1.09 -3.66,-1.54 -1.38,-0.45 -3.06,-0.68 -5.01,-0.68 -3.58,0 -6.32,0.82 -8.22,2.43 -1.9,1.6 -2.85,3.6 -2.85,6 0,1.4 0.41,2.6 1.2,3.57 0.79,0.98 1.81,1.84 3.08,2.56 1.27,0.73 2.72,1.38 4.35,2 1.63,0.61 3.3,1.26 5.02,1.97 1.73,0.7 3.4,1.49 5.03,2.4 1.63,0.88 3.08,1.94 4.35,3.21 1.27,1.27 2.31,2.81 3.1,4.6 0.79,1.79 1.18,3.94 1.18,6.43 0,3.35 -0.66,6.54 -2,9.58 -1.33,3.03 -3.25,5.7 -5.75,7.99 -2.49,2.29 -5.5,4.1 -9.03,5.44 -3.53,1.33 -7.47,2.01 -11.82,2.01 -2.22,0 -4.35,-0.2 -6.41,-0.63 -2.06,-0.43 -4.01,-1.02 -5.82,-1.77 -1.81,-0.77 -3.44,-1.65 -4.91,-2.69 -1.47,-1.02 -2.74,-2.13 -3.78,-3.33l4.07 -6.5c0.5,-0.77 1.11,-1.38 1.81,-1.79 0.71,-0.41 1.52,-0.61 2.47,-0.61 0.95,0 1.81,0.29 2.58,0.88 0.77,0.59 1.68,1.22 2.72,1.93 1.04,0.7 2.31,1.35 3.78,1.94 1.47,0.59 3.35,0.89 5.66,0.89 1.86,0 3.51,-0.25 4.94,-0.75 1.43,-0.5 2.63,-1.18 3.6,-2.04 0.97,-0.86 1.7,-1.86 2.2,-3.01 0.49,-1.13 0.74,-2.33 0.74,-3.6 0,-1.54 -0.38,-2.83 -1.15,-3.85 -0.77,-1.02 -1.79,-1.9 -3.08,-2.65 -1.29,-0.75 -2.76,-1.4 -4.39,-1.97 -1.64,-0.57 -3.29,-1.18 -4.99,-1.81 -1.69,-0.64 -3.35,-1.36 -4.95,-2.18 -1.61,-0.81 -3.06,-1.85 -4.35,-3.1 -1.29,-1.24 -2.33,-2.76 -3.1,-4.55 -0.78,-1.81 -1.16,-3.98 -1.16,-6.59 0,-3.08 0.59,-6.09 1.77,-9.01 1.17,-2.92 2.92,-5.53 5.21,-7.77 2.28,-2.24 5.09,-4.05 8.42,-5.41 3.33,-1.36 7.13,-2.04 11.43,-2.04 4.44,0 8.38,0.77 11.8,2.29 3.42,1.54 6.3,3.49 8.65,5.86l-4.35 6.12z"/>
   <path id="7" class="fil0" d="M1205.3 982.95c2.8,0 5.34,-0.81 7.6,-2.42 2.27,-1.61 4.22,-3.78 5.82,-6.48 1.61,-2.69 2.83,-5.84 3.69,-9.42 0.86,-3.6 1.3,-7.36 1.3,-11.32 0,-5.66 -0.96,-9.85 -2.88,-12.52 -1.92,-2.67 -4.85,-4.03 -8.74,-4.03 -2.81,0 -5.35,0.81 -7.61,2.4 -2.26,1.58 -4.19,3.73 -5.77,6.45 -1.59,2.74 -2.81,5.89 -3.67,9.47 -0.86,3.6 -1.29,7.38 -1.29,11.39 0,5.66 0.95,9.82 2.85,12.5 1.9,2.64 4.8,3.98 8.7,3.98zm-1.5 12.84c-3.85,0 -7.4,-0.66 -10.69,-1.95 -3.28,-1.29 -6.11,-3.17 -8.49,-5.66 -2.38,-2.49 -4.26,-5.57 -5.61,-9.19 -1.36,-3.62 -2.04,-7.77 -2.04,-12.43 0,-6.03 0.97,-11.67 2.9,-16.87 1.92,-5.21 4.55,-9.72 7.88,-13.52 3.33,-3.83 7.2,-6.82 11.64,-8.99 4.43,-2.18 9.17,-3.26 14.19,-3.26 3.85,0 7.43,0.65 10.71,1.95 3.29,1.29 6.12,3.17 8.52,5.66 2.4,2.49 4.28,5.57 5.64,9.19 1.35,3.62 2.03,7.77 2.03,12.43 0,5.98 -0.97,11.57 -2.92,16.76 -1.94,5.21 -4.57,9.71 -7.9,13.54 -3.33,3.83 -7.22,6.84 -11.66,9.03 -4.44,2.2 -9.17,3.31 -14.2,3.31z"/>
   <path id="8" class="fil0" d="M1249.88 994.7l8.49 -69.83 8.49 0c1.72,0 3.08,0.43 4.08,1.31 1,0.86 1.49,2.24 1.49,4.12 0,0.07 0,0.14 0,0.23 0,0.09 0,0.43 -0.02,0.97 -0.02,0.57 -0.07,1.41 -0.11,2.56 -0.05,1.13 -0.12,2.74 -0.21,4.83 3.13,-5.05 6.53,-8.79 10.19,-11.26 3.67,-2.47 7.5,-3.71 11.48,-3.71 4.31,0 7.7,1.49 10.17,4.48 2.47,2.99 3.9,7.32 4.3,12.95 3.26,-5.97 6.89,-10.37 10.85,-13.2 3.96,-2.83 8.27,-4.23 12.93,-4.23 5.21,0 9.24,1.74 12.07,5.25 2.83,3.51 4.23,8.58 4.23,15.2 0,0.9 -0.02,1.85 -0.06,2.87 -0.05,1.02 -0.14,2.06 -0.28,3.1l-5.23 44.36 -16.57 0c0.9,-7.7 1.67,-14.24 2.31,-19.61 0.63,-5.36 1.15,-9.85 1.56,-13.45 0.41,-3.6 0.72,-6.41 0.95,-8.44 0.23,-2.04 0.41,-3.63 0.52,-4.74 0.12,-1.1 0.18,-1.85 0.21,-2.24 0.02,-0.38 0.02,-0.68 0.02,-0.9 0,-2.72 -0.45,-4.69 -1.36,-5.89 -0.91,-1.2 -2.38,-1.79 -4.42,-1.79 -1.72,0 -3.39,0.45 -5.02,1.36 -1.63,0.91 -3.17,2.22 -4.65,3.94 -1.47,1.72 -2.83,3.83 -4.07,6.32 -1.25,2.49 -2.36,5.3 -3.31,8.42l-4.35 37.02 -16.5 0 5.23 -44.36c0.09,-0.95 0.18,-1.85 0.25,-2.69 0.07,-0.84 0.09,-1.61 0.09,-2.33 0,-2.72 -0.43,-4.69 -1.32,-5.89 -0.88,-1.2 -2.35,-1.79 -4.39,-1.79 -1.76,0 -3.48,0.48 -5.16,1.43 -1.68,0.95 -3.24,2.31 -4.71,4.1 -1.47,1.79 -2.83,3.96 -4.08,6.52 -1.24,2.56 -2.35,5.43 -3.3,8.6l-4.35 36.41 -16.44 0z"/>
   <path id="9" class="fil0" d="M1388.01 982.95c2.81,0 5.34,-0.81 7.61,-2.42 2.26,-1.61 4.21,-3.78 5.81,-6.48 1.61,-2.69 2.84,-5.84 3.7,-9.42 0.86,-3.6 1.29,-7.36 1.29,-11.32 0,-5.66 -0.95,-9.85 -2.88,-12.52 -1.92,-2.67 -4.85,-4.03 -8.74,-4.03 -2.81,0 -5.34,0.81 -7.61,2.4 -2.26,1.58 -4.19,3.73 -5.77,6.45 -1.59,2.74 -2.81,5.89 -3.67,9.47 -0.86,3.6 -1.29,7.38 -1.29,11.39 0,5.66 0.95,9.82 2.85,12.5 1.9,2.64 4.8,3.98 8.7,3.98zm-1.5 12.84c-3.85,0 -7.4,-0.66 -10.69,-1.95 -3.28,-1.29 -6.11,-3.17 -8.49,-5.66 -2.37,-2.49 -4.25,-5.57 -5.61,-9.19 -1.36,-3.62 -2.04,-7.77 -2.04,-12.43 0,-6.03 0.97,-11.67 2.9,-16.87 1.92,-5.21 4.55,-9.72 7.88,-13.52 3.33,-3.83 7.2,-6.82 11.64,-8.99 4.44,-2.18 9.17,-3.26 14.19,-3.26 3.85,0 7.43,0.65 10.72,1.95 3.28,1.29 6.11,3.17 8.51,5.66 2.4,2.49 4.28,5.57 5.64,9.19 1.36,3.62 2.04,7.77 2.04,12.43 0,5.98 -0.98,11.57 -2.93,16.76 -1.94,5.21 -4.57,9.71 -7.9,13.54 -3.33,3.83 -7.22,6.84 -11.66,9.03 -4.44,2.2 -9.17,3.31 -14.2,3.31z"/>
   <path id="10" class="fil0" d="M1478.85 938.05c-0.49,0.72 -0.97,1.24 -1.42,1.54 -0.46,0.29 -1.04,0.43 -1.77,0.43 -0.77,0 -1.56,-0.23 -2.38,-0.68 -0.81,-0.45 -1.74,-0.95 -2.81,-1.52 -1.06,-0.56 -2.28,-1.09 -3.66,-1.54 -1.38,-0.45 -3.06,-0.68 -5.01,-0.68 -3.58,0 -6.32,0.82 -8.22,2.43 -1.9,1.6 -2.85,3.6 -2.85,6 0,1.4 0.41,2.6 1.2,3.57 0.79,0.98 1.81,1.84 3.08,2.56 1.27,0.73 2.72,1.38 4.35,2 1.63,0.61 3.3,1.26 5.02,1.97 1.73,0.7 3.4,1.49 5.03,2.4 1.63,0.88 3.08,1.94 4.35,3.21 1.27,1.27 2.31,2.81 3.1,4.6 0.79,1.79 1.18,3.94 1.18,6.43 0,3.35 -0.66,6.54 -1.99,9.58 -1.34,3.03 -3.26,5.7 -5.76,7.99 -2.49,2.29 -5.5,4.1 -9.03,5.44 -3.53,1.33 -7.47,2.01 -11.82,2.01 -2.22,0 -4.35,-0.2 -6.41,-0.63 -2.06,-0.43 -4.01,-1.02 -5.82,-1.77 -1.81,-0.77 -3.44,-1.65 -4.91,-2.69 -1.47,-1.02 -2.74,-2.13 -3.78,-3.33l4.07 -6.5c0.5,-0.77 1.11,-1.38 1.81,-1.79 0.71,-0.41 1.52,-0.61 2.47,-0.61 0.95,0 1.81,0.29 2.58,0.88 0.77,0.59 1.68,1.22 2.72,1.93 1.04,0.7 2.31,1.35 3.78,1.94 1.47,0.59 3.35,0.89 5.66,0.89 1.86,0 3.51,-0.25 4.94,-0.75 1.43,-0.5 2.63,-1.18 3.6,-2.04 0.97,-0.86 1.7,-1.86 2.2,-3.01 0.49,-1.13 0.74,-2.33 0.74,-3.6 0,-1.54 -0.38,-2.83 -1.15,-3.85 -0.77,-1.02 -1.79,-1.9 -3.08,-2.65 -1.29,-0.75 -2.76,-1.4 -4.39,-1.97 -1.63,-0.57 -3.29,-1.18 -4.99,-1.81 -1.69,-0.64 -3.35,-1.36 -4.95,-2.18 -1.61,-0.81 -3.06,-1.85 -4.35,-3.1 -1.29,-1.24 -2.33,-2.76 -3.1,-4.55 -0.78,-1.81 -1.16,-3.98 -1.16,-6.59 0,-3.08 0.59,-6.09 1.77,-9.01 1.17,-2.92 2.92,-5.53 5.21,-7.77 2.28,-2.24 5.09,-4.05 8.42,-5.41 3.33,-1.36 7.13,-2.04 11.43,-2.04 4.44,0 8.38,0.77 11.8,2.29 3.42,1.54 6.3,3.49 8.65,5.86l-4.35 6.12z"/>
   <path id="11" class="fil0" d="M1515.15 994.7l8.49 -69.83 8.49 0c1.73,0 3.08,0.43 4.08,1.31 1,0.86 1.5,2.24 1.5,4.12 0,0.07 0,0.14 0,0.23 0,0.09 0,0.43 -0.03,0.97 -0.02,0.57 -0.07,1.41 -0.11,2.56 -0.05,1.13 -0.11,2.74 -0.2,4.83 3.12,-5.05 6.52,-8.79 10.19,-11.26 3.66,-2.47 7.49,-3.71 11.48,-3.71 4.3,0 7.69,1.49 10.16,4.48 2.47,2.99 3.9,7.32 4.31,12.95 3.26,-5.97 6.88,-10.37 10.84,-13.2 3.96,-2.83 8.27,-4.23 12.93,-4.23 5.21,0 9.24,1.74 12.07,5.25 2.83,3.51 4.23,8.58 4.23,15.2 0,0.9 -0.02,1.85 -0.06,2.87 -0.05,1.02 -0.14,2.06 -0.27,3.1l-5.24 44.36 -16.57 0c0.9,-7.7 1.67,-14.24 2.31,-19.61 0.63,-5.36 1.15,-9.85 1.56,-13.45 0.41,-3.6 0.73,-6.41 0.95,-8.44 0.23,-2.04 0.41,-3.63 0.52,-4.74 0.12,-1.1 0.18,-1.85 0.21,-2.24 0.02,-0.38 0.02,-0.68 0.02,-0.9 0,-2.72 -0.45,-4.69 -1.36,-5.89 -0.9,-1.2 -2.38,-1.79 -4.41,-1.79 -1.73,0 -3.4,0.45 -5.03,1.36 -1.63,0.91 -3.17,2.22 -4.64,3.94 -1.48,1.72 -2.83,3.83 -4.08,6.32 -1.25,2.49 -2.36,5.3 -3.31,8.42l-4.34 37.02 -16.51 0 5.23 -44.36c0.09,-0.95 0.18,-1.85 0.25,-2.69 0.07,-0.84 0.09,-1.61 0.09,-2.33 0,-2.72 -0.43,-4.69 -1.31,-5.89 -0.89,-1.2 -2.36,-1.79 -4.4,-1.79 -1.76,0 -3.48,0.48 -5.16,1.43 -1.68,0.95 -3.24,2.31 -4.71,4.1 -1.47,1.79 -2.83,3.96 -4.08,6.52 -1.24,2.56 -2.35,5.43 -3.3,8.6l-4.35 36.41 -16.44 0z"/>
   <path id="12" class="fil0" d="M1680.32 994.77l-8.84 0c-2.03,0 -3.46,-0.47 -4.28,-1.43 -0.81,-0.95 -1.22,-2.15 -1.22,-3.6l0.55 -9.51c-3.08,4.8 -6.55,8.59 -10.4,11.37 -3.85,2.79 -8.08,4.19 -12.7,4.19 -2.63,0 -5.07,-0.52 -7.36,-1.56 -2.29,-1.04 -4.28,-2.61 -5.98,-4.67 -1.7,-2.06 -3.03,-4.64 -4.01,-7.76 -0.97,-3.11 -1.47,-6.75 -1.47,-10.92 0,-4.16 0.52,-8.24 1.56,-12.18 1.05,-3.94 2.54,-7.65 4.46,-11.14 1.93,-3.47 4.24,-6.66 6.96,-9.56 2.71,-2.9 5.77,-5.39 9.14,-7.47 3.38,-2.11 7.02,-3.71 10.94,-4.87 3.92,-1.15 8.04,-1.74 12.39,-1.74 3.12,0 6.27,0.23 9.42,0.7 3.14,0.45 6.22,1.29 9.26,2.49l-8.42 67.66zm-30.3 -12.7c1.85,0 3.69,-0.64 5.48,-1.9 1.79,-1.27 3.46,-3.04 5.05,-5.28 1.58,-2.24 3.05,-4.89 4.41,-7.93 1.36,-3.03 2.54,-6.29 3.53,-9.78l2.65 -21.08c-1.22,-0.16 -2.35,-0.23 -3.39,-0.23 -3.76,0 -7.25,0.86 -10.46,2.59 -3.22,1.72 -6,4.05 -8.36,6.97 -2.35,2.92 -4.19,6.34 -5.52,10.21 -1.34,3.87 -2.02,7.97 -2.02,12.28 0,4.89 0.77,8.49 2.31,10.75 1.54,2.27 3.65,3.4 6.32,3.4zm42.66 -86.75l-17.8 17.73c-0.9,0.91 -1.77,1.52 -2.58,1.83 -0.82,0.32 -1.83,0.48 -3.06,0.48l-9.64 0 10.87 -16.51c0.77,-1.18 1.63,-2.06 2.55,-2.65 0.93,-0.59 2.25,-0.88 3.97,-0.88l15.69 0z"/>
   <path id="13" class="fil0" d="M1745.14 938.05c-0.49,0.72 -0.97,1.24 -1.42,1.54 -0.46,0.29 -1.04,0.43 -1.77,0.43 -0.77,0 -1.56,-0.23 -2.38,-0.68 -0.81,-0.45 -1.74,-0.95 -2.8,-1.52 -1.07,-0.56 -2.29,-1.09 -3.67,-1.54 -1.38,-0.45 -3.06,-0.68 -5.01,-0.68 -3.58,0 -6.32,0.82 -8.22,2.43 -1.9,1.6 -2.85,3.6 -2.85,6 0,1.4 0.41,2.6 1.2,3.57 0.79,0.98 1.81,1.84 3.08,2.56 1.27,0.73 2.72,1.38 4.35,2 1.63,0.61 3.3,1.26 5.02,1.97 1.73,0.7 3.4,1.49 5.03,2.4 1.63,0.88 3.08,1.94 4.35,3.21 1.27,1.27 2.31,2.81 3.1,4.6 0.79,1.79 1.18,3.94 1.18,6.43 0,3.35 -0.66,6.54 -1.99,9.58 -1.34,3.03 -3.26,5.7 -5.76,7.99 -2.49,2.29 -5.5,4.1 -9.03,5.44 -3.53,1.33 -7.47,2.01 -11.82,2.01 -2.22,0 -4.35,-0.2 -6.41,-0.63 -2.06,-0.43 -4.01,-1.02 -5.82,-1.77 -1.81,-0.77 -3.44,-1.65 -4.91,-2.69 -1.47,-1.02 -2.74,-2.13 -3.78,-3.33l4.07 -6.5c0.5,-0.77 1.11,-1.38 1.81,-1.79 0.71,-0.41 1.52,-0.61 2.47,-0.61 0.95,0 1.81,0.29 2.58,0.88 0.77,0.59 1.68,1.22 2.72,1.93 1.04,0.7 2.31,1.35 3.78,1.94 1.47,0.59 3.35,0.89 5.66,0.89 1.86,0 3.51,-0.25 4.94,-0.75 1.43,-0.5 2.63,-1.18 3.6,-2.04 0.97,-0.86 1.7,-1.86 2.2,-3.01 0.49,-1.13 0.74,-2.33 0.74,-3.6 0,-1.54 -0.38,-2.83 -1.15,-3.85 -0.77,-1.02 -1.79,-1.9 -3.08,-2.65 -1.29,-0.75 -2.76,-1.4 -4.39,-1.97 -1.63,-0.57 -3.29,-1.18 -4.99,-1.81 -1.69,-0.64 -3.35,-1.36 -4.95,-2.18 -1.61,-0.81 -3.06,-1.85 -4.35,-3.1 -1.29,-1.24 -2.33,-2.76 -3.1,-4.55 -0.77,-1.81 -1.16,-3.98 -1.16,-6.59 0,-3.08 0.59,-6.09 1.77,-9.01 1.17,-2.92 2.92,-5.53 5.21,-7.77 2.28,-2.24 5.09,-4.05 8.42,-5.41 3.33,-1.36 7.13,-2.04 11.43,-2.04 4.44,0 8.38,0.77 11.8,2.29 3.42,1.54 6.3,3.49 8.65,5.86l-4.35 6.12z"/>
   <path id="14" class="fil0" d="M1807.26 937.51l-6.59 54.36 -3.47 12.8c-0.63,2.24 -1.61,3.94 -2.94,5.11 -1.34,1.18 -3.24,1.77 -5.69,1.77l-6.72 0 8.9 -74.04 -5.37 -0.96c-1,-0.18 -1.81,-0.56 -2.44,-1.13 -0.64,-0.56 -0.96,-1.36 -0.96,-2.4 0,-0.04 0.03,-0.13 0.05,-0.27 0.02,-0.14 0.05,-0.45 0.09,-0.93 0.05,-0.47 0.14,-1.2 0.25,-2.17 0.11,-0.98 0.27,-2.33 0.5,-4.1l9.37 0 0.61 -5.16c0.5,-3.99 1.57,-7.57 3.17,-10.74 1.61,-3.17 3.65,-5.86 6.12,-8.08 2.47,-2.22 5.3,-3.92 8.51,-5.1 3.22,-1.17 6.68,-1.76 10.4,-1.76 2.89,0 5.57,0.45 8.01,1.36l-1.49 8.69c-0.09,0.5 -0.3,0.88 -0.64,1.18 -0.34,0.29 -0.77,0.52 -1.26,0.66 -0.5,0.13 -1.05,0.22 -1.66,0.27 -0.61,0.04 -1.24,0.06 -1.88,0.06 -1.81,0 -3.46,0.25 -4.98,0.75 -1.52,0.5 -2.85,1.29 -4.01,2.4 -1.15,1.11 -2.1,2.56 -2.85,4.33 -0.75,1.79 -1.29,3.96 -1.61,6.54l-0.54 4.6 15.62 0 -1.56 11.96 -14.94 0z"/>
   <path id="15" class="fil0" d="M1851.91 925c-0.91,7.66 -1.68,14.16 -2.31,19.46 -0.64,5.3 -1.16,9.73 -1.56,13.27 -0.41,3.53 -0.73,6.31 -0.96,8.35 -0.22,2.04 -0.38,3.58 -0.49,4.62 -0.12,1.04 -0.18,1.77 -0.21,2.13 -0.02,0.36 -0.04,0.66 -0.04,0.88 0,2.99 0.56,5.12 1.67,6.41 1.11,1.29 2.79,1.95 5.05,1.95 1.77,0 3.6,-0.5 5.48,-1.47 1.88,-0.98 3.69,-2.36 5.44,-4.17 1.74,-1.81 3.35,-4.03 4.84,-6.61 1.5,-2.58 2.77,-5.46 3.81,-8.63l4.34 -36.19 16.78 0 -8.42 69.7 -8.49 0c-0.77,0 -1.5,-0.09 -2.2,-0.29 -0.7,-0.2 -1.33,-0.52 -1.9,-0.93 -0.57,-0.41 -1.02,-0.93 -1.36,-1.54 -0.34,-0.63 -0.52,-1.38 -0.52,-2.24l0 -0.27 0.41 -8.45c-3.53,4.98 -7.38,8.7 -11.57,11.14 -4.19,2.45 -8.54,3.67 -13.02,3.67 -2.58,0 -4.92,-0.47 -7.02,-1.4 -2.11,-0.93 -3.92,-2.27 -5.41,-4.03 -1.5,-1.77 -2.65,-3.97 -3.47,-6.57 -0.81,-2.6 -1.22,-5.59 -1.22,-8.94 0,-0.91 0.02,-1.82 0.07,-2.72 0.04,-0.91 0.13,-1.86 0.27,-2.86l5.23 -44.27 16.78 0z"/>
   <path id="16" class="fil0" d="M1962.52 941.24c0,3.13 -0.61,5.98 -1.85,8.58 -1.25,2.58 -3.49,4.92 -6.71,6.95 -3.21,2.04 -7.56,3.81 -13.06,5.28 -5.5,1.47 -12.52,2.65 -21.04,3.51l0 0.88c0,10.87 4.64,16.31 13.93,16.31 1.99,0 3.76,-0.21 5.3,-0.59 1.54,-0.39 2.9,-0.84 4.05,-1.38 1.15,-0.55 2.2,-1.16 3.12,-1.84 0.93,-0.68 1.79,-1.29 2.59,-1.83 0.79,-0.54 1.56,-1.02 2.33,-1.41 0.77,-0.38 1.61,-0.56 2.51,-0.56 0.55,0 1.09,0.13 1.63,0.38 0.55,0.25 1,0.62 1.36,1.11l4.28 5.19c-2.4,2.4 -4.75,4.48 -7.06,6.27 -2.31,1.77 -4.67,3.22 -7.07,4.35 -2.4,1.15 -4.94,1.99 -7.61,2.54 -2.67,0.54 -5.59,0.81 -8.76,0.81 -4.08,0 -7.77,-0.7 -11.07,-2.08 -3.31,-1.38 -6.14,-3.33 -8.5,-5.84 -2.35,-2.52 -4.16,-5.55 -5.45,-9.11 -1.29,-3.55 -1.95,-7.54 -1.95,-11.93 0,-3.67 0.41,-7.27 1.2,-10.83 0.79,-3.53 1.92,-6.88 3.42,-10.05 1.49,-3.17 3.33,-6.09 5.5,-8.76 2.18,-2.7 4.64,-5.01 7.38,-6.95 2.74,-1.95 5.76,-3.47 9.04,-4.56 3.28,-1.08 6.79,-1.63 10.55,-1.63 3.67,0 6.88,0.52 9.63,1.57 2.73,1.04 5.02,2.4 6.86,4.05 1.83,1.68 3.19,3.51 4.09,5.57 0.91,2.04 1.36,4.03 1.36,6zm-22.89 -5.5c-2.26,0 -4.37,0.47 -6.32,1.4 -1.95,0.95 -3.69,2.29 -5.25,3.99 -1.56,1.7 -2.92,3.73 -4.08,6.09 -1.15,2.38 -2.08,4.96 -2.76,7.77 5.62,-0.77 10.14,-1.63 13.56,-2.54 3.42,-0.93 6.07,-1.95 7.95,-3.06 1.88,-1.08 3.13,-2.26 3.74,-3.51 0.61,-1.24 0.9,-2.58 0.9,-4.01 0,-0.67 -0.13,-1.4 -0.43,-2.12 -0.29,-0.75 -0.74,-1.41 -1.35,-1.97 -0.62,-0.57 -1.41,-1.07 -2.38,-1.45 -0.98,-0.39 -2.18,-0.59 -3.58,-0.59z"/>
   <path id="17" class="fil0" d="M1970.97 994.7l8.49 -69.83 8.49 0c1.63,0 2.97,0.36 4.01,1.11 1.04,0.72 1.56,1.9 1.56,3.51 0,0 0,0.07 0,0.25 0,0.16 -0.02,0.65 -0.07,1.47 -0.04,0.81 -0.09,2.11 -0.13,3.87 -0.05,1.77 -0.14,4.24 -0.27,7.41 2.85,-5.76 5.97,-10.19 9.37,-13.32 3.4,-3.15 6.93,-4.71 10.6,-4.71 1.85,0 3.73,0.43 5.64,1.27l-3.06 16.82c-2.27,-1.47 -4.42,-2.19 -6.45,-2.19 -4.03,0 -7.57,1.92 -10.6,5.77 -3.04,3.85 -5.53,9.87 -7.47,18.07l-3.67 30.5 -16.44 0z"/>
   <path id="18" class="fil0" d="M2029.82 980.48c0,-0.31 0,-0.68 0,-1.11 0,-0.43 0.04,-1.06 0.11,-1.9 0.07,-0.86 0.18,-1.97 0.34,-3.35 0.16,-1.38 0.36,-3.15 0.64,-5.32l3.87 -31.29 -6.59 0c-0.77,0 -1.38,-0.25 -1.86,-0.73 -0.47,-0.48 -0.72,-1.18 -0.72,-2.13 0,-0.04 0.02,-0.13 0.04,-0.27 0.02,-0.14 0.05,-0.45 0.09,-0.93 0.05,-0.47 0.14,-1.18 0.25,-2.13 0.11,-0.95 0.25,-2.28 0.43,-4l10.6 -1.84 5.57 -19.02c0.27,-0.91 0.75,-1.61 1.4,-2.11 0.66,-0.49 1.45,-0.74 2.4,-0.74l8.97 0 -2.72 21.94 16.85 0 -1.43 11.96 -16.91 0 -3.74 30.36c-0.22,1.86 -0.38,3.33 -0.5,4.42 -0.11,1.08 -0.2,1.92 -0.27,2.53 -0.07,0.61 -0.11,1.04 -0.13,1.29 -0.03,0.25 -0.05,0.43 -0.05,0.52 0,1.72 0.43,3.08 1.27,4.08 0.84,1 2.01,1.49 3.55,1.49 0.96,0 1.77,-0.13 2.45,-0.38 0.68,-0.25 1.27,-0.5 1.77,-0.77 0.49,-0.27 0.95,-0.54 1.33,-0.79 0.39,-0.25 0.75,-0.37 1.11,-0.37 0.5,0 0.91,0.14 1.2,0.39 0.3,0.25 0.55,0.61 0.77,1.11l3.6 8.22c-2.49,2.04 -5.25,3.58 -8.28,4.62 -3.04,1.04 -6.1,1.56 -9.18,1.56 -4.93,0 -8.83,-1.34 -11.7,-4.01 -2.88,-2.67 -4.4,-6.45 -4.53,-11.3z"/>
   <path id="19" class="fil0" d="M2133.37 941.24c0,3.13 -0.61,5.98 -1.86,8.58 -1.24,2.58 -3.49,4.92 -6.7,6.95 -3.22,2.04 -7.56,3.81 -13.07,5.28 -5.5,1.47 -12.52,2.65 -21.03,3.51l0 0.88c0,10.87 4.64,16.31 13.92,16.31 2,0 3.76,-0.21 5.3,-0.59 1.54,-0.39 2.9,-0.84 4.06,-1.38 1.15,-0.55 2.19,-1.16 3.12,-1.84 0.93,-0.68 1.79,-1.29 2.58,-1.83 0.79,-0.54 1.56,-1.02 2.33,-1.41 0.77,-0.38 1.61,-0.56 2.52,-0.56 0.54,0 1.08,0.13 1.63,0.38 0.54,0.25 0.99,0.62 1.36,1.11l4.28 5.19c-2.4,2.4 -4.76,4.48 -7.07,6.27 -2.31,1.77 -4.66,3.22 -7.06,4.35 -2.4,1.15 -4.94,1.99 -7.61,2.54 -2.68,0.54 -5.6,0.81 -8.77,0.81 -4.07,0 -7.76,-0.7 -11.07,-2.08 -3.3,-1.38 -6.13,-3.33 -8.49,-5.84 -2.36,-2.52 -4.17,-5.55 -5.46,-9.11 -1.29,-3.55 -1.95,-7.54 -1.95,-11.93 0,-3.67 0.41,-7.27 1.21,-10.83 0.79,-3.53 1.92,-6.88 3.41,-10.05 1.5,-3.17 3.33,-6.09 5.51,-8.76 2.17,-2.7 4.64,-5.01 7.38,-6.95 2.74,-1.95 5.75,-3.47 9.03,-4.56 3.29,-1.08 6.8,-1.63 10.56,-1.63 3.66,0 6.88,0.52 9.62,1.57 2.74,1.04 5.03,2.4 6.86,4.05 1.84,1.68 3.19,3.51 4.1,5.57 0.91,2.04 1.36,4.03 1.36,6zm-22.89 -5.5c-2.27,0 -4.38,0.47 -6.32,1.4 -1.95,0.95 -3.69,2.29 -5.26,3.99 -1.56,1.7 -2.92,3.73 -4.07,6.09 -1.16,2.38 -2.09,4.96 -2.76,7.77 5.61,-0.77 10.14,-1.63 13.56,-2.54 3.42,-0.93 6.07,-1.95 7.95,-3.06 1.88,-1.08 3.12,-2.26 3.73,-3.51 0.62,-1.24 0.91,-2.58 0.91,-4.01 0,-0.67 -0.14,-1.4 -0.43,-2.12 -0.29,-0.75 -0.75,-1.41 -1.36,-1.97 -0.61,-0.57 -1.4,-1.07 -2.38,-1.45 -0.97,-0.39 -2.17,-0.59 -3.57,-0.59z"/>
   <path id="20" class="fil0" d="M2188.07 938.05c-0.49,0.72 -0.97,1.24 -1.42,1.54 -0.45,0.29 -1.04,0.43 -1.77,0.43 -0.77,0 -1.56,-0.23 -2.38,-0.68 -0.81,-0.45 -1.74,-0.95 -2.8,-1.52 -1.07,-0.56 -2.29,-1.09 -3.67,-1.54 -1.38,-0.45 -3.06,-0.68 -5.01,-0.68 -3.57,0 -6.31,0.82 -8.22,2.43 -1.9,1.6 -2.85,3.6 -2.85,6 0,1.4 0.41,2.6 1.2,3.57 0.79,0.98 1.81,1.84 3.08,2.56 1.27,0.73 2.72,1.38 4.35,2 1.63,0.61 3.3,1.26 5.03,1.97 1.72,0.7 3.39,1.49 5.02,2.4 1.63,0.88 3.08,1.94 4.35,3.21 1.27,1.27 2.31,2.81 3.1,4.6 0.79,1.79 1.18,3.94 1.18,6.43 0,3.35 -0.66,6.54 -1.99,9.58 -1.34,3.03 -3.26,5.7 -5.75,7.99 -2.5,2.29 -5.51,4.1 -9.04,5.44 -3.53,1.33 -7.47,2.01 -11.82,2.01 -2.22,0 -4.35,-0.2 -6.41,-0.63 -2.06,-0.43 -4.01,-1.02 -5.82,-1.77 -1.81,-0.77 -3.44,-1.65 -4.91,-2.69 -1.47,-1.02 -2.74,-2.13 -3.78,-3.33l4.07 -6.5c0.5,-0.77 1.11,-1.38 1.81,-1.79 0.71,-0.41 1.52,-0.61 2.47,-0.61 0.95,0 1.81,0.29 2.58,0.88 0.77,0.59 1.68,1.22 2.72,1.93 1.04,0.7 2.31,1.35 3.78,1.94 1.48,0.59 3.35,0.89 5.66,0.89 1.86,0 3.51,-0.25 4.94,-0.75 1.43,-0.5 2.63,-1.18 3.6,-2.04 0.97,-0.86 1.7,-1.86 2.2,-3.01 0.5,-1.13 0.74,-2.33 0.74,-3.6 0,-1.54 -0.38,-2.83 -1.15,-3.85 -0.77,-1.02 -1.79,-1.9 -3.08,-2.65 -1.29,-0.75 -2.76,-1.4 -4.39,-1.97 -1.63,-0.57 -3.29,-1.18 -4.98,-1.81 -1.7,-0.64 -3.36,-1.36 -4.96,-2.18 -1.61,-0.81 -3.06,-1.85 -4.35,-3.1 -1.29,-1.24 -2.33,-2.76 -3.1,-4.55 -0.77,-1.81 -1.16,-3.98 -1.16,-6.59 0,-3.08 0.59,-6.09 1.77,-9.01 1.18,-2.92 2.92,-5.53 5.21,-7.77 2.28,-2.24 5.09,-4.05 8.42,-5.41 3.33,-1.36 7.13,-2.04 11.43,-2.04 4.44,0 8.38,0.77 11.8,2.29 3.42,1.54 6.3,3.49 8.65,5.86l-4.35 6.12z"/>
   <path class="fil0" d="M265.3 751.39l-34.44 0c-7.24,0 -12.93,-1.14 -17.07,-3.31 -4.13,-2.18 -7.24,-6.52 -9.31,-13.14l-6.82 -22.65c-8.07,7.24 -15.93,13.55 -23.69,19.03 -7.76,5.48 -15.82,10.14 -24.1,13.86 -8.27,3.72 -17.06,6.52 -26.37,8.38 -9.31,1.86 -19.65,2.79 -31.03,2.79 -13.45,0 -25.86,-1.86 -37.24,-5.48 -11.37,-3.62 -21.1,-9 -29.27,-16.34 -8.17,-7.24 -14.58,-16.24 -19.13,-27.1 -4.55,-10.76 -6.83,-23.27 -6.83,-37.65 0,-12 3.21,-23.89 9.52,-35.58 6.31,-11.79 16.75,-22.34 31.44,-31.75 14.69,-9.52 34.23,-17.38 58.64,-23.59 24.42,-6.2 54.72,-9.31 90.92,-9.31l0 -18.72c0,-21.51 -4.45,-37.44 -13.44,-47.68 -9,-10.34 -22.14,-15.51 -39.31,-15.51 -12.41,0 -22.75,1.44 -31.03,4.34 -8.27,2.9 -15.41,6.1 -21.51,9.72 -6.1,3.62 -11.79,6.93 -16.96,9.83 -5.18,2.9 -10.87,4.34 -17.07,4.34 -5.17,0 -9.62,-1.34 -13.34,-4.03 -3.73,-2.69 -6.73,-6 -9,-9.93l-13.97 -24.51c36.62,-33.72 80.78,-50.58 132.5,-50.58 18.62,0 35.27,3.1 49.85,9.2 14.59,6.11 26.9,14.59 37.03,25.45 10.14,10.86 17.9,23.89 23.17,38.99 5.28,15.1 7.86,31.65 7.86,49.65l0 201.28zm-148.94 -47.79c7.86,0 15.1,-0.72 21.72,-2.17 6.62,-1.45 12.93,-3.62 18.83,-6.52 5.89,-2.89 11.58,-6.51 17.06,-10.75 5.48,-4.24 10.97,-9.21 16.55,-15l0 -53.06c-22.34,0 -40.96,1.45 -55.96,4.24 -14.99,2.79 -27.09,6.41 -36.2,10.86 -9.1,4.34 -15.51,9.51 -19.34,15.31 -3.83,5.89 -5.79,12.2 -5.79,19.13 0,13.55 4.03,23.38 12,29.17 7.96,5.9 18.3,8.79 31.13,8.79z"/>
   <path id="1" class="fil0" d="M340.7 751.39l0 -318.37 46.86 0c9.93,0 16.44,4.66 19.55,13.97l5.27 25.13c6.41,-6.62 13.24,-12.62 20.38,-18 7.13,-5.37 14.68,-10.03 22.65,-13.96 7.96,-3.93 16.44,-6.93 25.55,-9 9.1,-2.07 19.03,-3.1 29.78,-3.1 17.38,0 32.79,2.9 46.24,8.79 13.44,5.9 24.72,14.17 33.72,24.82 9,10.66 15.82,23.38 20.48,38.17 4.65,14.79 6.93,31.13 6.93,48.92l0 202.63 -76.65 0 0 -202.63c0,-19.44 -4.44,-34.54 -13.44,-45.2 -9,-10.65 -22.55,-15.92 -40.55,-15.92 -13.24,0 -25.65,3 -37.23,8.99 -11.59,6 -22.55,14.17 -32.89,24.52l0 230.24 -76.65 0z"/>
   <path id="2" class="fil0" d="M693.51 751.39l0 -318.37 44.99 0c7.86,0 13.34,1.45 16.45,4.35 3.1,2.9 5.17,7.86 6.2,14.89l4.66 38.48c11.37,-19.76 24.72,-35.37 40.02,-46.75 15.31,-11.48 32.48,-17.17 51.51,-17.17 15.72,0 28.76,3.72 39.1,11.17l-9.93 57.4c-0.62,3.73 -1.96,6.31 -4.03,7.86 -2.07,1.56 -4.86,2.38 -8.38,2.38 -3.1,0 -7.34,-0.72 -12.72,-2.17 -5.38,-1.45 -12.52,-2.17 -21.41,-2.17 -15.93,0 -29.58,4.34 -40.96,13.14 -11.38,8.79 -21,21.72 -28.86,38.68l0 198.28 -76.64 0z"/>
   <path id="3" class="fil1" d="M947.02 751.39l0 -461.1 76.64 0 0 177.18c12.41,-11.79 26.07,-21.31 40.96,-28.55 14.89,-7.24 32.37,-10.86 52.44,-10.86 17.38,0 32.79,2.9 46.23,8.79 13.45,5.9 24.72,14.17 33.72,24.82 9,10.66 15.83,23.38 20.48,38.17 4.66,14.79 6.93,31.13 6.93,48.92l0 202.63 -76.64 0 0 -202.63c0,-19.44 -4.45,-34.54 -13.45,-45.2 -9,-10.65 -22.55,-15.92 -40.54,-15.92 -13.24,0 -25.65,3 -37.24,8.99 -11.58,6 -22.55,14.17 -32.89,24.52l0 230.24 -76.64 0z"/>
   <path id="4" class="fil1" d="M1369.95 433.02l0 202.11c0,19.34 4.55,34.44 13.55,45.1 9,10.65 22.44,15.92 40.44,15.92 13.24,0 25.65,-2.89 37.24,-8.68 11.58,-5.8 22.55,-13.86 32.89,-24l0 -230.45 76.64 0 0 318.37 -46.85 0c-9.93,0 -16.45,-4.66 -19.55,-13.97l-5.28 -25.44c-6.62,6.62 -13.44,12.62 -20.48,18.1 -7.03,5.48 -14.48,10.14 -22.44,13.96 -7.97,3.83 -16.55,6.83 -25.76,9 -9.2,2.17 -19.13,3.31 -29.68,3.31 -17.38,0 -32.68,-3 -46.03,-8.89 -13.34,-5.9 -24.61,-14.17 -33.72,-24.93 -9.1,-10.76 -15.92,-23.58 -20.58,-38.37 -4.65,-14.79 -7.03,-31.03 -7.03,-48.82l0 -202.32 76.64 0z"/>
   <path id="5" class="fil1" d="M1876.35 500.67c-2.27,2.89 -4.45,5.17 -6.62,6.83 -2.17,1.65 -5.38,2.48 -9.52,2.48 -3.93,0 -7.75,-1.24 -11.48,-3.62 -3.72,-2.38 -8.17,-5.07 -13.34,-8.07 -5.17,-3 -11.27,-5.69 -18.41,-8.07 -7.14,-2.38 -16.03,-3.51 -26.58,-3.51 -13.45,0 -25.24,2.37 -35.37,7.24 -10.14,4.86 -18.52,11.89 -25.24,20.99 -6.73,9 -11.79,20.07 -15.1,33 -3.31,12.82 -4.97,27.51 -4.97,43.75 0,16.96 1.86,32.06 5.48,45.3 3.62,13.24 8.8,24.31 15.62,33.31 6.83,8.99 15.1,15.82 24.83,20.48 9.72,4.65 20.68,6.93 32.89,6.93 12.2,0 22.13,-1.45 29.68,-4.45 7.55,-3 13.86,-6.31 19.03,-9.93 5.17,-3.62 9.73,-6.93 13.55,-9.93 3.83,-3 8.07,-4.55 12.83,-4.55 6.2,0 10.86,2.48 13.96,7.24l22.03 28.13c-8.48,9.93 -17.68,18.21 -27.61,24.93 -9.93,6.72 -20.17,12.1 -30.83,16.13 -10.65,4.04 -21.72,6.93 -33.09,8.59 -11.38,1.65 -22.66,2.48 -33.83,2.48 -19.65,0 -38.16,-3.72 -55.54,-11.07 -17.38,-7.34 -32.48,-17.99 -45.41,-32.06 -12.92,-14.17 -23.16,-31.34 -30.71,-51.72 -7.56,-20.47 -11.38,-43.64 -11.38,-69.81 0,-23.38 3.41,-44.99 10.13,-65.06 6.73,-19.96 16.55,-37.24 29.59,-51.82 13.03,-14.58 29.16,-26.06 48.4,-34.34 19.24,-8.27 41.37,-12.41 66.4,-12.41 23.79,0 44.69,3.83 62.58,11.58 17.89,7.66 33.93,18.73 48.2,33.1l-20.17 27.93z"/>
   <path id="6" class="fil1" d="M2198.13 751.39l-34.45 0c-7.24,0 -12.93,-1.14 -17.06,-3.31 -4.14,-2.18 -7.24,-6.52 -9.31,-13.14l-6.83 -22.65c-8.07,7.24 -15.93,13.55 -23.68,19.03 -7.76,5.48 -15.83,10.14 -24.1,13.86 -8.28,3.72 -17.07,6.52 -26.38,8.38 -9.31,1.86 -19.65,2.79 -31.03,2.79 -13.44,0 -25.86,-1.86 -37.23,-5.48 -11.38,-3.62 -21.1,-9 -29.27,-16.34 -8.18,-7.24 -14.59,-16.24 -19.14,-27.1 -4.55,-10.76 -6.83,-23.27 -6.83,-37.65 0,-12 3.21,-23.89 9.52,-35.58 6.31,-11.79 16.76,-22.34 31.44,-31.75 14.69,-9.52 34.24,-17.38 58.65,-23.59 24.41,-6.2 54.71,-9.31 90.92,-9.31l0 -18.72c0,-21.51 -4.45,-37.44 -13.45,-47.68 -9,-10.34 -22.14,-15.51 -39.31,-15.51 -12.41,0 -22.75,1.44 -31.02,4.34 -8.28,2.9 -15.42,6.1 -21.52,9.72 -6.1,3.62 -11.79,6.93 -16.96,9.83 -5.17,2.9 -10.86,4.34 -17.07,4.34 -5.17,0 -9.62,-1.34 -13.34,-4.03 -3.72,-2.69 -6.72,-6 -9,-9.93l-13.96 -24.51c36.61,-33.72 80.78,-50.58 132.49,-50.58 18.62,0 35.27,3.1 49.86,9.2 14.58,6.11 26.89,14.59 37.03,25.45 10.13,10.86 17.89,23.89 23.16,38.99 5.28,15.1 7.87,31.65 7.87,49.65l0 201.28zm-148.95 -47.79c7.87,0 15.11,-0.72 21.73,-2.17 6.61,-1.45 12.92,-3.62 18.82,-6.52 5.9,-2.89 11.58,-6.51 17.07,-10.75 5.48,-4.24 10.96,-9.21 16.55,-15l0 -53.06c-22.35,0 -40.96,1.45 -55.96,4.24 -15,2.79 -27.1,6.41 -36.2,10.86 -9.1,4.34 -15.52,9.51 -19.34,15.31 -3.83,5.89 -5.8,12.2 -5.8,19.13 0,13.55 4.04,23.38 12,29.17 7.97,5.9 18.31,8.79 31.13,8.79z"/>
   <path class="fil0" d="M2348.36 598.14l3.75 0.03c61.72,0 117.61,-25.03 158.05,-65.47 40.44,-40.44 65.47,-96.34 65.47,-158.05 0,-61.72 -25.03,-117.61 -65.47,-158.05 -40.44,-40.44 -96.33,-65.47 -158.05,-65.47l-3.75 0.03 0 76.13 3.75 -0.04c40.7,0 77.56,16.5 104.23,43.17 26.67,26.67 43.18,63.53 43.18,104.23 0,40.7 -16.51,77.56 -43.18,104.23 -26.67,26.67 -63.53,43.17 -104.23,43.17l-3.75 -0.04 0 76.13z"/>
   <circle class="fil2" cx="2353.95" cy="334.43" r="31.88"/>
   <g>
    <path class="fil1" d="M2361.47 227.27l0.03 -3.75c0,-61.72 -25.03,-117.61 -65.47,-158.05 -40.44,-40.44 -96.33,-65.47 -158.05,-65.47 -61.71,0 -117.6,25.03 -158.04,65.47 -40.44,40.44 -65.47,96.33 -65.47,158.05l0.03 3.75 76.13 0 -0.05 -3.75c0,-40.71 16.51,-77.56 43.18,-104.23 26.66,-26.67 63.52,-43.18 104.22,-43.18 40.71,0 77.56,16.51 104.23,43.18 26.67,26.67 43.18,63.52 43.18,104.23l-0.05 3.75 76.13 0z"/>
    <path class="fil3" d="M2076.76 263.87l0 -69.77c0,-10.86 8.89,-19.75 19.75,-19.75l0.01 0c10.86,0 19.75,8.89 19.75,19.75l0 69.77c0,10.87 -8.89,19.76 -19.75,19.76l-0.01 0c-10.86,0 -19.75,-8.89 -19.75,-19.76z"/>
   </g>
  </g>
 </g>
</svg>
